<?xml version="1.0" encoding="UTF-8" standalone="no"?>
<svg width="60px" height="60px" viewBox="0 0 60 60" version="1.1" xmlns="http://www.w3.org/2000/svg" xmlns:xlink="http://www.w3.org/1999/xlink">
    <!-- Generator: Sketch 41.2 (35397) - http://www.bohemiancoding.com/sketch -->
    <title>bitcoin</title>
    <desc>Created with Sketch.</desc>
    <defs></defs>
    <g id="Wallet-UI-Kit" stroke="none" stroke-width="1" fill="none" fill-rule="evenodd">
        <g id="bitcoin">
            <g id="Layer_2">
                <g>
                    <g>
                        <g id="Layer_1-2">
                            <path d="M32.4,31.0153846 L22.6246154,31.0153846 L22.6246154,42.4061538 L32.4,42.4061538 C37.68,42.4061538 40.7076923,40.32 40.7076923,36.6184615 C40.7353846,33.1015385 37.68,31.0153846 32.4,31.0153846 Z" id="Shape"></path>
                            <path d="M39.3046154,22.2092308 C39.3046154,18.9230769 36.7569231,17.0676923 32.4,17.0676923 L22.6246154,17.0676923 L22.6246154,27.4892308 L32.4,27.4892308 C36.7569231,27.4892308 39.3046154,25.5969231 39.3046154,22.2092308 Z" id="Shape"></path>
                            <path d="M29.7230769,3.56307692 C15.2753079,3.56307692 3.56307692,15.2753079 3.56307692,29.7230769 C3.56307692,44.170846 15.2753079,55.8830769 29.7230769,55.8830769 C44.170846,55.8830769 55.8830769,44.170846 55.8830769,29.7230769 C55.8830769,15.2753079 44.170846,3.56307692 29.7230769,3.56307692 L29.7230769,3.56307692 Z M35.0769231,45.8123077 L35.0769231,50.5753846 L31.8738462,50.5753846 L31.8738462,45.96 L27.6092308,45.96 L27.6092308,50.5753846 L24.4523077,50.5753846 L24.4523077,45.96 L18.9138462,45.96 L18.9138462,13.5046154 L24.4523077,13.5046154 L24.4523077,8.88923077 L27.6092308,8.88923077 L27.6092308,13.5046154 L31.8738462,13.5046154 L31.8738462,8.88923077 L35.0769231,8.88923077 L35.0769231,13.6615385 C40.1261538,14.3353846 43.0984615,17.1876923 43.0984615,21.6092308 C43.2776043,25.2191512 40.6985682,28.3801646 37.1261538,28.9292308 C41.8061538,29.6215385 44.5107692,32.6769231 44.5107692,37.1261538 C44.4923077,42.0553846 41.0030769,45.2307692 35.0769231,45.8123077 Z" id="Shape"></path>
                            <path d="M37.08,28.9292308 C40.6524143,28.3801646 43.2314505,25.2191512 43.0523077,21.6092308 C43.0523077,17.1876923 40.08,14.3353846 35.0307692,13.6615385 L35.0307692,8.87076923 L31.8738462,8.87076923 L31.8738462,13.4861538 L27.6092308,13.4861538 L27.6092308,8.87076923 L24.4523077,8.87076923 L24.4523077,13.4861538 L18.9138462,13.4861538 L18.9138462,45.9323077 L24.4523077,45.9323077 L24.4523077,50.5476923 L27.6092308,50.5476923 L27.6092308,45.9323077 L31.8738462,45.9323077 L31.8738462,50.5476923 L35.0769231,50.5476923 L35.0769231,45.8123077 C41.0030769,45.2307692 44.4923077,42.0553846 44.4923077,37.1261538 C44.4923077,32.6769231 41.76,29.6215385 37.08,28.9292308 Z M22.6246154,17.0676923 L32.4,17.0676923 C36.7569231,17.0676923 39.3046154,18.9138462 39.3046154,22.2092308 C39.3046154,25.5046154 36.7569231,27.4892308 32.4,27.4892308 L22.6246154,27.4892308 L22.6246154,17.0676923 Z M32.4,42.4061538 L22.6246154,42.4061538 L22.6246154,31.0153846 L32.4,31.0153846 C37.68,31.0153846 40.7076923,33.1015385 40.7076923,36.6184615 C40.7353846,40.3292308 37.68,42.4061538 32.4,42.4061538 Z" id="Shape" fill="#4C4C4C"></path>
                            <path d="M29.7230769,0 C13.3074748,-1.00516573e-15 2.01033146e-15,13.3074748 0,29.7230769 C-2.01033146e-15,46.138679 13.3074748,59.4461538 29.7230769,59.4461538 C46.138679,59.4461538 59.4461538,46.138679 59.4461538,29.7230769 C59.4461538,21.8400268 56.3146244,14.2798459 50.7404662,8.70568767 C45.166308,3.13152947 37.6061271,4.82697605e-16 29.7230769,0 Z M29.7230769,55.8830769 C15.2753079,55.8830769 3.56307692,44.170846 3.56307692,29.7230769 C3.56307692,15.2753079 15.2753079,3.56307692 29.7230769,3.56307692 C44.170846,3.56307692 55.8830769,15.2753079 55.8830769,29.7230769 C55.8830769,44.170846 44.170846,55.8830769 29.7230769,55.8830769 Z" id="Shape" fill="#4C4C4C"></path>
                        </g>
                    </g>
                </g>
            </g>
        </g>
    </g>
</svg>