<?xml version="1.0" encoding="UTF-8" standalone="no"?>
<svg width="232px" height="48px" viewBox="0 0 232 48" version="1.1" xmlns="http://www.w3.org/2000/svg" xmlns:xlink="http://www.w3.org/1999/xlink">
    <!-- Generator: Sketch 41 (35326) - http://www.bohemiancoding.com/sketch -->
    <title>blockchain-wallet-logo</title>
    <desc>Created with Sketch.</desc>
    <defs></defs>
    <g id="Buy_Flows" stroke="none" stroke-width="1" fill="none" fill-rule="evenodd">
        <g id="blockchain-wallet-logo" fill="#FFFFFF">
            <g id="Layer_1">
                <path d="M16.6,12.4 C18.7,11.5 20.3,9.9 20.3,7.1 L20.3,7 C20.3,5.4 19.7,4.1 18.8,3.2 C17.4,1.8 15.3,1.1 12.3,1.1 L0,1.1 L0,24.9 L12.3,24.9 C18,24.9 21.3,22.4 21.3,18.3 L21.3,18.2 C21.3,14.9 19.4,13.3 16.6,12.4 Z M6.4,6.3 L10.7,6.3 C12.7,6.3 13.7,7 13.7,8.3 L13.7,8.4 C13.7,9.8 12.6,10.5 10.6,10.5 L6.5,10.5 L6.5,6.3 L6.4,6.3 Z M14.7,17.3 C14.7,18.7 13.5,19.5 11.5,19.5 L6.4,19.5 L6.4,15.1 L11.4,15.1 C13.7,15.1 14.7,16 14.7,17.3 L14.7,17.3 Z" id="Shape"></path>
                <polygon id="Shape" points="30.8 1 24.2 1 24.2 24.8 42.3 24.8 42.3 19 30.8 19"></polygon>
                <path d="M55.8,0.5 C48.5,0.5 43,6 43,12.9 L43,13 C43,19.8 48.4,25.3 55.8,25.3 C63.2,25.3 68.6,19.8 68.6,12.9 L68.6,12.8 C68.6,6 63.1,0.5 55.8,0.5 Z M61.8,13 C61.8,16.4 59.4,19.4 55.7,19.4 C52.1,19.4 49.6,16.4 49.6,13 L49.6,12.9 C49.6,9.5 52,6.5 55.6,6.5 C59.3,6.5 61.8,9.5 61.8,13 L61.8,13 L61.8,13 Z" id="Shape"></path>
                <path d="M83.7,19.2 C80.4,19.2 78,16.4 78,12.8 L78,12.7 C78,9.2 80.4,6.4 83.7,6.4 C86,6.4 87.5,7.5 88.9,9.2 L93.9,5.4 C91.8,2.5 88.7,0.4 83.8,0.4 C76.6,0.4 71.3,5.8 71.3,12.8 L71.3,13 C71.3,20.1 76.8,25.3 83.6,25.3 C88.9,25.3 91.9,23 94.1,19.9 L89.1,16.4 C87.6,18.1 86.1,19.2 83.7,19.2" id="Shape"></path>
                <path d="M131.4,19.2 C128.1,19.2 125.7,16.4 125.7,12.8 L125.7,12.7 C125.7,9.2 128.1,6.4 131.4,6.4 C133.7,6.4 135.2,7.5 136.6,9.2 L141.6,5.4 C139.5,2.5 136.4,0.4 131.5,0.4 C124.3,0.4 119,5.8 119,12.8 L119,13 C119,14.1 119.2,15.1 119.4,16 L119.4,16 C120.7,21.5 125.5,25.3 131.3,25.3 C136.6,25.3 139.6,23 141.8,19.9 L136.8,16.4 C135.3,18.1 133.9,19.2 131.4,19.2" id="Shape"></path>
                <polygon id="Shape" points="159.6 9.9 151.1 9.9 151.1 1 144.5 1 144.5 24.8 151.1 24.8 151.1 15.7 159.6 15.7 159.6 24.8 166.2 24.8 166.2 1 159.6 1"></polygon>
                <path d="M185,0.8 L178.6,0.8 L168.5,24.7 L175.4,24.7 L177.1,20.4 L186.3,20.4 L188,24.7 L195.1,24.7 L185,0.8 Z M179.1,15.4 L181.8,8.6 L184.5,15.4 L179.1,15.4 Z" id="Shape"></path>
                <rect id="Rectangle-path" x="197.5" y="1" width="6.6" height="23.8"></rect>
                <polygon id="Shape" points="224.5 1 224.5 13.6 214.7 1 208.5 1 208.5 24.8 215 24.8 215 11.7 225.2 24.8 231 24.8 231 1"></polygon>
                <polygon id="Shape" points="119.4 1 118.2 1 116.2 1 113.7 1 111.6 1 111.6 1 111.6 1 103.4 10.6 103.4 1 96.8 1 96.8 24.8 103.4 24.8 103.4 18.6 105.8 16 111.8 24.8 111.8 24.8 111.8 24.8 118.4 24.8 109.4 12"></polygon>
                <g id="Group" transform="translate(179.000000, 34.000000)">
                    <polygon id="Shape" points="7.3 5.9 4.8 13.6 3.3 13.6 0.2 4 1.7 4 4 11.6 6.5 4 7.8 4 10.3 11.6 12.6 4 14.1 4 11 13.6 9.5 13.6"></polygon>
                    <path d="M22.4,12.5 C21.6,13.4 20.5,13.8 19.2,13.8 C17.6,13.8 15.9,12.7 15.9,10.6 C15.9,8.5 17.6,7.4 19.2,7.4 C20.5,7.4 21.6,7.8 22.4,8.7 L22.4,7 C22.4,5.7 21.4,5 20,5 C18.8,5 17.9,5.4 17.1,6.3 L16.4,5.3 C17.4,4.2 18.7,3.7 20.2,3.7 C22.2,3.7 23.9,4.6 23.9,6.9 L23.9,13.5 L22.4,13.5 L22.4,12.5 L22.4,12.5 Z M22.4,9.7 C21.8,8.9 20.8,8.5 19.8,8.5 C18.4,8.5 17.4,9.4 17.4,10.6 C17.4,11.8 18.4,12.7 19.8,12.7 C20.9,12.7 21.9,12.3 22.4,11.5 L22.4,9.7 Z" id="Shape"></path>
                    <polygon id="Shape" points="27.2 0.3 28.7 0.3 28.7 13.5 27.2 13.5"></polygon>
                    <polygon id="Shape" points="32 0.3 33.5 0.3 33.5 13.5 32 13.5"></polygon>
                    <path d="M40.9,3.8 C43.8,3.8 45.5,6.1 45.5,8.9 L45.5,9.3 L37.7,9.3 C37.8,11.1 39.1,12.6 41.1,12.6 C42.2,12.6 43.3,12.2 44.1,11.4 L44.8,12.4 C43.8,13.4 42.6,13.9 41,13.9 C38.2,13.9 36.1,11.9 36.1,8.9 C36.2,6 38.2,3.8 40.9,3.8 Z M37.8,8.2 L44.1,8.2 C44.1,6.8 43.1,5 40.9,5 C38.9,5 37.9,6.7 37.8,8.2 Z" id="Shape"></path>
                    <path d="M48.6,11.6 L48.6,5.3 L47,5.3 L47,4 L48.6,4 L48.6,1.4 L50.1,1.4 L50.1,4 L52,4 L52,5.3 L50,5.3 L50,11.2 C50,11.9 50.3,12.4 51,12.4 C51.4,12.4 51.8,12.2 52,12 L52.4,13.1 C52,13.5 51.5,13.7 50.6,13.7 C49.3,13.8 48.6,13 48.6,11.6 Z" id="Shape"></path>
                </g>
            </g>
        </g>
    </g>
</svg>