<?xml version="1.0" encoding="UTF-8" standalone="no"?>
<svg width="232px" height="173px" viewBox="0 0 232 173" version="1.1" xmlns="http://www.w3.org/2000/svg" xmlns:xlink="http://www.w3.org/1999/xlink">
    <!-- Generator: Sketch 40.3 (33839) - http://www.bohemiancoding.com/sketch -->
    <title>blockchain-wallet-logo</title>
    <desc>Created with Sketch.</desc>
    <defs></defs>
    <g id="Page-1" stroke="none" stroke-width="1" fill="none" fill-rule="evenodd">
        <g id="blockchain-wallet-logo" fill="#FFFFFF">
            <g id="Layer_1">
                <g id="Group" transform="translate(78.000000, 0.000000)">
                    <path d="M10.5,86.7 C11.85,86.7 13.35,86.55 14.7,86.55 L14.7,83.25 C13.35,83.25 11.85,83.25 10.5,83.4 C10.5,84.45 10.5,85.65 10.5,86.7 L10.5,86.7 Z" id="Shape"></path>
                    <path d="M5.25,87 C6.6,87 7.95,86.85 9.45,86.85 L9.45,83.4 C8.1,83.4 6.75,83.55 5.25,83.55 L5.25,87 L5.25,87 Z" id="Shape"></path>
                    <path d="M0,87.3 C1.35,87.15 2.85,87.15 4.2,87 L4.2,83.55 C2.85,83.55 1.35,83.7 0,83.85 L0,87.3 L0,87.3 Z" id="Shape"></path>
                    <path d="M42.15,87.3 C43.5,87.45 45,87.6 46.35,87.6 L46.35,84.15 C45,84.15 43.5,84 42.15,84 L42.15,87.3 L42.15,87.3 Z" id="Shape"></path>
                    <path d="M21,86.55 L25.2,86.55 L25.2,83.25 L21,83.25 L21,86.55 L21,86.55 Z" id="Shape"></path>
                    <path d="M15.75,86.55 L19.95,86.55 L19.95,83.25 L15.75,83.25 L15.75,86.55 L15.75,86.55 Z" id="Shape"></path>
                    <path d="M63,89.85 C64.35,90 65.7,90.3 67.2,90.6 L67.2,86.85 C65.85,86.7 64.5,86.4 63,86.25 L63,89.85 L63,89.85 Z" id="Shape"></path>
                    <path d="M0,30.75 C1.35,30.75 2.85,30.9 4.2,30.9 L4.2,27.45 C2.85,27.45 1.35,27.3 0,27.3 L0,30.75 L0,30.75 Z" id="Shape"></path>
                    <path d="M10.5,31.05 L14.7,31.05 L14.7,27.75 C13.35,27.75 11.85,27.75 10.5,27.6 C10.5,28.8 10.5,30 10.5,31.05 L10.5,31.05 Z" id="Shape"></path>
                    <path d="M19.95,53.4 L15.75,53.4 L15.75,56.7 L19.95,56.7 L19.95,53.4 L19.95,53.4 Z" id="Shape"></path>
                    <path d="M10.5,56.85 L14.7,56.85 L14.7,53.55 L10.5,53.55 C10.5,54.6 10.5,55.65 10.5,56.85 L10.5,56.85 Z" id="Shape"></path>
                    <path d="M73.35,91.65 C74.7,91.95 76.05,92.25 77.4,92.55 L77.4,88.65 C76.05,88.35 74.7,88.2 73.35,87.9 L73.35,91.65 L73.35,91.65 Z" id="Shape"></path>
                    <path d="M77.55,9.15 C76.2,9.45 74.85,9.75 73.5,10.05 L73.5,13.95 C74.85,13.65 76.2,13.5 77.55,13.2 L77.55,9.15 L77.55,9.15 Z" id="Shape"></path>
                    <path d="M68.25,90.6 C69.6,90.9 70.95,91.05 72.3,91.35 L72.3,87.6 C70.95,87.3 69.6,87.15 68.25,86.85 L68.25,90.6 L68.25,90.6 Z" id="Shape"></path>
                    <path d="M67.2,11.1 C65.85,11.4 64.5,11.55 63,11.85 L63,15.45 C64.35,15.3 65.7,15 67.2,14.85 L67.2,11.1 L67.2,11.1 Z" id="Shape"></path>
                    <path d="M72.3,10.2 C70.95,10.5 69.6,10.65 68.25,10.95 L68.25,14.7 C69.6,14.55 70.95,14.25 72.3,13.95 L72.3,10.2 L72.3,10.2 Z" id="Shape"></path>
                    <path d="M19.95,15 L15.75,15 L15.75,18.3 L19.95,18.3 L19.95,15 L19.95,15 Z" id="Shape"></path>
                    <path d="M25.2,15 L21,15 L21,18.3 L25.2,18.3 L25.2,15 L25.2,15 Z" id="Shape"></path>
                    <path d="M10.5,91.05 C11.85,91.05 13.35,90.9 14.7,90.9 L14.7,87.6 C13.35,87.6 11.85,87.6 10.5,87.75 C10.5,88.8 10.5,89.85 10.5,91.05 L10.5,91.05 Z" id="Shape"></path>
                    <path d="M21,90.75 L25.2,90.75 L25.2,87.45 L21,87.45 L21,90.75 L21,90.75 Z" id="Shape"></path>
                    <path d="M63,94.5 C64.35,94.8 65.7,94.95 67.2,95.25 L67.2,91.5 C65.85,91.2 64.5,91.05 63,90.75 L63,94.5 L63,94.5 Z" id="Shape"></path>
                    <path d="M42.15,91.8 C43.5,91.95 45,92.1 46.35,92.25 L46.35,88.8 C45,88.5 43.5,88.35 42.15,88.35 L42.15,91.8 L42.15,91.8 Z" id="Shape"></path>
                    <path d="M10.5,48.15 L14.7,48.15 L14.7,44.85 L10.5,44.85 C10.5,45.9 10.5,47.1 10.5,48.15 L10.5,48.15 Z" id="Shape"></path>
                    <path d="M19.95,44.85 L15.75,44.85 L15.75,48.15 L19.95,48.15 L19.95,44.85 L19.95,44.85 Z" id="Shape"></path>
                    <path d="M77.55,4.2 C76.2,4.5 74.85,4.8 73.5,5.1 L73.5,9 C74.85,8.7 76.2,8.4 77.55,8.1 L77.55,4.2 L77.55,4.2 Z" id="Shape"></path>
                    <path d="M67.2,6.45 C65.85,6.75 64.5,6.9 63,7.2 L63,10.8 C64.35,10.65 65.7,10.35 67.2,10.05 L67.2,6.45 L67.2,6.45 Z" id="Shape"></path>
                    <path d="M25.2,10.8 L21,10.8 L21,14.1 L25.2,14.1 L25.2,10.8 L25.2,10.8 Z" id="Shape"></path>
                    <path d="M19.95,36.3 L15.75,36.3 L15.75,39.6 L19.95,39.6 L19.95,36.3 L19.95,36.3 Z" id="Shape"></path>
                    <path d="M5.25,39.6 L9.45,39.6 L9.45,36.15 C8.1,36.15 6.75,36.15 5.25,36 L5.25,39.6 L5.25,39.6 Z" id="Shape"></path>
                    <path d="M0,22.05 C1.35,22.2 2.85,22.2 4.2,22.2 L4.2,18.75 C2.85,18.75 1.35,18.6 0,18.45 L0,22.05 L0,22.05 Z" id="Shape"></path>
                    <path d="M10.5,22.5 C11.85,22.5 13.35,22.5 14.7,22.65 L14.7,19.35 C13.35,19.35 11.85,19.35 10.5,19.2 C10.5,20.25 10.5,21.45 10.5,22.5 L10.5,22.5 Z" id="Shape"></path>
                    <path d="M5.25,22.35 C6.6,22.35 7.95,22.5 9.45,22.5 L9.45,19.05 C8.1,19.05 6.75,18.9 5.25,18.9 L5.25,22.35 L5.25,22.35 Z" id="Shape"></path>
                    <path d="M5.25,26.7 C6.6,26.7 7.95,26.85 9.45,26.85 L9.45,23.4 C8.1,23.4 6.75,23.25 5.25,23.25 L5.25,26.7 L5.25,26.7 Z" id="Shape"></path>
                    <path d="M5.25,78.3 C6.6,78.3 7.95,78.15 9.45,78.15 L9.45,74.7 C8.1,74.7 6.75,74.85 5.25,74.85 L5.25,78.3 L5.25,78.3 Z" id="Shape"></path>
                    <path d="M10.5,78.15 C11.85,78.15 13.35,78.15 14.7,78 L14.7,74.7 C13.35,74.7 11.85,74.7 10.5,74.85 C10.5,75.9 10.5,77.1 10.5,78.15 L10.5,78.15 Z" id="Shape"></path>
                    <path d="M5.25,61.05 L9.45,61.05 L9.45,57.6 L5.25,57.6 L5.25,61.05 L5.25,61.05 Z" id="Shape"></path>
                    <path d="M10.5,61.05 L14.7,61.05 L14.7,57.75 L10.5,57.75 C10.5,58.8 10.5,60 10.5,61.05 L10.5,61.05 Z" id="Shape"></path>
                    <path d="M0,61.2 C1.35,61.2 2.85,61.2 4.2,61.05 L4.2,57.6 L0,57.6 L0,61.2 L0,61.2 Z" id="Shape"></path>
                    <path d="M10.5,43.95 L14.7,43.95 L14.7,40.65 L10.5,40.65 C10.5,41.7 10.5,42.75 10.5,43.95 L10.5,43.95 Z" id="Shape"></path>
                    <path d="M5.25,74.1 C6.6,74.1 7.95,73.95 9.45,73.95 L9.45,70.5 C8.1,70.5 6.75,70.5 5.25,70.65 L5.25,74.1 L5.25,74.1 Z" id="Shape"></path>
                    <path d="M5.25,43.95 L9.45,43.95 L9.45,40.5 L5.25,40.5 L5.25,43.95 L5.25,43.95 Z" id="Shape"></path>
                    <path d="M0,43.8 L4.2,43.8 L4.2,40.35 C2.85,40.35 1.35,40.35 0,40.2 L0,43.8 L0,43.8 Z" id="Shape"></path>
                    <path d="M0,82.95 C1.35,82.8 2.85,82.8 4.2,82.65 L4.2,79.2 C2.85,79.35 1.35,79.5 0,79.5 L0,82.95 L0,82.95 Z" id="Shape"></path>
                    <path d="M10.5,82.5 C11.85,82.5 13.35,82.35 14.7,82.35 L14.7,79.05 C13.35,79.05 11.85,79.05 10.5,79.2 C10.5,80.25 10.5,81.3 10.5,82.5 L10.5,82.5 Z" id="Shape"></path>
                    <path d="M5.25,65.4 C6.6,65.4 7.95,65.4 9.45,65.25 L9.45,61.8 L5.25,61.8 L5.25,65.4 L5.25,65.4 Z" id="Shape"></path>
                    <path d="M19.95,61.95 L15.75,61.95 L15.75,65.25 L19.95,65.25 L19.95,61.95 L19.95,61.95 Z" id="Shape"></path>
                    <path d="M0,65.55 C1.35,65.55 2.85,65.4 4.2,65.4 L4.2,61.95 C2.85,61.95 1.35,61.95 0,62.1 L0,65.55 L0,65.55 Z" id="Shape"></path>
                    <path d="M19.95,66.15 L15.75,66.15 L15.75,69.45 L19.95,69.45 L19.95,66.15 L19.95,66.15 Z" id="Shape"></path>
                    <path d="M5.25,69.75 C6.6,69.75 7.95,69.75 9.45,69.6 L9.45,66.15 C8.1,66.15 6.75,66.15 5.25,66.3 L5.25,69.75 L5.25,69.75 Z" id="Shape"></path>
                    <path d="M10.5,69.6 L14.7,69.6 L14.7,66.3 L10.5,66.3 C10.5,67.35 10.5,68.55 10.5,69.6 L10.5,69.6 Z" id="Shape"></path>
                    <path d="M36.9,96.15 C38.25,96.3 39.75,96.3 41.1,96.45 L41.1,92.55 C39.75,92.4 38.25,92.25 36.9,92.25 L36.9,96.15 L36.9,96.15 Z" id="Shape"></path>
                    <path d="M19.95,6.15 L15.75,6.15 L15.75,9.9 L19.95,9.9 L19.95,6.15 L19.95,6.15 Z" id="Shape"></path>
                    <path d="M68.25,100.65 C69.6,100.95 70.95,101.25 72.3,101.55 L72.3,97.2 C70.95,96.9 69.6,96.6 68.25,96.3 L68.25,100.65 L68.25,100.65 Z" id="Shape"></path>
                    <path d="M25.2,6 L21,6 L21,9.75 L25.2,9.75 L25.2,6 L25.2,6 Z" id="Shape"></path>
                    <path d="M31.65,95.7 C33,95.7 34.5,95.85 35.85,96 L35.85,92.1 C34.5,91.95 33,91.95 31.65,91.8 L31.65,95.7 L31.65,95.7 Z" id="Shape"></path>
                    <path d="M26.4,95.55 C27.75,95.55 29.25,95.7 30.6,95.7 L30.6,91.8 C29.25,91.8 27.75,91.65 26.4,91.65 L26.4,95.55 L26.4,95.55 Z" id="Shape"></path>
                    <path d="M63,99.6 C64.35,99.9 65.7,100.2 67.2,100.5 L67.2,96.3 C65.85,96 64.5,95.7 63,95.55 L63,99.6 L63,99.6 Z" id="Shape"></path>
                    <path d="M35.85,5.55 C34.5,5.7 33,5.7 31.65,5.85 L31.65,9.75 C33,9.75 34.5,9.6 35.85,9.45 C35.85,8.1 35.85,6.9 35.85,5.55 L35.85,5.55 Z" id="Shape"></path>
                    <path d="M72.3,0 C70.95,0.3 69.6,0.6 68.25,0.9 L68.25,5.1 C69.6,4.8 70.95,4.5 72.3,4.2 L72.3,0 L72.3,0 Z" id="Shape"></path>
                    <path d="M67.2,1.2 C65.85,1.5 64.35,1.8 63,1.95 L63,6.15 C64.35,5.85 65.7,5.7 67.2,5.4 L67.2,1.2 L67.2,1.2 Z" id="Shape"></path>
                    <path d="M61.95,2.25 C60.6,2.55 59.25,2.7 57.9,3 L57.9,7.05 C59.25,6.9 60.6,6.6 61.95,6.45 L61.95,2.25 L61.95,2.25 Z" id="Shape"></path>
                    <path d="M51.6,3.9 C50.25,4.05 48.75,4.35 47.4,4.5 L47.4,8.4 C48.75,8.25 50.25,8.1 51.6,7.95 L51.6,3.9 L51.6,3.9 Z" id="Shape"></path>
                    <path d="M0,35.1 C1.35,35.1 2.85,35.25 4.2,35.25 L4.2,31.8 C2.85,31.8 1.35,31.65 0,31.65 L0,35.1 L0,35.1 Z" id="Shape"></path>
                    <path d="M46.35,4.65 C45,4.8 43.5,4.95 42.15,5.1 L42.15,9 C43.5,8.85 45,8.7 46.35,8.55 L46.35,4.65 L46.35,4.65 Z" id="Shape"></path>
                    <path d="M41.1,5.1 C39.75,5.25 38.25,5.4 36.9,5.4 L36.9,9.3 C38.25,9.15 39.75,9.15 41.1,9 L41.1,5.1 L41.1,5.1 Z" id="Shape"></path>
                    <path d="M19.95,32.1 L15.75,32.1 L15.75,35.4 L19.95,35.4 L19.95,32.1 L19.95,32.1 Z" id="Shape"></path>
                    <path d="M10.5,35.4 L14.7,35.4 L14.7,32.1 L10.5,32.1 C10.5,33.15 10.5,34.2 10.5,35.4 L10.5,35.4 Z" id="Shape"></path>
                    <path d="M21,95.55 L25.2,95.55 L25.2,91.8 L21,91.8 L21,95.55 L21,95.55 Z" id="Shape"></path>
                    <path d="M5.25,52.5 L9.45,52.5 L9.45,49.05 L5.25,49.05 L5.25,52.5 L5.25,52.5 Z" id="Shape"></path>
                    <path d="M19.95,49.05 L15.75,49.05 L15.75,52.5 L19.95,52.5 L19.95,49.05 L19.95,49.05 Z" id="Shape"></path>
                    <path d="M47.4,97.05 C48.75,97.2 50.25,97.35 51.6,97.65 L51.6,93.6 C50.25,93.45 48.75,93.3 47.4,93.15 C47.4,94.5 47.4,95.85 47.4,97.05 L47.4,97.05 Z" id="Shape"></path>
                    <path d="M52.65,97.8 C54,97.95 55.5,98.25 56.85,98.4 L56.85,94.35 C55.5,94.2 54.15,93.9 52.65,93.75 L52.65,97.8 L52.65,97.8 Z" id="Shape"></path>
                    <path d="M82.65,69.15 L82.65,68.1 C82.65,66.6 82.5,65.25 82.2,64.05 C82.05,63.75 82.05,63.3 81.9,63 C81.75,62.25 81.45,61.65 81.3,61.05 C81,60.3 80.55,59.55 80.25,58.95 C79.95,58.5 79.65,58.05 79.65,58.05 L77.55,57.9 C77.55,57.9 74.85,57.75 73.5,57.75 L73.5,53.85 L73.5,53.1 C73.5,53.1 72.9,52.8 71.85,52.35 C70.65,51.9 69.45,51.6 68.25,51.3 C67.95,51.15 67.5,51.15 67.2,51.15 C66.45,51 65.85,50.85 65.1,50.85 L65.1,48.9 L65.1,47.85 L65.1,47.85 C65.7,47.7 66.45,47.4 67.2,47.1 C67.5,46.95 67.95,46.8 68.25,46.65 C68.7,46.5 69.3,46.2 69.9,46.05 C70.8,45.75 71.55,45.3 72.45,44.85 C72.75,44.7 73.2,44.4 73.5,44.1 L73.5,43.95 L73.8,43.95 C74.1,43.65 74.55,43.35 74.85,43.05 C75,42.9 75,42.9 75.15,42.75 C76.05,41.85 76.95,40.95 77.7,39.9 C78.15,39.3 78.45,38.7 78.75,37.95 C78.75,37.8 78.9,37.8 78.9,37.65 C79.5,36.45 79.8,35.1 80.1,33.6 C80.1,33.3 80.25,32.85 80.25,32.55 C80.25,31.8 80.4,31.05 80.4,30.3 L80.4,28.65 C80.4,28.35 80.4,27.9 80.25,27.6 C80.1,26.25 79.8,24.9 79.35,23.7 L79.35,23.55 C79.2,23.25 79.05,22.95 79.05,22.65 L78.75,22.65 L78.75,22.2 C78.45,21.6 78.15,21.15 77.7,20.55 C77.25,20.1 76.8,19.5 76.35,19.05 C76.2,18.9 76.05,18.75 75.9,18.6 C75.75,18.45 75.45,18.3 75.3,18.15 C74.85,17.85 74.25,17.55 73.8,17.4 C73.5,17.25 73.05,17.1 72.75,16.95 C71.7,16.65 70.65,16.35 69.3,16.2 C69,16.2 68.85,16.2 68.55,16.05 L67.5,16.05 L66.6,16.05 L65.55,16.05 C64.5,16.35 63.75,16.5 63,16.5 C62.7,16.5 62.25,16.5 61.95,16.65 L61.95,15.75 C60.6,15.9 59.25,16.05 57.9,16.35 L57.9,12.75 C59.25,12.6 60.6,12.3 61.95,12.15 L61.95,12.15 L61.95,11.25 L61.95,7.65 C60.6,7.95 59.25,8.1 57.9,8.25 C57.6,8.25 57.15,8.4 56.85,8.4 C55.5,8.55 54.15,8.85 52.65,9 C52.35,9 51.9,9.15 51.6,9.15 C50.25,9.3 48.75,9.45 47.4,9.6 L47.4,13.05 L47.4,13.95 L47.4,17.4 L47.4,18.3 C47.1,18.3 46.65,18.3 46.35,18.45 C45,18.6 39.45,18.75 38.25,18.75 L38.25,15.15 C38.85,15.15 40.8,15.15 42.15,15 L42.15,14.4 L42.15,13.5 L42.15,10.05 C41.85,10.05 41.4,10.05 41.1,10.2 C39.75,10.35 38.25,10.35 36.9,10.5 L35.85,10.5 L31.65,10.5 L30.6,10.5 C29.25,10.5 27.75,10.65 26.4,10.65 L26.4,13.95 L26.4,14.85 L26.4,18.15 L26.4,19.05 L25.35,19.05 L24.75,19.05 L21.15,19.05 L20.1,19.05 L15.9,19.05 L15.9,22.35 L15.9,23.25 C17.25,23.25 18.75,23.4 20.1,23.4 L20.1,26.7 C18.75,26.7 17.25,26.7 15.9,26.55 L15.9,27.45 L15.9,30.75 L20.1,30.75 L21.15,30.75 L21.15,31.65 L21.15,34.95 L21.15,35.85 L21.15,39.15 L21.15,40.05 L21.15,43.35 L21.15,44.25 L25.2,44.25 L25.2,47.55 L21.15,47.55 L21.15,47.55 L21.15,48.45 L21.15,51.9 L21.15,52.8 L21.15,52.8 L25.2,52.8 L25.2,56.1 L21.15,56.1 L21.15,57 L21.15,60.3 L21.15,61.2 L21.15,64.5 L21.15,65.4 L21.15,68.7 L21.15,69.6 L20.1,69.6 L15.9,69.6 L15.9,72.9 L15.9,73.8 L15.9,77.1 L15.9,78 C15.9,78 15.9,78 15.9,78.15 C17.25,78.15 18.6,78.15 19.95,78 L19.95,81.3 L20.1,81.3 L21.15,81.3 L24.75,81.3 L25.35,81.3 L26.4,81.3 L26.4,82.2 L26.4,85.5 L26.4,86.4 L26.4,89.7 C27.75,89.7 29.25,89.85 30.6,89.85 L31.65,89.85 C33,89.85 34.5,90 35.85,90 L36.9,90 L37.05,90 L37.05,86.7 C38.4,86.85 39.75,87 41.1,87 L41.1,86.85 L41.1,85.95 L41.1,82.5 L41.1,81.6 L42.15,81.6 C43.5,81.75 45,81.75 46.35,81.9 C46.65,81.9 47.1,81.9 47.4,82.05 L47.4,82.95 L47.4,86.4 L47.4,87.3 L47.4,90.75 C48.75,90.9 50.25,91.05 51.6,91.2 C51.9,91.2 52.35,91.35 52.65,91.35 C54,91.5 55.5,91.65 56.85,91.95 C57.15,91.95 57.6,92.1 57.9,92.1 C59.25,92.25 60.6,92.55 61.95,92.7 L61.95,89.1 L61.95,88.2 L61.95,84.6 L61.95,83.7 C62.25,83.7 62.7,83.7 63,83.85 C64.5,84 65.85,84 67.2,84 L68.25,84 C68.7,84 69.15,84 69.75,83.85 C70.65,83.7 71.55,83.55 72.45,83.25 C72.75,83.1 73.2,83.1 73.5,82.95 C74.4,82.65 75.15,82.35 75.9,81.9 C76.35,81.6 76.8,81.45 77.25,81.15 L77.25,81.15 C77.4,81 77.4,81 77.55,80.85 C77.85,80.55 78.3,80.25 78.6,79.95 C79.35,79.2 79.95,78.45 80.4,77.7 C80.55,77.4 80.7,77.1 81,76.65 C81.15,76.35 81.3,76.05 81.45,75.75 C81.75,74.85 82.05,73.95 82.2,72.9 C82.2,72.6 82.35,72.15 82.35,71.85 C82.5,70.65 82.65,69.3 82.65,67.95 C82.65,69.3 82.65,69.3 82.65,69.15 C82.65,69.3 82.65,69.15 82.65,69.15 L82.65,69.15 Z M73.5,23.85 C74.85,23.7 76.2,23.4 77.55,23.25 L77.55,27.3 C76.2,27.45 74.85,27.6 73.5,27.75 L73.5,23.85 L73.5,23.85 Z M73.5,33.9 C74.85,33.75 76.2,33.6 77.55,33.6 L77.55,37.65 C76.2,37.8 74.85,37.8 73.5,37.95 L73.5,33.9 L73.5,33.9 Z M31.65,23.25 C33,23.25 34.5,23.1 35.85,23.1 L35.85,26.55 C34.5,26.55 33,26.7 31.65,26.7 L31.65,23.25 L31.65,23.25 Z M34.2,36.3 L34.2,39.6 L30,39.6 L30,36.3 L34.2,36.3 L34.2,36.3 Z M26.4,23.4 C27.75,23.4 29.1,23.25 30.6,23.25 L30.6,26.7 C29.25,26.7 27.9,26.85 26.4,26.85 L26.4,23.4 L26.4,23.4 Z M24.15,35.4 L24.15,32.1 L28.35,32.1 L28.35,35.4 L24.15,35.4 L24.15,35.4 Z M25.35,78 C24,78 22.5,78 21.15,78.15 L21.15,74.7 C22.5,74.7 24,74.7 25.35,74.55 L25.35,78 L25.35,78 Z M29.55,69.45 L25.35,69.45 L25.35,66.15 L29.55,66.15 L29.55,69.45 L29.55,69.45 Z M29.55,65.25 L25.35,65.25 L25.35,61.95 L29.55,61.95 L29.55,65.25 L29.55,65.25 Z M29.55,52.5 L29.55,49.05 L33.75,49.05 L33.75,52.5 L29.55,52.5 L29.55,52.5 Z M35.85,86.55 L31.65,86.55 L31.65,83.25 L35.85,83.25 L35.85,86.55 L35.85,86.55 Z M39.3,44.7 L39.3,43.8 L39.3,40.35 L39.3,39.45 L39.3,36 L39.3,35.1 L39.3,31.65 L39.3,30.75 L39.3,29.1 L40.95,29.1 L42,29.1 C43.35,29.1 44.85,28.95 46.2,28.95 L47.25,28.95 L48.45,28.95 C49.5,28.95 50.55,28.8 51.45,28.8 L52.5,28.8 L54.3,28.8 C55.2,28.8 55.95,28.95 56.7,29.1 C57.15,29.25 57.45,29.4 57.75,29.55 C57.9,29.55 57.9,29.7 58.05,29.7 C58.2,29.85 58.35,29.85 58.5,30 C58.95,30.3 59.25,30.6 59.4,30.9 C59.55,31.2 59.85,31.5 60,31.8 C60.3,32.55 60.45,33.3 60.45,34.35 L60.45,35.25 L60.45,35.25 C60.45,36.6 60.3,37.8 59.85,38.85 C59.7,39.15 59.55,39.6 59.4,39.9 C59.4,39.9 59.4,40.05 59.25,40.05 C58.8,40.8 58.35,41.4 57.6,42 C57.3,42.3 56.85,42.6 56.55,42.9 C56.4,43.05 56.25,43.05 56.25,43.2 C55.95,43.35 55.65,43.5 55.35,43.65 C54.3,44.1 53.1,44.55 51.75,44.7 L51.45,44.7 C51.15,44.7 51,44.7 50.7,44.85 C49.65,45 48.45,45 47.4,45.15 L46.35,45.15 C45.75,45.15 45.15,45.15 44.55,45.3 C43.8,45.3 42.9,45.3 42.15,45.45 L41.1,45.45 L39.45,45.45 C39.3,45.15 39.3,45 39.3,44.7 L39.3,44.7 Z M46.5,78.6 C45.15,78.45 43.65,78.45 42.3,78.45 L42.3,75 C43.65,75 45.15,75.15 46.5,75.15 L46.5,78.6 L46.5,78.6 Z M57,79.35 C55.65,79.2 54.15,79.05 52.8,79.05 L52.8,75.6 C54.15,75.75 55.65,75.75 57,75.9 L57,79.35 L57,79.35 Z M61.95,70.2 C61.8,70.5 61.5,70.8 61.2,71.1 C60.9,71.4 60.45,71.7 59.85,72 L59.7,72.15 C59.1,72.45 58.5,72.6 57.75,72.75 C57.45,72.75 57,72.9 56.7,72.9 C55.5,73.05 54.15,73.2 52.5,73.2 L51.45,73.2 C50.7,73.2 49.8,73.2 48.9,73.05 C48.3,73.05 47.85,73.05 47.25,72.9 L46.2,72.9 C45.15,72.9 44.1,72.75 43.05,72.75 L42,72.75 L40.95,72.75 L39.3,72.75 L39.3,70.95 L39.3,70.05 L39.3,66.6 L39.3,65.7 L39.3,62.25 L39.3,61.35 L39.3,57.9 L39.3,57 L39.3,56.55 L40.95,56.55 L42,56.55 L43.65,56.55 L46.2,56.55 L47.25,56.55 C48.75,56.55 50.25,56.7 51.45,56.85 C51.9,56.85 52.2,56.85 52.5,57 L52.8,57 C53.4,57 53.85,57.15 54.45,57.3 C55.8,57.6 57,57.9 58.05,58.35 C58.2,58.35 58.2,58.35 58.35,58.5 C59.25,58.95 60.15,59.55 60.75,60.15 C61.05,60.45 61.35,60.9 61.65,61.35 C61.65,61.5 61.8,61.5 61.8,61.65 C62.4,62.85 62.85,64.35 62.7,66.3 C63,67.65 62.55,69.15 61.95,70.2 L61.95,70.2 Z M77.55,73.2 C76.2,73.05 74.85,72.9 73.5,72.75 L73.5,68.85 C74.85,69 76.2,69.15 77.55,69.3 L77.55,73.2 L77.55,73.2 Z" id="Shape"></path>
                </g>
                <path d="M16.6,137.4 C18.7,136.5 20.3,134.9 20.3,132.1 L20.3,132 C20.3,130.4 19.7,129.1 18.8,128.2 C17.4,126.8 15.3,126.1 12.3,126.1 L0,126.1 L0,149.9 L12.3,149.9 C18,149.9 21.3,147.4 21.3,143.3 L21.3,143.2 C21.3,139.9 19.4,138.3 16.6,137.4 L16.6,137.4 Z M6.4,131.3 L10.7,131.3 C12.7,131.3 13.7,132 13.7,133.3 L13.7,133.4 C13.7,134.8 12.6,135.5 10.6,135.5 L6.5,135.5 L6.5,131.3 L6.4,131.3 Z M14.7,142.3 C14.7,143.7 13.5,144.5 11.5,144.5 L6.4,144.5 L6.4,140.1 L11.4,140.1 C13.7,140.1 14.7,141 14.7,142.3 L14.7,142.3 L14.7,142.3 Z" id="Shape"></path>
                <polygon id="Shape" points="30.8 126 24.2 126 24.2 149.8 42.3 149.8 42.3 144 30.8 144"></polygon>
                <path d="M55.8,125.5 C48.5,125.5 43,131 43,137.9 L43,138 C43,144.8 48.4,150.3 55.8,150.3 C63.2,150.3 68.6,144.8 68.6,137.9 L68.6,137.8 C68.6,131 63.1,125.5 55.8,125.5 L55.8,125.5 Z M61.8,138 C61.8,141.4 59.4,144.4 55.7,144.4 C52.1,144.4 49.6,141.4 49.6,138 L49.6,137.9 C49.6,134.5 52,131.5 55.6,131.5 C59.3,131.5 61.8,134.5 61.8,138 L61.8,138 L61.8,138 L61.8,138 Z" id="Shape"></path>
                <path d="M83.7,144.2 C80.4,144.2 78,141.4 78,137.8 L78,137.7 C78,134.2 80.4,131.4 83.7,131.4 C86,131.4 87.5,132.5 88.9,134.2 L93.9,130.4 C91.8,127.5 88.7,125.4 83.8,125.4 C76.6,125.4 71.3,130.8 71.3,137.8 L71.3,138 C71.3,145.1 76.8,150.3 83.6,150.3 C88.9,150.3 91.9,148 94.1,144.9 L89.1,141.4 C87.6,143.1 86.1,144.2 83.7,144.2" id="Shape"></path>
                <path d="M131.4,144.2 C128.1,144.2 125.7,141.4 125.7,137.8 L125.7,137.7 C125.7,134.2 128.1,131.4 131.4,131.4 C133.7,131.4 135.2,132.5 136.6,134.2 L141.6,130.4 C139.5,127.5 136.4,125.4 131.5,125.4 C124.3,125.4 119,130.8 119,137.8 L119,138 C119,139.1 119.2,140.1 119.4,141 L119.4,141 C120.7,146.5 125.5,150.3 131.3,150.3 C136.6,150.3 139.6,148 141.8,144.9 L136.8,141.4 C135.3,143.1 133.9,144.2 131.4,144.2" id="Shape"></path>
                <polygon id="Shape" points="159.6 134.9 151.1 134.9 151.1 126 144.5 126 144.5 149.8 151.1 149.8 151.1 140.7 159.6 140.7 159.6 149.8 166.2 149.8 166.2 126 159.6 126"></polygon>
                <path d="M185,125.8 L178.6,125.8 L168.5,149.7 L175.4,149.7 L177.1,145.4 L186.3,145.4 L188,149.7 L195.1,149.7 L185,125.8 L185,125.8 Z M179.1,140.4 L181.8,133.6 L184.5,140.4 L179.1,140.4 L179.1,140.4 Z" id="Shape"></path>
                <rect id="Rectangle-path" x="197.5" y="126" width="6.6" height="23.8"></rect>
                <polygon id="Shape" points="224.5 126 224.5 138.6 214.7 126 208.5 126 208.5 149.8 215 149.8 215 136.7 225.2 149.8 231 149.8 231 126"></polygon>
                <polygon id="Shape" points="119.4 126 118.2 126 116.2 126 113.7 126 111.6 126 111.6 126 111.6 126 103.4 135.6 103.4 126 96.8 126 96.8 149.8 103.4 149.8 103.4 143.6 105.8 141 111.8 149.8 111.8 149.8 111.8 149.8 118.4 149.8 109.4 137"></polygon>
                <g id="Group" transform="translate(179.000000, 159.000000)">
                    <polygon id="Shape" points="7.3 5.9 4.8 13.6 3.3 13.6 0.2 4 1.7 4 4 11.6 6.5 4 7.8 4 10.3 11.6 12.6 4 14.1 4 11 13.6 9.5 13.6"></polygon>
                    <path d="M22.4,12.5 C21.6,13.4 20.5,13.8 19.2,13.8 C17.6,13.8 15.9,12.7 15.9,10.6 C15.9,8.5 17.6,7.4 19.2,7.4 C20.5,7.4 21.6,7.8 22.4,8.7 L22.4,7 C22.4,5.7 21.4,5 20,5 C18.8,5 17.9,5.4 17.1,6.3 L16.4,5.3 C17.4,4.2 18.7,3.7 20.2,3.7 C22.2,3.7 23.9,4.6 23.9,6.9 L23.9,13.5 L22.4,13.5 L22.4,12.5 L22.4,12.5 Z M22.4,9.7 C21.8,8.9 20.8,8.5 19.8,8.5 C18.4,8.5 17.4,9.4 17.4,10.6 C17.4,11.8 18.4,12.7 19.8,12.7 C20.9,12.7 21.9,12.3 22.4,11.5 L22.4,9.7 L22.4,9.7 Z" id="Shape"></path>
                    <polygon id="Shape" points="27.2 0.3 28.7 0.3 28.7 13.5 27.2 13.5"></polygon>
                    <polygon id="Shape" points="32 0.3 33.5 0.3 33.5 13.5 32 13.5"></polygon>
                    <path d="M40.9,3.8 C43.8,3.8 45.5,6.1 45.5,8.9 L45.5,9.3 L37.7,9.3 C37.8,11.1 39.1,12.6 41.1,12.6 C42.2,12.6 43.3,12.2 44.1,11.4 L44.8,12.4 C43.8,13.4 42.6,13.9 41,13.9 C38.2,13.9 36.1,11.9 36.1,8.9 C36.2,6 38.2,3.8 40.9,3.8 L40.9,3.8 Z M37.8,8.2 L44.1,8.2 C44.1,6.8 43.1,5 40.9,5 C38.9,5 37.9,6.7 37.8,8.2 L37.8,8.2 Z" id="Shape"></path>
                    <path d="M48.6,11.6 L48.6,5.3 L47,5.3 L47,4 L48.6,4 L48.6,1.4 L50.1,1.4 L50.1,4 L52,4 L52,5.3 L50,5.3 L50,11.2 C50,11.9 50.3,12.4 51,12.4 C51.4,12.4 51.8,12.2 52,12 L52.4,13.1 C52,13.5 51.5,13.7 50.6,13.7 C49.3,13.8 48.6,13 48.6,11.6 L48.6,11.6 Z" id="Shape"></path>
                </g>
            </g>
        </g>
    </g>
</svg>