<?xml version="1.0" encoding="UTF-8"?>
<svg width="60px" height="60px" viewBox="0 0 60 60" version="1.1" xmlns="http://www.w3.org/2000/svg" xmlns:xlink="http://www.w3.org/1999/xlink">
    <!-- Generator: Sketch 46.1 (44463) - http://www.bohemiancoding.com/sketch -->
    <title>Slice</title>
    <desc>Created with Sketch.</desc>
    <defs></defs>
    <g id="Page-1" stroke="none" stroke-width="1" fill="none" fill-rule="evenodd">
        <path d="M12.9105181,53.6438773 C12.9060182,51.6714636 11.3460685,50.1474611 9.34363308,50.1578893 C7.41769517,50.1683175 5.84124599,51.7519095 5.85474555,53.6706926 C5.86674517,55.5790475 7.45669391,57.165619 9.37213216,57.1775369 C11.3190694,57.1909446 12.9150179,55.5984141 12.9105181,53.6438773 L12.9105181,53.6438773 Z M40.0416434,50.1563996 C38.0887064,50.1504406 36.5032575,51.686361 36.486758,53.6006749 C36.4687586,55.5686194 38.0332082,57.1641293 39.993645,57.1775369 C41.9375823,57.1909446 43.5620299,55.5835168 43.55903,53.6483465 C43.5545302,51.7295634 41.976581,50.1623585 40.0416434,50.1563996 L40.0416434,50.1563996 Z M2.36735798,10.4131571 C2.42135624,10.612782 2.44685542,10.7408995 2.49185397,10.8630581 C4.90977602,17.4566405 7.32169826,24.0532024 9.75311988,30.6423155 C10.5165953,32.7160315 12.0720451,33.74991 14.3624713,33.74991 C22.4097118,33.7558689 30.4569524,33.74991 38.504193,33.7633176 C38.9841775,33.7633176 39.1806712,33.6352001 39.3156668,33.1569941 C40.9776132,27.3142398 42.6710587,21.4789343 44.3525044,15.642139 C44.8489884,13.9140424 45.3379727,12.1829663 45.8434564,10.4131571 L2.36735798,10.4131571 Z M38.9556784,47.8085718 L10.5825931,47.8085718 C12.2160405,48.3210418 13.5869963,49.1955183 14.4674679,50.7016438 C15.364439,52.2360744 15.5264338,53.8643586 14.9654518,55.5432938 C14.1344786,58.0281776 11.640059,59.6728488 9.04664265,59.4806726 C6.23123342,59.2721092 4.09230237,57.4054669 3.59131852,54.6211457 C3.31082756,53.0628793 3.65581644,51.5954869 4.58278656,50.2860068 C5.48875735,49.0063215 6.75921639,48.2599625 8.24866838,47.7921846 L3.5673193,47.7921846 L3.5673193,45.48309 L4.44779091,45.48309 C17.0113859,45.48309 29.5764808,45.4845798 42.1400758,45.4771311 C42.6020609,45.4756413 43.0880452,45.4532953 43.5170314,45.3087906 C45.0769811,44.782913 45.5509658,42.8224172 44.4305019,41.5591189 C42.9005513,39.8369813 41.3556011,38.1282513 39.7851517,36.4433571 C39.5961578,36.2407527 39.2151701,36.1260428 38.9226795,36.1245531 C30.7389433,36.1081659 22.5567071,36.1111454 14.3729709,36.1081659 C11.1075762,36.1081659 8.62965609,34.387518 7.50469236,31.329085 C5.07177079,24.7146462 2.64784894,18.0987178 0.223927081,11.4812995 C-0.494549757,9.51931399 0.567416007,8.02510632 2.67184816,8.02510632 C17.0368851,8.02361658 31.401922,8.0206371 45.7669588,8.0400037 C46.3654396,8.04149344 46.6279311,7.88507091 46.7629267,7.30705238 C46.9894194,6.34468134 47.2864099,5.39720769 47.5669008,4.44824429 C48.1923807,2.33877464 49.950324,1.01588689 52.1612527,1.00545872 C54.5851746,0.995030551 57.0090964,1.00247924 59.4330183,1.00396898 C59.6085126,1.00396898 59.782507,1.0203561 60,1.03227401 L60,3.36818391 L59.2695235,3.36818391 C56.9565981,3.36818391 54.6436727,3.36520443 52.3322472,3.36818391 C50.9222927,3.37116339 50.1828165,3.90002054 49.7973289,5.23035698 C47.0104188,14.8749237 44.2295084,24.5209802 41.4680974,34.1729957 C41.4005996,34.4083744 41.4980965,34.7912371 41.6630912,34.9789442 C43.127044,36.6400026 44.6284956,38.2682867 46.1089478,39.9159374 C47.3284085,41.2745789 47.7318955,42.8373145 47.1484143,44.5803085 C46.5784327,46.2860591 45.3829712,47.3869758 43.5965288,47.7042901 C42.8015544,47.8443255 41.9600816,47.7266361 41.1171088,47.7996333 C42.723557,48.2808189 44.0765133,49.0822981 44.9764843,50.5094676 C45.8809552,51.9470652 46.1284472,53.4963932 45.700961,55.1395747 C45.0244828,57.7570452 42.5825615,59.5834645 39.8946482,59.4970597 C37.109238,59.4076754 34.7708133,57.484423 34.2428304,54.8446065 C33.6188505,51.7250942 35.1203021,49.4666507 38.9556784,47.8085718 L38.9556784,47.8085718 Z" id="cart" fill="#4C4C4C"></path>
    </g>
</svg>