<?xml version="1.0" encoding="UTF-8" standalone="no"?>
<!DOCTYPE svg PUBLIC "-//W3C//DTD SVG 1.1//EN" "http://www.w3.org/Graphics/SVG/1.1/DTD/svg11.dtd">
<svg width="100%" height="100%" viewBox="0 0 606 150" version="1.1" xmlns="http://www.w3.org/2000/svg" xmlns:xlink="http://www.w3.org/1999/xlink" xml:space="preserve" style="fill-rule:evenodd;clip-rule:evenodd;stroke-linejoin:round;stroke-miterlimit:1.41421;">
    <g transform="matrix(2.00031,0,0,2,0.578313,0)">
        <g transform="matrix(1,0,0,1,95.0692,0)">
            <path d="M98.822,0L13.707,0C6.167,0 0,6.001 0,13.338L0,61.66C0,68.996 6.167,75 13.707,75L98.822,75C106.359,75 112.526,68.996 112.526,61.66L112.526,13.338C112.526,6.001 106.359,0 98.822,0ZM31.108,47.992C30.417,47.644 30.012,47.03 29.648,46.378C28.971,45.169 28.452,43.898 28.211,42.523C28.13,42.068 28.074,41.608 28.016,41.148C28.002,41.022 27.963,40.965 27.831,40.946C27.574,40.909 27.321,40.827 27.064,40.799C26.783,40.768 26.6,40.613 26.454,40.39C26.118,39.884 25.967,39.306 25.858,38.715C25.773,38.239 25.701,37.758 25.814,37.275C25.886,36.965 26.03,36.707 26.301,36.529C26.48,36.414 26.637,36.266 26.818,36.156C26.973,36.064 26.992,35.961 26.95,35.792C26.697,34.72 26.426,33.65 26.213,32.571C25.828,30.621 25.631,28.651 25.74,26.661C25.824,25.113 26.111,23.609 26.792,22.203C27.604,20.528 28.876,19.337 30.542,18.569C31.884,17.955 31.864,18.044 33.324,17.912C34.225,17.83 35.076,17.844 35.975,17.927C36.65,17.988 37.315,18.095 37.961,18.309C38.835,18.598 38.084,18.621 38.513,19.48C38.606,19.667 38.831,19.625 39.025,19.658C39.836,19.796 40.56,20.054 41.304,20.439C42.353,20.981 43.083,21.816 43.566,22.888C43.99,23.832 44.189,24.833 44.289,25.859C44.453,27.534 44.298,29.19 44.045,30.842C43.788,32.522 43.346,34.152 42.817,35.762C42.759,35.935 42.789,36.031 42.94,36.123C43.097,36.219 43.23,36.353 43.387,36.444C43.876,36.733 44.055,37.19 44.045,37.723C44.029,38.558 43.872,39.365 43.508,40.121C43.436,40.266 43.352,40.419 43.237,40.524C43.114,40.639 42.954,40.731 42.794,40.778C42.525,40.857 42.245,40.907 41.966,40.946C41.83,40.965 41.8,41.029 41.786,41.153C41.651,42.396 41.429,43.616 40.951,44.78C40.62,45.589 40.237,46.373 39.758,47.107C39.505,47.497 39.15,47.757 38.77,47.989C38.655,48.06 38.61,48.142 38.613,48.28C38.62,49.794 38.606,51.307 38.624,52.818C38.634,53.503 38.657,54.192 38.763,54.866C38.824,55.243 39.037,55.61 39.229,55.954C39.894,57.146 40.891,58.007 42.022,58.723C43.494,59.652 45.1,60.285 46.697,60.937C48.447,61.651 50.213,62.319 51.877,63.223C53.277,63.983 54.575,64.877 55.622,66.106C56.473,67.108 57.05,67.697 57.391,68.748L16.796,68.748C15.44,68.748 14.156,68.459 12.986,67.957C13.663,66.566 14.664,65.447 15.892,64.527C17.431,63.373 19.156,62.573 20.92,61.843C22.507,61.189 24.102,60.548 25.678,59.865C26.892,59.34 28.044,58.697 29.064,57.834C29.977,57.059 30.689,56.133 31.087,54.988C31.182,54.716 31.173,54.399 31.18,54.101C31.217,52.724 31.245,51.349 31.268,49.972C31.28,49.416 31.266,48.86 31.27,48.304C31.273,48.161 31.242,48.06 31.108,47.992ZM105.617,59.471C105.617,64.574 101.327,68.748 96.087,68.748L61.474,68.748C60.844,66.47 59.637,64.546 57.849,62.979C56.61,61.895 55.226,61.027 53.74,60.344C52.236,59.654 50.706,59.023 49.181,58.383C47.758,57.784 46.312,57.242 44.993,56.419C44.372,56.032 43.791,55.593 43.348,54.997C43.141,54.723 42.907,54.451 42.898,54.075C42.868,52.592 42.838,51.107 42.81,49.625C42.81,49.561 42.831,49.479 42.87,49.432C43.519,48.724 43.994,47.898 44.414,47.042C44.986,45.871 45.429,44.651 45.693,43.368C45.714,43.271 45.791,43.161 45.872,43.11C46.453,42.755 46.912,42.277 47.241,41.683C47.99,40.325 48.31,38.861 48.224,37.31C48.185,36.552 47.932,35.862 47.51,35.241C47.413,35.098 47.387,34.983 47.434,34.816C47.89,33.207 48.215,31.569 48.4,29.903C48.56,28.467 48.618,27.034 48.479,25.591C48.326,23.989 47.958,22.45 47.165,21.037C46.595,20.017 45.837,19.165 44.877,18.501C43.964,17.87 42.956,17.474 41.878,17.237C41.816,17.223 41.749,17.183 41.707,17.134C40.998,16.28 40.089,15.731 39.067,15.353C37.906,14.926 36.698,14.752 35.468,14.71C35.294,14.703 35.118,14.682 34.944,14.665L34.605,14.665C34.48,14.682 34.357,14.705 34.232,14.708C32.814,14.752 31.416,14.942 30.042,15.311C28.389,15.754 26.864,16.463 25.536,17.563C23.791,19.013 22.695,20.885 22.088,23.069C21.738,24.329 21.578,25.617 21.524,26.926C21.469,28.292 21.536,29.652 21.733,30.999C21.921,32.301 22.197,33.587 22.428,34.882C22.442,34.955 22.424,35.051 22.382,35.109C21.765,35.951 21.515,36.906 21.552,37.939C21.585,38.833 21.752,39.708 22.046,40.552C22.417,41.62 22.98,42.544 23.977,43.138C24.037,43.175 24.092,43.262 24.109,43.335C24.317,44.341 24.637,45.31 25.057,46.249C25.564,47.389 26.144,48.484 26.987,49.416C27.034,49.467 27.066,49.557 27.066,49.625C27.036,51.114 27.003,52.604 26.957,54.094C26.952,54.26 26.881,54.439 26.797,54.587C26.345,55.394 25.641,55.938 24.878,56.414C23.787,57.097 22.6,57.587 21.415,58.078C19.809,58.744 18.192,59.384 16.606,60.098C14.685,60.959 12.891,62.04 11.371,63.537C10.731,64.168 10.184,64.86 9.709,65.604C8.209,63.962 7.266,61.829 7.266,59.471L7.266,15.526C7.266,10.426 11.556,6.25 16.796,6.25L96.087,6.25C101.327,6.25 105.617,10.426 105.617,15.526L105.617,59.471Z" style="fill:rgb(229,229,229);"/>
            <path d="M98.225,26.19L61.915,26.19C61.472,26.19 60.409,26.99 60.409,27.976C60.409,28.963 61.472,29.762 61.915,29.762L98.225,29.762C98.668,29.762 99.497,28.963 99.497,27.976C99.497,26.99 98.668,26.19 98.225,26.19M98.096,36.905L61.915,36.905C61.472,36.905 60.409,37.704 60.409,38.691C60.409,39.677 61.472,40.476 61.915,40.476L98.096,40.476C98.539,40.476 99.497,39.677 99.497,38.691C99.497,37.704 98.539,36.905 98.096,36.905M98.096,47.619L61.915,47.619C61.472,47.619 60.409,48.418 60.409,49.405C60.409,50.391 61.472,51.19 61.915,51.19L98.096,51.19C98.539,51.19 99.497,50.391 99.497,49.405C99.497,48.418 98.539,47.619 98.096,47.619" style="fill:rgb(229,229,229);"/>
        </g>
        <g transform="matrix(1,0,0,1,0,17)">
            <g opacity="0.6">
                <path d="M69.962,0L9.704,0C4.366,0 0,4.241 0,9.425L0,43.573C0,48.757 4.366,53 9.704,53L69.962,53C75.298,53 79.665,48.757 79.665,43.573L79.665,9.425C79.665,4.241 75.298,0 69.962,0ZM22.023,33.914C21.534,33.669 21.247,33.234 20.99,32.774C20.511,31.92 20.143,31.021 19.972,30.05C19.915,29.728 19.876,29.403 19.835,29.078C19.825,28.989 19.797,28.949 19.703,28.935C19.521,28.909 19.342,28.851 19.16,28.831C18.962,28.81 18.832,28.7 18.729,28.543C18.491,28.184 18.384,27.777 18.307,27.359C18.246,27.022 18.195,26.682 18.276,26.341C18.327,26.122 18.428,25.94 18.62,25.814C18.747,25.732 18.858,25.628 18.986,25.55C19.096,25.485 19.109,25.412 19.08,25.293C18.901,24.535 18.709,23.779 18.558,23.017C18.286,21.639 18.146,20.246 18.223,18.84C18.282,17.746 18.486,16.684 18.968,15.69C19.542,14.507 20.443,13.664 21.623,13.122C22.573,12.688 22.558,12.751 23.592,12.658C24.23,12.6 24.832,12.61 25.469,12.668C25.947,12.711 26.418,12.787 26.875,12.938C27.494,13.142 26.962,13.159 27.266,13.766C27.332,13.898 27.491,13.868 27.629,13.892C28.203,13.989 28.715,14.172 29.241,14.444C29.985,14.827 30.502,15.417 30.843,16.175C31.143,16.841 31.284,17.549 31.355,18.273C31.471,19.457 31.361,20.628 31.183,21.795C31,22.982 30.687,24.134 30.313,25.271C30.272,25.394 30.293,25.462 30.4,25.527C30.511,25.595 30.605,25.689 30.717,25.754C31.063,25.958 31.189,26.281 31.183,26.657C31.171,27.248 31.059,27.818 30.802,28.352C30.751,28.455 30.692,28.562 30.61,28.637C30.523,28.718 30.41,28.783 30.297,28.816C30.106,28.872 29.908,28.907 29.711,28.935C29.614,28.949 29.593,28.993 29.583,29.081C29.488,29.96 29.33,30.822 28.992,31.644C28.757,32.216 28.487,32.77 28.147,33.289C27.968,33.564 27.717,33.748 27.448,33.912C27.366,33.962 27.335,34.02 27.336,34.118C27.341,35.187 27.332,36.257 27.345,37.324C27.351,37.809 27.368,38.296 27.443,38.772C27.486,39.039 27.637,39.297 27.773,39.541C28.244,40.383 28.949,40.992 29.75,41.497C30.792,42.154 31.929,42.602 33.06,43.062C34.298,43.567 35.549,44.039 36.727,44.677C37.718,45.214 38.637,45.846 39.379,46.715C39.981,47.423 40.389,47.839 40.631,48.582L11.891,48.582C10.931,48.582 10.022,48.378 9.194,48.023C9.673,47.04 10.382,46.249 11.251,45.599C12.341,44.783 13.562,44.218 14.81,43.702C15.934,43.24 17.063,42.787 18.179,42.305C19.039,41.933 19.854,41.479 20.576,40.869C21.223,40.322 21.726,39.667 22.009,38.858C22.076,38.666 22.069,38.442 22.074,38.231C22.1,37.258 22.12,36.287 22.137,35.313C22.145,34.921 22.135,34.528 22.138,34.135C22.14,34.034 22.119,33.962 22.023,33.914ZM74.773,42.026C74.773,45.632 71.736,48.582 68.026,48.582L43.522,48.582C43.075,46.972 42.221,45.612 40.955,44.505C40.078,43.739 39.098,43.126 38.046,42.643C36.981,42.156 35.898,41.71 34.819,41.257C33.811,40.834 32.787,40.451 31.854,39.869C31.414,39.596 31.002,39.286 30.689,38.865C30.543,38.671 30.377,38.478 30.37,38.213C30.349,37.165 30.328,36.116 30.308,35.068C30.308,35.023 30.323,34.965 30.351,34.932C30.81,34.431 31.147,33.848 31.443,33.243C31.849,32.415 32.162,31.553 32.349,30.646C32.364,30.578 32.418,30.5 32.476,30.464C32.887,30.214 33.212,29.876 33.445,29.456C33.975,28.496 34.202,27.462 34.141,26.366C34.113,25.83 33.934,25.343 33.636,24.903C33.567,24.802 33.549,24.721 33.581,24.603C33.905,23.466 34.134,22.309 34.266,21.132C34.379,20.117 34.42,19.104 34.322,18.084C34.213,16.952 33.952,15.864 33.391,14.866C32.988,14.145 32.451,13.543 31.772,13.074C31.125,12.628 30.411,12.348 29.648,12.181C29.604,12.171 29.556,12.142 29.527,12.108C29.025,11.504 28.382,11.116 27.658,10.849C26.836,10.548 25.981,10.425 25.11,10.395C24.987,10.39 24.862,10.375 24.739,10.364L24.499,10.364C24.411,10.375 24.324,10.392 24.235,10.393C23.231,10.425 22.242,10.559 21.269,10.819C20.099,11.133 19.019,11.634 18.079,12.411C16.843,13.436 16.067,14.759 15.637,16.302C15.389,17.193 15.276,18.103 15.239,19.028C15.199,19.993 15.247,20.954 15.386,21.906C15.519,22.826 15.714,23.735 15.878,24.65C15.888,24.701 15.875,24.769 15.846,24.811C15.409,25.406 15.232,26.081 15.258,26.81C15.281,27.442 15.399,28.06 15.608,28.657C15.87,29.411 16.269,30.065 16.975,30.484C17.017,30.51 17.057,30.572 17.068,30.623C17.216,31.334 17.442,32.019 17.739,32.682C18.099,33.488 18.509,34.262 19.106,34.921C19.139,34.957 19.162,35.02 19.162,35.068C19.14,36.121 19.118,37.174 19.085,38.226C19.081,38.344 19.03,38.47 18.971,38.575C18.651,39.145 18.153,39.529 17.613,39.866C16.84,40.349 16,40.695 15.161,41.042C14.024,41.512 12.879,41.965 11.757,42.469C10.396,43.077 9.126,43.842 8.05,44.899C7.597,45.345 7.21,45.835 6.873,46.36C5.812,45.2 5.144,43.692 5.144,42.026L5.144,10.972C5.144,7.368 8.181,4.417 11.891,4.417L68.026,4.417C71.736,4.417 74.773,7.368 74.773,10.972L74.773,42.026Z" style="fill:rgb(229,229,229);"/>
                <path d="M69.54,18.508L43.834,18.508C43.52,18.508 42.767,19.073 42.767,19.77C42.767,20.467 43.52,21.032 43.834,21.032L69.54,21.032C69.854,21.032 70.44,20.467 70.44,19.77C70.44,19.073 69.854,18.508 69.54,18.508M69.449,26.079L43.834,26.079C43.52,26.079 42.767,26.644 42.767,27.341C42.767,28.038 43.52,28.603 43.834,28.603L69.449,28.603C69.762,28.603 70.44,28.038 70.44,27.341C70.44,26.644 69.762,26.079 69.449,26.079M69.449,33.651L43.834,33.651C43.52,33.651 42.767,34.216 42.767,34.913C42.767,35.61 43.52,36.175 43.834,36.175L69.449,36.175C69.762,36.175 70.44,35.61 70.44,34.913C70.44,34.216 69.762,33.651 69.449,33.651" style="fill:rgb(229,229,229);"/>
            </g>
        </g>
        <g transform="matrix(1,0,0,1,223,17)">
            <g opacity="0.6">
                <path d="M69.962,0L9.704,0C4.366,0 0,4.241 0,9.425L0,43.573C0,48.757 4.366,53 9.704,53L69.962,53C75.298,53 79.665,48.757 79.665,43.573L79.665,9.425C79.665,4.241 75.298,0 69.962,0ZM22.023,33.914C21.534,33.669 21.247,33.234 20.99,32.774C20.511,31.92 20.143,31.021 19.972,30.05C19.915,29.728 19.876,29.403 19.835,29.078C19.825,28.989 19.797,28.949 19.703,28.935C19.521,28.909 19.342,28.851 19.16,28.831C18.962,28.81 18.832,28.7 18.729,28.543C18.491,28.184 18.384,27.777 18.307,27.359C18.246,27.022 18.195,26.682 18.276,26.341C18.327,26.122 18.428,25.94 18.62,25.814C18.747,25.732 18.858,25.628 18.986,25.55C19.096,25.485 19.109,25.412 19.08,25.293C18.901,24.535 18.709,23.779 18.558,23.017C18.286,21.639 18.146,20.246 18.223,18.84C18.282,17.746 18.486,16.684 18.968,15.69C19.542,14.507 20.443,13.664 21.623,13.122C22.573,12.688 22.558,12.751 23.592,12.658C24.23,12.6 24.832,12.61 25.469,12.668C25.947,12.711 26.418,12.787 26.875,12.938C27.494,13.142 26.962,13.159 27.266,13.766C27.332,13.898 27.491,13.868 27.629,13.892C28.203,13.989 28.715,14.172 29.241,14.444C29.985,14.827 30.502,15.417 30.843,16.175C31.143,16.841 31.284,17.549 31.355,18.273C31.471,19.457 31.361,20.628 31.183,21.795C31,22.982 30.687,24.134 30.313,25.271C30.272,25.394 30.293,25.462 30.4,25.527C30.511,25.595 30.605,25.689 30.717,25.754C31.063,25.958 31.189,26.281 31.183,26.657C31.171,27.248 31.059,27.818 30.802,28.352C30.751,28.455 30.692,28.562 30.61,28.637C30.523,28.718 30.41,28.783 30.297,28.816C30.106,28.872 29.908,28.907 29.711,28.935C29.614,28.949 29.593,28.993 29.583,29.081C29.488,29.96 29.33,30.822 28.992,31.644C28.757,32.216 28.487,32.77 28.147,33.289C27.968,33.564 27.717,33.748 27.448,33.912C27.366,33.962 27.335,34.02 27.336,34.118C27.341,35.187 27.332,36.257 27.345,37.324C27.351,37.809 27.368,38.296 27.443,38.772C27.486,39.039 27.637,39.297 27.773,39.541C28.244,40.383 28.949,40.992 29.75,41.497C30.792,42.154 31.929,42.602 33.06,43.062C34.298,43.567 35.549,44.039 36.727,44.677C37.718,45.214 38.637,45.846 39.379,46.715C39.981,47.423 40.389,47.839 40.631,48.582L11.891,48.582C10.931,48.582 10.022,48.378 9.194,48.023C9.673,47.04 10.382,46.249 11.251,45.599C12.341,44.783 13.562,44.218 14.81,43.702C15.934,43.24 17.063,42.787 18.179,42.305C19.039,41.933 19.854,41.479 20.576,40.869C21.223,40.322 21.726,39.667 22.009,38.858C22.076,38.666 22.069,38.442 22.074,38.231C22.1,37.258 22.12,36.287 22.137,35.313C22.145,34.921 22.135,34.528 22.138,34.135C22.14,34.034 22.119,33.962 22.023,33.914ZM74.773,42.026C74.773,45.632 71.736,48.582 68.026,48.582L43.522,48.582C43.075,46.972 42.221,45.612 40.955,44.505C40.078,43.739 39.098,43.126 38.046,42.643C36.981,42.156 35.898,41.71 34.819,41.257C33.811,40.834 32.787,40.451 31.854,39.869C31.414,39.596 31.002,39.286 30.689,38.865C30.543,38.671 30.377,38.478 30.37,38.213C30.349,37.165 30.328,36.116 30.308,35.068C30.308,35.023 30.323,34.965 30.351,34.932C30.81,34.431 31.147,33.848 31.443,33.243C31.849,32.415 32.162,31.553 32.349,30.646C32.364,30.578 32.418,30.5 32.476,30.464C32.887,30.214 33.212,29.876 33.445,29.456C33.975,28.496 34.202,27.462 34.141,26.366C34.113,25.83 33.934,25.343 33.636,24.903C33.567,24.802 33.549,24.721 33.581,24.603C33.905,23.466 34.134,22.309 34.266,21.132C34.379,20.117 34.42,19.104 34.322,18.084C34.213,16.952 33.952,15.864 33.391,14.866C32.988,14.145 32.451,13.543 31.772,13.074C31.125,12.628 30.411,12.348 29.648,12.181C29.604,12.171 29.556,12.142 29.527,12.108C29.025,11.504 28.382,11.116 27.658,10.849C26.836,10.548 25.981,10.425 25.11,10.395C24.987,10.39 24.862,10.375 24.739,10.364L24.499,10.364C24.411,10.375 24.324,10.392 24.235,10.393C23.231,10.425 22.242,10.559 21.269,10.819C20.099,11.133 19.019,11.634 18.079,12.411C16.843,13.436 16.067,14.759 15.637,16.302C15.389,17.193 15.276,18.103 15.239,19.028C15.199,19.993 15.247,20.954 15.386,21.906C15.519,22.826 15.714,23.735 15.878,24.65C15.888,24.701 15.875,24.769 15.846,24.811C15.409,25.406 15.232,26.081 15.258,26.81C15.281,27.442 15.399,28.06 15.608,28.657C15.87,29.411 16.269,30.065 16.975,30.484C17.017,30.51 17.057,30.572 17.068,30.623C17.216,31.334 17.442,32.019 17.739,32.682C18.099,33.488 18.509,34.262 19.106,34.921C19.139,34.957 19.162,35.02 19.162,35.068C19.14,36.121 19.118,37.174 19.085,38.226C19.081,38.344 19.03,38.47 18.971,38.575C18.651,39.145 18.153,39.529 17.613,39.866C16.84,40.349 16,40.695 15.161,41.042C14.024,41.512 12.879,41.965 11.757,42.469C10.396,43.077 9.126,43.842 8.05,44.899C7.597,45.345 7.21,45.835 6.873,46.36C5.812,45.2 5.144,43.692 5.144,42.026L5.144,10.972C5.144,7.368 8.181,4.417 11.891,4.417L68.026,4.417C71.736,4.417 74.773,7.368 74.773,10.972L74.773,42.026Z" style="fill:rgb(229,229,229);"/>
                <path d="M69.54,18.508L43.834,18.508C43.52,18.508 42.767,19.073 42.767,19.77C42.767,20.467 43.52,21.032 43.834,21.032L69.54,21.032C69.854,21.032 70.44,20.467 70.44,19.77C70.44,19.073 69.854,18.508 69.54,18.508M69.449,26.079L43.834,26.079C43.52,26.079 42.767,26.644 42.767,27.341C42.767,28.038 43.52,28.603 43.834,28.603L69.449,28.603C69.762,28.603 70.44,28.038 70.44,27.341C70.44,26.644 69.762,26.079 69.449,26.079M69.449,33.651L43.834,33.651C43.52,33.651 42.767,34.216 42.767,34.913C42.767,35.61 43.52,36.175 43.834,36.175L69.449,36.175C69.762,36.175 70.44,35.61 70.44,34.913C70.44,34.216 69.762,33.651 69.449,33.651" style="fill:rgb(229,229,229);"/>
            </g>
        </g>
    </g>
</svg>
