<?xml version="1.0" encoding="UTF-8"?>
<svg width="60px" height="60px" viewBox="0 0 60 60" version="1.1" xmlns="http://www.w3.org/2000/svg" xmlns:xlink="http://www.w3.org/1999/xlink">
    <!-- Generator: Sketch 46.1 (44463) - http://www.bohemiancoding.com/sketch -->
    <title>dashboard blue</title>
    <desc>Created with Sketch.</desc>
    <defs></defs>
    <g id="FINAL---v3---ETH-mobile---iOS" stroke="none" stroke-width="1" fill="none" fill-rule="evenodd">
        <g id="dashboard-blue">
            <g id="Group">
                <g id="dashboard-dark-copy-2" transform="translate(0.000000, 1.000000)" fill="#10ADE4">
                    <path d="M49.979024,52.5850014 C49.979024,53.6033802 49.1619552,54.4199045 48.1541368,54.4199045 L39.2835327,54.4199045 C38.2727104,54.4199045 37.4526377,53.5912386 37.4526377,52.5698243 L37.4526377,38.8543404 C37.4526377,38.4157242 37.1011779,38.0605817 36.668612,38.0605817 L23.2275291,38.0605817 C22.7949633,38.0605817 22.4450055,38.4157242 22.4450055,38.8543404 L22.4450055,52.5500942 C22.4450055,53.5730262 21.6234307,54.4016921 20.6126084,54.4016921 L11.7735456,54.4016921 C10.7657273,54.4016921 9.94865841,53.5851678 9.94865841,52.5667889 C9.94865841,46.2683206 9.94415252,25.7565617 9.91861912,22.4798405 C17.472,15.1887943 26.2389685,6.73822282 29.0596584,4.02912259 C29.5793382,3.53131594 30.3798855,3.52979824 30.8995653,4.0306403 C33.7037335,6.73670512 42.427145,15.164511 50.0060594,22.487429 C49.980526,25.7945043 49.979024,46.2880507 49.979024,52.5850014 M41.6280998,10.7176406 C41.6356096,8.95558721 41.6326057,8.53063031 41.6326057,7.0599759 C41.6311037,6.70635106 41.9104692,6.42102285 42.258925,6.41950515 C43.9411255,6.42102285 45.8576326,6.42102285 46.8339097,6.41950515 C47.1853695,6.41950515 47.4647349,6.70483335 47.4647349,7.0599759 C47.4647349,8.15727532 47.463233,13.2506873 47.4647349,16.504643 C45.4791375,14.5847484 43.496544,12.6724424 41.6085742,10.8496808 C41.6115782,10.802632 41.6280998,10.7662071 41.6280998,10.7176406 M59.3768177,28.0133864 C56.7799206,25.5015876 53.4665862,22.3007515 50.0105653,18.9633222 C50.0105653,18.9557337 50.0135692,18.9511805 50.0135692,18.9451097 L50.0135692,4.54210628 C50.0135692,4.18848143 49.7342037,3.90922404 49.3842459,3.90922404 C46.2196061,3.90618863 39.7130947,3.90922404 39.7130947,3.90922404 C39.3631369,3.90922404 39.0837714,4.18848143 39.0837714,4.54210628 L39.0837714,8.41224946 C35.1891767,4.65289861 32.0125212,1.59017354 30.6592509,0.287984184 C30.2597283,-0.095994728 29.6484286,-0.095994728 29.248906,0.287984184 C25.7012651,3.70736951 9.61522223,19.2289202 1.00295612,27.5626286 C0.765645683,27.790284 -0.57110298,29.1334514 0.280511056,29.9955068 C0.959399141,30.6815087 1.83504461,30.2869058 2.81883155,29.3368236 C4.19312933,28.0088333 5.77620022,26.4774708 7.46440865,24.8489752 C7.43587132,31.4616081 7.43737328,47.2730401 7.43737328,55.1605437 C7.43737328,56.1758872 8.24392837,57 9.25024478,57 L23.149427,57 C24.1572453,57 24.9668044,56.181958 24.9668044,55.1650968 C24.9683063,50.7652752 24.9683063,43.6776012 24.9683063,41.3661392 C24.9683063,40.9472532 25.3047464,40.6179116 25.7207907,40.6179116 L34.2083937,40.6179116 C34.622936,40.6179116 34.9593761,40.9472532 34.9593761,41.3661392 C34.9593761,43.6730481 34.9593761,50.7592044 34.9608781,55.1650968 C34.96238,56.181958 35.7794489,57 36.7857653,57 L50.6744337,57 C51.6807501,57 52.494815,56.1789226 52.494815,55.1635791 C52.496317,47.421775 52.4993209,31.3295679 52.494815,24.8929886 C54.3497415,26.6869138 56.080005,28.357905 57.5609423,29.7890992 C58.5387213,30.736146 59.1214837,30.5813402 59.7252735,29.9712235 C60.4176793,29.2715624 59.6111242,28.2410419 59.3768177,28.0133864" id="home-copy"></path>
                </g>
                <rect id="Rectangle-11" x="0" y="0" width="60" height="60"></rect>
            </g>
        </g>
    </g>
</svg>