<?xml version="1.0" encoding="UTF-8"?>
<svg width="60px" height="60px" viewBox="0 0 60 60" version="1.1" xmlns="http://www.w3.org/2000/svg" xmlns:xlink="http://www.w3.org/1999/xlink">
    <!-- Generator: Sketch 46.1 (44463) - http://www.bohemiancoding.com/sketch -->
    <title>Slice Copy 2</title>
    <desc>Created with Sketch.</desc>
    <defs></defs>
    <g id="FINAL---v3---ETH-mobile---iOS" stroke="none" stroke-width="1" fill="none" fill-rule="evenodd">
        <g id="icons" transform="translate(-444.000000, -593.000000)" fill="#4C4C4C">
            <path d="M491.51719,627.451285 C491.510228,632.853717 491.51719,638.25747 491.507443,643.659902 C491.474021,644.282345 490.946246,644.784528 490.279216,644.784528 L483.466873,644.784528 C483.057464,644.784528 482.724645,644.470003 482.724645,644.081471 L482.724645,631.31413 C482.724645,630.652041 482.160663,630.11682 481.462997,630.11682 L466.248023,630.11682 C465.482122,630.11682 464.859653,630.706224 464.859653,631.433068 L464.859653,643.970463 C464.859653,644.377495 464.512908,644.706557 464.084004,644.706557 L456.615771,644.706557 C456.362328,644.706557 456.156231,644.509649 456.156231,644.269129 L456.156231,643.844917 L456.156231,643.517176 C456.154838,638.598426 456.178511,626.440312 456.13395,618.836204 C461.453482,614.011283 466.771621,609.18504 472.092545,604.362762 C472.46157,604.027092 472.841735,603.704638 473.227471,603.378219 C473.592318,603.06898 474.15073,603.075588 474.508615,603.394077 C474.958408,603.793181 475.342751,604.134136 475.721524,604.477735 C480.983961,609.25376 486.245005,614.031106 491.504657,618.809773 C491.480984,622.466459 491.51719,627.099757 491.51719,627.451285 L491.51719,627.451285 Z M491.508835,643.650651 C491.51162,643.391631 491.515798,643.20133 491.522761,643.58061 C491.524153,643.605719 491.510228,643.626864 491.508835,643.650651 L491.508835,643.650651 Z M491.507443,643.992929 L491.507443,644.057684 C491.507443,644.251949 491.507443,644.159442 491.507443,643.992929 L491.507443,643.992929 Z M485.884336,603.330644 C487.094459,603.349145 488.333827,603.321393 489.695738,603.324036 C490.908647,603.328001 490.70255,604.61121 490.698372,605.137181 C490.687232,606.551222 490.662166,609.58943 490.69141,611.873041 C489.08998,610.421996 487.487158,608.96963 485.884336,607.517264 L485.884336,603.330644 Z M503.111541,623.125904 C499.825129,620.149809 496.533147,617.165785 493.246734,614.188368 C493.338643,611.399931 493.306614,604.147352 493.299651,601.428956 C493.298259,600.938667 492.880494,600.542207 492.365252,600.539563 C489.523062,600.528991 486.928746,600.480094 484.344178,600.597711 C484.262018,600.601676 484.182642,600.629428 484.101875,600.651894 L483.876282,600.651894 C483.461303,600.651894 483.120129,600.974348 483.120129,601.369487 L483.120129,605.012957 C480.282117,602.441251 477.45246,599.876153 474.611663,597.301805 C474.179974,596.911952 473.493448,596.893451 473.060365,597.283303 L473.054795,597.288589 C463.97817,605.530998 454.90433,613.77605 445.830491,622.021101 C445.720479,622.120217 445.603505,622.237833 445.515775,622.322411 C445.043701,622.774376 444.652395,623.33735 444.652395,623.33735 C442.453563,627.17112 446.359659,627.830566 448.293907,625.94738 C449.545807,624.812182 450.797708,623.676984 452.049608,622.540464 C452.020364,630.385091 452.03986,640.946792 452.051001,646.996776 L452.053786,647.772516 C452.055178,648.281307 452.491046,648.693626 453.027176,648.693626 L467.952501,648.693626 C468.583325,648.693626 469.09439,648.208623 469.09439,647.609968 L469.09439,634.867735 C469.09439,634.446166 469.453667,634.106532 469.896497,634.106532 L477.664127,634.106532 C478.189118,634.106532 478.613845,634.509599 478.613845,635.006496 L478.613845,647.67208 C478.613845,648.22316 479.084526,648.669838 479.663826,648.669838 L494.295323,648.669838 C495.044513,648.669838 495.651664,648.089685 495.651664,647.380021 C495.651664,641.483335 495.651664,635.724089 495.650271,629.963522 C495.650271,629.216855 495.67116,625.776902 495.668375,622.589361 C497.056745,623.851426 498.4479,625.110848 499.836269,626.372914 C500.705219,627.164512 501.508719,627.960076 502.759227,627.250412 C504.289636,626.382164 504.40104,624.295462 503.111541,623.125904 L503.111541,623.125904 Z" id="Home-Copy"></path>
        </g>
    </g>
</svg>