<?xml version="1.0" encoding="UTF-8"?>
<svg width="60px" height="60px" viewBox="0 0 60 60" version="1.1" xmlns="http://www.w3.org/2000/svg" xmlns:xlink="http://www.w3.org/1999/xlink">
    <!-- Generator: Sketch 46.1 (44463) - http://www.bohemiancoding.com/sketch -->
    <title>Slice</title>
    <desc>Created with Sketch.</desc>
    <defs></defs>
    <g id="FINAL---v3---ETH-mobile---Android" stroke="none" stroke-width="1" fill="none" fill-rule="evenodd">
        <path d="M47.5171904,34.4512854 C47.5102277,39.8537171 47.5171904,45.2574704 47.5074426,50.6599021 C47.4740214,51.2823447 46.9462459,51.7845276 46.2792156,51.7845276 L39.4668731,51.7845276 C39.0574641,51.7845276 38.7246452,51.4700025 38.7246452,51.0814715 L38.7246452,38.3141298 C38.7246452,37.6520412 38.1606635,37.1168198 37.4629971,37.1168198 L22.2480227,37.1168198 C21.4821216,37.1168198 20.8596528,37.7062241 20.8596528,38.4330679 L20.8596528,50.9704626 C20.8596528,51.3774951 20.5129085,51.7065571 20.0840038,51.7065571 L12.6157714,51.7065571 C12.3623277,51.7065571 12.1562307,51.5096485 12.1562307,51.2691293 L12.1562307,50.8449168 L12.1562307,50.5171764 C12.1548381,45.5984262 12.1785114,33.4403118 12.1339499,25.8362041 C17.4534815,21.0112829 22.7716206,16.18504 28.0925447,11.3627618 C28.4615698,11.0270922 28.8417353,10.7046378 29.227471,10.3782189 C29.5923184,10.0689799 30.15073,10.0755876 30.5086147,10.3940773 C30.9584076,10.7931806 31.3427507,11.1341364 31.7215236,11.4777353 C36.9839608,16.2537598 42.2450054,21.0311059 47.5046575,25.8097734 C47.4809842,29.4664585 47.5171904,34.0997573 47.5171904,34.4512854 L47.5171904,34.4512854 Z M47.5088351,50.6506513 C47.5116202,50.3916306 47.5157978,50.2013297 47.5227606,50.58061 C47.5241531,50.6057192 47.5102277,50.6268637 47.5088351,50.6506513 L47.5088351,50.6506513 Z M47.5074426,50.9929287 L47.5074426,51.0576839 C47.5074426,51.2519494 47.5074426,51.159442 47.5074426,50.9929287 L47.5074426,50.9929287 Z M41.8843356,10.3306437 C43.0944594,10.3491451 44.3338267,10.3213929 45.6957382,10.324036 C46.9086471,10.3280006 46.7025501,11.6112103 46.6983724,12.1371809 C46.6872321,13.5512224 46.6621662,16.5894295 46.6914097,18.8730406 C45.08998,17.421996 43.4871578,15.96963 41.8843356,14.5172639 L41.8843356,10.3306437 Z M59.1115412,30.1259041 C55.825129,27.1498091 52.5331466,24.1657849 49.2467344,21.1883684 C49.3386426,18.3999313 49.306614,11.1473518 49.2996512,8.42895597 C49.2982587,7.93866679 48.8804944,7.54220654 48.3652518,7.53956347 C45.5230623,7.5289912 42.9287462,7.48009444 40.344178,7.59771098 C40.2620177,7.60167558 40.1826425,7.6294278 40.1018747,7.65189388 L39.876282,7.65189388 C39.4613029,7.65189388 39.1201287,7.97434822 39.1201287,8.36948694 L39.1201287,12.0129567 C36.2821168,9.44125115 33.4524602,6.87615332 30.6116632,4.30180475 C30.1799735,3.91195216 29.4934476,3.89345069 29.0603653,4.28330327 L29.0547951,4.2885894 C19.9781702,12.5309981 10.9043304,20.7760498 1.83049066,29.0211015 C1.7204794,29.1202165 1.60350541,29.2378331 1.51577491,29.3224113 C1.0437013,29.774376 0.652395437,30.3373495 0.652395437,30.3373495 C-1.54643713,34.1711202 2.35965872,34.8305657 4.29390726,32.9473795 C5.5458075,31.8121817 6.79770774,30.6769838 8.04960798,29.5404644 C8.02036448,37.3850913 8.03986014,47.9467924 8.05100052,53.9967759 L8.05378562,54.7725164 C8.05517817,55.2813071 8.49104555,55.6936257 9.02717635,55.6936257 L23.9525009,55.6936257 C24.5833249,55.6936257 25.0943899,55.2086227 25.0943899,54.6099677 L25.0943899,41.8677352 C25.0943899,41.4461658 25.4536671,41.1065315 25.8964973,41.1065315 L33.6641275,41.1065315 C34.1891179,41.1065315 34.6138449,41.5095994 34.6138449,42.0064963 L34.6138449,54.6720798 C34.6138449,55.2231596 35.0845259,55.6698381 35.6638257,55.6698381 L50.2953227,55.6698381 C51.0445133,55.6698381 51.651664,55.0896846 51.651664,54.3800208 C51.651664,48.4833353 51.651664,42.7240893 51.6502715,36.9635219 C51.6502715,36.2168551 51.6711597,32.7769016 51.6683746,29.5893612 C53.0567445,30.8514263 54.4478995,32.1108484 55.8362694,33.3729135 C56.7052191,34.1645125 57.508719,34.9600761 58.7592267,34.2504122 C60.2896364,33.3821643 60.4010402,31.2954618 59.1115412,30.1259041 L59.1115412,30.1259041 Z" id="Home" fill="#10ADE4"></path>
    </g>
</svg>