<?xml version="1.0" encoding="UTF-8" standalone="no"?>
<svg width="45px" height="36px" viewBox="0 0 45 36" version="1.1" xmlns="http://www.w3.org/2000/svg" xmlns:xlink="http://www.w3.org/1999/xlink">
    <!-- Generator: Sketch 41.2 (35397) - http://www.bohemiancoding.com/sketch -->
    <title>email</title>
    <desc>Created with Sketch.</desc>
    <defs></defs>
    <g id="iOS" stroke="none" stroke-width="1" fill="none" fill-rule="evenodd">
        <g id="Email" transform="translate(-165.000000, -124.000000)" fill="#049BD4">
            <g id="email" transform="translate(165.000000, 124.000000)">
                <path d="M0,0 L0,35.6190476 L45,35.6190476 L45,0 L0,0 L0,0 Z M22.4841176,21.4180073 L4.23,2.73992674 L40.8123529,2.73992674 L22.4841176,21.4180073 L22.4841176,21.4180073 Z M15.2338235,17.8533626 L2.64705882,30.6816996 L2.64705882,4.97296703 L15.2338235,17.8533626 L15.2338235,17.8533626 Z M17.1158824,19.7795311 L22.4788235,25.2676044 L27.7623529,19.8809084 L40.4682353,32.8791209 L4.26441176,32.8791209 L17.1158824,19.7795311 L17.1158824,19.7795311 Z M29.6497059,17.9602198 L42.3529412,5.01406593 L42.3529412,30.9529524 L29.6497059,17.9602198 L29.6497059,17.9602198 Z" id="Shape"></path>
            </g>
        </g>
    </g>
</svg>