<?xml version="1.0" encoding="UTF-8" standalone="no"?>
<svg width="80px" height="75px" viewBox="0 0 80 75" version="1.1" xmlns="http://www.w3.org/2000/svg" xmlns:xlink="http://www.w3.org/1999/xlink">
    <!-- Generator: Sketch 41.2 (35397) - http://www.bohemiancoding.com/sketch -->
    <title>email</title>
    <desc>Created with Sketch.</desc>
    <defs></defs>
    <g id="Feedback" stroke="none" stroke-width="1" fill="none" fill-rule="evenodd">
        <g id="email">
            <g id="mail" transform="translate(8.000000, 14.000000)">
                <g id="Layer_2">
                    <g>
                        <g id="Layer_1-2">
                            <polygon id="Shape" points="7.88817836 4.02249776 7.65969836 3.87195231 7.17009836 4.02249776"></polygon>
                            <path d="M55.3595803,3.63064083 L9.00007869,3.63064083 C8.56665798,3.63822322 8.13543234,3.72809392 7.71588197,3.8982772 L55.7983475,3.69754993 C55.6485246,3.68082265 55.5094033,3.63064083 55.3595803,3.63064083 Z" id="Shape"></path>
                            <path d="M28.1025049,19.7436662 L30.4675672,21.5644709 L30.8207213,21.8386885 C31.6243197,22.4511407 32.7246376,22.4511407 33.5282361,21.8386885 L33.9884066,21.5096274 L36.3855738,19.7985097 L57.7888525,4.26682563 C57.5779272,4.15332281 57.359842,4.05438434 57.1360525,3.97067064 L7.64097049,3.97067064 L28.1025049,19.7436662 Z" id="Shape"></path>
                            <path d="M34.3201574,25.8751714 C33.0510254,26.8477366 31.3086336,26.8477366 30.0395016,25.8751714 L27.3533902,23.8130551 L4.43047869,41.6262295 C5.42674984,43.2331148 7.15325589,44.208871 9.01078033,44.2148435 L55.3595803,44.2148435 C57.2632885,44.2056652 59.0241972,43.1784793 60.0040918,41.5055738 L37.0276721,23.8020864 L34.3201574,25.8751714 Z" id="Shape"></path>
                            <path d="M59.9291803,6.24119225 L39.2964197,22.0580626 L60.8174164,38.5111177 L60.8174164,9.22467958 C60.809326,8.1630276 60.5007648,7.12660463 59.9291803,6.24119225 L59.9291803,6.24119225 Z" id="Shape"></path>
                            <path d="M4.40907541,6.24119225 C3.84881869,7.13019006 3.55148622,8.16634866 3.55294426,9.22467958 L3.55294426,38.5440238 L25.073941,22.0909687 L4.40907541,6.24119225 Z" id="Shape"></path>
                            <path d="M58.3560393,0 L6.00361967,0 C2.69278741,0.0120336436 0.0117406505,2.7599871 0,6.15344262 L0,41.681073 C0.0012968018,42.264211 0.0841866096,42.8441442 0.246137705,43.4031595 C1.01398124,46.0050586 3.35148943,47.7863535 6.00361967,47.7906408 L58.3560393,47.7906408 C60.6341522,47.7706061 62.7056714,46.4329807 63.706859,44.3354993 C64.1182487,43.5129605 64.3414923,42.6052035 64.359659,41.681073 L64.359659,6.15344262 C64.3479184,2.7599871 61.6668716,0.0120336436 58.3560393,6.85604909e-16 L58.3560393,0 Z M7.4269377,3.80614009 L7.72658361,3.80614009 C8.14613398,3.6945445 8.57735962,3.63561289 9.01078033,3.63064083 L55.3595803,3.63064083 L55.7983475,3.63064083 L58.6449836,3.63064083 L58.2276197,3.93776453 L57.1574557,3.93776453 C57.3812453,4.02147823 57.5993305,4.1204167 57.8102557,4.23391952 L36.3855738,19.7985097 L33.9991082,21.4986587 L33.5389377,21.8277198 C32.7353393,22.440172 31.6350214,22.440172 30.831423,21.8277198 L30.4782689,21.5535022 L28.1025049,19.7436662 L7.64097049,3.97067064 L7.19150164,3.97067064 L7.49114754,3.87195231 L7.4269377,3.80614009 Z M3.55294426,9.22467958 C3.55148622,8.16634866 3.84881869,7.13019006 4.40907541,6.24119225 L25.0632393,22.0580626 L3.54224262,38.5111177 L3.55294426,9.22467958 Z M55.370282,44.2148435 L9.00007869,44.2148435 C7.14255425,44.208871 5.4160482,43.2331148 4.41977705,41.6262295 L27.3533902,23.8130551 L30.0395016,25.8751714 C31.3086336,26.8477366 33.0510254,26.8477366 34.3201574,25.8751714 L37.0276721,23.8020864 L60.0040918,41.5055738 C59.0241972,43.1784793 57.2632885,44.2056652 55.3595803,44.2148435 L55.370282,44.2148435 Z M39.317823,22.0580626 L59.9291803,6.24119225 C60.489437,7.13019006 60.7867695,8.16634866 60.7853115,9.22467958 L60.7853115,38.5440238 L39.317823,22.0580626 Z" id="Shape" fill="#FFFFFF"></path>
                        </g>
                    </g>
                </g>
            </g>
        </g>
    </g>
</svg>