<?xml version="1.0" encoding="UTF-8"?>
<svg width="110px" height="158px" viewBox="0 0 110 158" version="1.1" xmlns="http://www.w3.org/2000/svg" xmlns:xlink="http://www.w3.org/1999/xlink">
    <!-- Generator: Sketch 46.1 (44463) - http://www.bohemiancoding.com/sketch -->
    <title>Slice 2 Copy</title>
    <desc>Created with Sketch.</desc>
    <defs></defs>
    <g id="FINAL---v3---ETH-mobile---iOS" stroke="none" stroke-width="1" fill="none" fill-rule="evenodd">
        <g id="icons" transform="translate(-510.000000, -576.000000)" fill-rule="nonzero" fill="#B2D5E5">
            <path d="M501.3448,665.156947 C500.159821,663.511145 499.519932,660.090229 500.432366,658.57374 C516.773225,631.606107 533.422179,604.826565 550.000034,578 C566.589738,604.826565 583.179443,631.617863 599.555851,658.57374 C600.480135,660.090229 599.852096,663.522901 598.678967,665.168702 C582.586953,687.551603 566.257944,709.758168 550.000034,732 C533.742123,709.758168 517.424964,687.539847 501.3448,665.156947 Z M546,686 L546,593 L506,661.753529 L546,686 Z M593,661.764781 L553,593 L553,686 L593,661.764781 Z M544.135035,689.716341 C532.51705,682.675882 520.711678,675.897505 509,669 C521.109875,685.987638 534.156685,704.845583 546.336831,722 C547.507998,712.743763 546.817009,702.498764 546.594488,693.802428 C546.39021,692.14412 545.494168,690.655452 544.135035,689.716341 L544.135035,689.716341 Z M553.005788,719 C564.524448,702.870583 579.261386,682.386926 591,666 C589.587662,666.971511 588.626809,667.626988 586.971363,668.586793 C576.10099,674.977694 565.334806,681.462235 554.557045,687.958481 C553.596192,688.543728 553.121554,690.592094 553.098401,691.973277 C552.936329,700.962677 553.028941,709.975486 553.005788,719 Z" id="Shape-Copy-2"></path>
        </g>
    </g>
</svg>