<?xml version="1.0" encoding="UTF-8"?>
<svg width="36px" height="36px" viewBox="0 0 36 36" version="1.1" xmlns="http://www.w3.org/2000/svg" xmlns:xlink="http://www.w3.org/1999/xlink">
    <!-- Generator: Sketch 46.1 (44463) - http://www.bohemiancoding.com/sketch -->
    <title>icons copy 2</title>
    <desc>Created with Sketch.</desc>
    <defs></defs>
    <g id="FINAL---v3---ETH-mobile---iOS" stroke="none" stroke-width="1" fill="none" fill-rule="evenodd">
        <g id="icons" transform="translate(-265.000000, -520.000000)" fill="#FFFFFF">
            <path d="M284.00718,551.796842 C286.776035,548.038947 289.204978,544.592932 292.021648,540.770276 C291.681735,540.99609 286.962944,544.089323 284.374042,545.616341 C284.143666,545.75183 284.028044,546.229875 284.023697,546.551128 C283.988923,548.652481 284.010657,549.695489 284.00718,551.796842 M281.968572,545.449323 C279.20754,543.835388 277.047224,542.556341 274.264459,540.977343 C277.136766,544.857945 279.636126,547.854887 282.532775,551.784912 C282.563202,549.825013 282.607538,548.376391 282.553639,546.385815 C282.544946,546.062005 282.258932,545.618897 281.968572,545.449323 M292.25637,538.952682 C289.020678,533.750426 287.243742,529.744561 283.9272,524.415338 L283.9272,543.909524 C287.195928,542.057845 288.957216,540.822256 292.25637,538.952682 M282.712729,543.764662 L282.712729,524.42812 C279.41879,529.730075 277.17154,533.731679 273.991485,538.847018 C277.25065,540.696992 279.47182,541.925764 282.712729,543.764662 M272.300614,540.240251 C272.036334,539.878095 271.892023,539.121404 272.097188,538.786516 C275.750165,532.835238 279.469212,526.922306 283.172611,521 C286.874271,526.923158 290.591579,532.83609 294.243687,538.788221 C294.449721,539.12396 294.310626,539.881504 294.047216,540.242807 C290.452485,545.183459 286.805593,550.086617 283.172611,555 C279.540498,550.085764 275.894476,545.181754 272.300614,540.240251" id="ethereum-copy-2"></path>
        </g>
    </g>
</svg>