<?xml version="1.0" encoding="UTF-8"?>
<svg width="110px" height="158px" viewBox="0 0 110 158" version="1.1" xmlns="http://www.w3.org/2000/svg" xmlns:xlink="http://www.w3.org/1999/xlink">
    <!-- Generator: Sketch 46.1 (44463) - http://www.bohemiancoding.com/sketch -->
    <title>Slice 2 Copy</title>
    <desc>Created with Sketch.</desc>
    <defs></defs>
    <g id="FINAL---v3---ETH-mobile---iOS" stroke="none" stroke-width="1" fill="none" fill-rule="evenodd">
        <g id="icons" transform="translate(-510.000000, -577.000000)" fill-rule="nonzero" fill="#B2D5E5">
            <path d="M502.465832,672.080305 C501.174205,670.284885 500.476726,666.552977 501.471279,664.898626 C519.282815,635.479389 537.430175,606.265344 555.500037,577 C573.582815,606.265344 591.665593,635.492214 609.515878,664.898626 C610.523347,666.552977 609.838785,670.29771 608.560074,672.09313 C591.019779,696.51084 573.221159,720.736183 555.500037,745 C537.778914,720.736183 519.99321,696.498015 502.465832,672.080305 Z M551,694 L551,593 L507,667.667811 L551,694 Z M603,667.68003 L559,593 L559,694 L603,667.68003 Z M548.908854,698.670713 C536.373659,690.96606 523.636285,683.548213 511,676 C524.065918,694.590245 538.142739,715.227242 551.284475,734 C552.548104,723.870533 551.802563,712.659024 551.562473,703.142279 C551.342069,701.327528 550.375286,699.698419 548.908854,698.670713 L548.908854,698.670713 Z M559.006245,731 C571.434273,713.34894 587.334653,690.932862 600,673 C598.476161,674.063163 597.439452,674.780477 595.653313,675.83083 C583.924752,682.824647 572.308606,689.920936 560.67997,697.030035 C559.64326,697.670495 559.13115,699.912102 559.106169,701.423587 C558.931302,711.261042 559.031226,721.124117 559.006245,731 Z" id="Shape-Copy-2"></path>
        </g>
    </g>
</svg>