<?xml version="1.0" encoding="UTF-8"?>
<svg width="14px" height="17px" viewBox="0 0 14 17" version="1.1" xmlns="http://www.w3.org/2000/svg" xmlns:xlink="http://www.w3.org/1999/xlink">
    <!-- Generator: Sketch 47.1 (45422) - http://www.bohemiancoding.com/sketch -->
    <title>exchange</title>
    <desc>Created with Sketch.</desc>
    <defs></defs>
    <g id="iOS---Androdi-final-" stroke="none" stroke-width="1" fill="none" fill-rule="evenodd">
        <g id="IOS---2---new-item-on-menu-bar-copy" transform="translate(-36.000000, -185.000000)" fill="#5F5F5F">
            <path d="M41.8957305,199.93615 C40.9550563,199.832381 40.1558173,199.607065 39.4980134,199.260203 C36.621537,197.743117 35.3002659,194.415845 36.3675637,191.344818 C36.742207,190.266945 37.3773581,189.357733 38.2381664,188.605043 C38.3836674,188.478005 38.567504,188.48581 38.6873027,188.620652 C38.7988244,188.745522 38.7827061,188.92589 38.6402545,189.051628 C38.1161895,189.513388 37.669667,190.038883 37.3355374,190.651961 C36.7600679,191.705988 36.5095796,192.831988 36.6241508,194.027794 C36.7591966,195.440822 37.3224685,196.665677 38.3366192,197.665073 C39.6361086,198.945426 41.2104817,199.524686 43.0379569,199.416725 C43.0610454,199.41499 41.7829018,199.51558 41.8390983,199.522084 C41.8299501,199.11799 41.8090398,198.290291 41.809911,198.011935 C41.8103466,197.814223 41.7646053,197.609575 41.8909385,197.49988 C42.0316476,197.376744 42.2167911,197.400157 42.3544507,197.562315 C42.8802582,198.179729 43.4047588,198.798444 43.9292594,199.416725 C44.0316329,199.537259 44.0346823,199.654325 43.9584468,199.800874 C43.6278023,200.433897 42.6476309,201.754573 42.5809792,201.825246 C42.466408,201.946648 42.3727472,201.993908 42.2294244,201.999978 C42.1706141,201.999978 42.1074475,202.00388 42.0107372,201.908059 C41.8778696,201.724223 41.8957305,199.93615 41.8957305,199.93615 Z M43.0661858,185.091941 C43.1990535,185.275777 43.1811926,187.06385 43.1811926,187.06385 L42.4275497,186.970631 C43.5432026,186.961525 44.5922038,187.219504 45.5789097,187.739797 C48.4553861,189.256883 49.7766572,192.584155 48.7093594,195.655182 C48.3347161,196.733055 47.699565,197.642267 46.8387567,198.394957 C46.6932557,198.521995 46.5094191,198.51419 46.3896204,198.379348 C46.2780986,198.254478 46.294217,198.07411 46.4366686,197.948372 C46.9607336,197.486612 47.4072561,196.961117 47.7413857,196.348039 C48.3172908,195.294012 48.5673434,194.168446 48.4527723,192.972206 C48.3177265,191.559178 47.7544546,190.334323 46.7403039,189.334927 C45.4408144,188.054574 43.8664413,187.475314 42.0394018,187.583709 C42.0158777,187.58501 43.2940212,187.48442 43.2378247,187.477916 C43.246973,187.88201 43.2678833,188.709709 43.2670121,188.988065 C43.2665764,189.185777 43.3123178,189.390425 43.1859846,189.50012 C43.0452755,189.623256 42.860132,189.599843 42.7224724,189.437685 C42.1971005,188.820271 41.6721643,188.201556 41.1476636,187.583275 C41.0452902,187.462741 41.0422408,187.345675 41.1184763,187.199126 C41.4491208,186.566103 42.4292922,185.245427 42.4963795,185.174754 C42.610515,185.053352 42.7041759,185.006092 42.8474987,185.000022 C42.906309,185.000022 42.9694756,184.99612 43.0661858,185.091941 Z M43.4792518,194.951573 C43.4788162,194.948105 43.4788162,194.944202 43.4788162,194.940734 C43.4583415,194.942034 43.4374312,194.942902 43.4169565,194.94507 C43.2056751,194.967616 42.9935225,194.968483 42.7818054,194.944202 C42.4433196,194.905614 42.1161601,194.817164 41.8168811,194.621621 C41.6848847,194.535773 41.5668285,194.42998 41.4805734,194.282997 C41.4718608,194.267388 41.4531286,194.25785 41.4374459,194.250479 C41.4226344,194.243975 41.4056448,194.246143 41.3903977,194.241807 C41.2627576,194.207988 41.1351175,194.173302 41.0052992,194.138182 C40.9512809,194.226198 40.9486671,194.352803 40.9987647,194.462932 C41.0680302,194.615117 41.1795519,194.716574 41.3037069,194.800255 C41.5873032,194.991896 41.8996512,195.074709 42.2220186,195.112864 C42.5012586,195.145816 42.7800629,195.135843 43.0566891,195.080346 C43.2004475,195.051296 43.3424635,195.011407 43.4792518,194.951573 M40.8214626,192.419049 C40.8092649,192.424685 40.804473,192.425986 40.8009879,192.428154 C40.6702984,192.505331 40.5518066,192.600717 40.4620664,192.737728 C40.3766826,192.868235 40.3675343,193.017819 40.437671,193.158298 C40.4877687,193.260188 40.5600836,193.336932 40.6402398,193.403702 C40.7970672,193.533776 40.9726268,193.616589 41.1564634,193.677723 C41.4152287,193.763572 41.6792215,193.799559 41.9475706,193.800859 C42.2647106,193.802594 42.575316,193.755334 42.8759019,193.635666 C42.886357,193.631764 42.8955053,193.625694 42.9055248,193.620925 C42.8924559,193.612253 42.882872,193.611386 42.8732881,193.612253 C42.7957456,193.618757 42.7177676,193.626995 42.6397895,193.631764 C42.4333,193.644338 42.2276819,193.626561 42.0238062,193.589707 C41.7959708,193.548517 41.5729274,193.480012 41.3629529,193.365114 C41.2117886,193.281867 41.0715152,193.181277 40.9604291,193.033861 C40.8807085,192.928068 40.8262545,192.807967 40.8218982,192.664453 C40.8201557,192.585109 40.8214626,192.506198 40.8214626,192.419049 M42.188475,194.289067 C42.1876037,194.29427 42.1862968,194.30034 42.1854256,194.305543 C42.309145,194.340229 42.4324288,194.380986 42.5574551,194.408734 C42.828418,194.468135 43.1019948,194.480275 43.3768784,194.452959 C43.6443563,194.426511 43.9052997,194.367111 44.1540454,194.246143 C44.3052096,194.172001 44.4472256,194.079649 44.5613611,193.939604 C44.6193001,193.868931 44.6646058,193.789153 44.6798529,193.691164 C44.6985851,193.569329 44.6572001,193.468739 44.5935978,193.378989 C44.4772842,193.214663 44.3221993,193.116674 44.1579661,193.032127 C44.1326995,193.01912 44.1196305,193.025623 44.1026409,193.047302 C44.0773742,193.07982 44.0494938,193.109304 44.0207421,193.13792 C43.9249031,193.234174 43.8159952,193.30528 43.7031666,193.369016 C43.6879194,193.377254 43.6722367,193.3985 43.6687517,193.417143 C43.6439206,193.54158 43.5864173,193.642604 43.5119242,193.732354 C43.3916899,193.877602 43.2435751,193.976024 43.0858764,194.053635 C42.8706743,194.160295 42.6454527,194.225331 42.413261,194.258717 C42.3383323,194.269556 42.2634037,194.279095 42.188475,194.289067 M42.5369804,193.126647 C42.6184435,193.126647 42.7003423,193.131416 42.7818054,193.12578 C42.978711,193.112339 43.1716958,193.072883 43.36076,193.007846 C43.5594081,192.939775 43.7480366,192.847423 43.9113985,192.694804 C43.984149,192.626732 44.0473156,192.548255 44.0852156,192.447231 C44.1392339,192.305018 44.1043834,192.14286 43.9967824,192.012353 C43.8761124,191.86407 43.7279976,191.765648 43.5676851,191.690205 C43.2801681,191.554062 42.978711,191.492494 42.6694124,191.480788 C42.2403152,191.464312 41.8212374,191.520677 41.4269907,191.731829 C41.2771334,191.811607 41.1399094,191.912197 41.0388428,192.068285 C40.961736,192.187952 40.9377763,192.318459 40.9935371,192.458504 C41.0318727,192.555192 41.0941681,192.631068 41.165176,192.696972 C41.3429138,192.862165 41.5494032,192.957552 41.7659122,193.025623 C42.018143,193.104534 42.2756013,193.138787 42.5369804,193.126647 M40.903797,194.935097 C40.8484718,194.838843 40.8197201,194.732183 40.8197201,194.615984 C40.8201557,194.514094 40.8153638,194.41177 40.821027,194.310312 C40.8249477,194.24094 40.8401948,194.171568 40.8558775,194.103496 C40.8619764,194.075314 40.8584913,194.066208 40.8371453,194.052768 C40.7426133,193.994235 40.6467743,193.93787 40.5570341,193.870665 C40.4485618,193.789586 40.3588217,193.68336 40.3000114,193.54765 C40.2760517,193.493019 40.2634183,193.431885 40.2459931,193.373352 L40.2459931,192.898151 C40.2490425,192.88948 40.2529632,192.880808 40.2547057,192.871703 C40.2791011,192.736861 40.3431389,192.628033 40.4246021,192.531779 C40.530025,192.407776 40.6576651,192.319759 40.7927109,192.246051 C40.8149281,192.233911 40.8275614,192.219603 40.832789,192.191854 C40.8532637,192.083026 40.9011832,191.990241 40.9643498,191.907861 C41.0959106,191.736165 41.2640644,191.626036 41.444416,191.539754 C41.6766077,191.428758 41.9201258,191.36589 42.1697428,191.335539 C42.2337807,191.327735 42.2973829,191.319063 42.3618564,191.310825 L42.71254,191.310825 C42.7260446,191.313427 42.7386779,191.318196 42.7517468,191.319063 C43.0536396,191.343344 43.3485623,191.406212 43.6299804,191.539754 C43.7990055,191.619966 43.9567042,191.723157 44.0856512,191.876644 C44.1941235,192.006283 44.2581614,192.158035 44.2546763,192.342739 C44.2533694,192.432056 44.2590327,192.521373 44.2529338,192.609823 C44.2481419,192.686566 44.2333304,192.762875 44.2176476,192.837451 C44.2124201,192.8652 44.217212,192.873871 44.2359442,192.886011 C44.3352682,192.949314 44.4358991,193.009147 44.5308669,193.07982 C44.6249633,193.149626 44.7042483,193.241978 44.7573954,193.356876 C44.7878896,193.423213 44.8053149,193.497789 44.8284033,193.568895 L44.8284033,194.035425 C44.8266608,194.040627 44.8231758,194.045397 44.8223045,194.0506 C44.790939,194.24094 44.6933575,194.381853 44.5639749,194.491981 C44.4755416,194.567424 44.3762176,194.625957 44.2821211,194.693161 C44.266874,194.704434 44.2507557,194.720477 44.2429143,194.738253 C44.2150339,194.802423 44.1902028,194.867459 44.1662431,194.933363 C44.1605799,194.948538 44.1536098,194.936398 44.1605799,194.948538 C43.7763527,195.532133 43.0527684,195.626653 42.5077931,195.621016 C41.6888054,195.613212 41.0536543,195.251175 40.903797,194.935097" id="exchange"></path>
        </g>
    </g>
</svg>