<?xml version="1.0" encoding="UTF-8"?>
<svg width="141px" height="141px" viewBox="0 0 141 141" version="1.1" xmlns="http://www.w3.org/2000/svg" xmlns:xlink="http://www.w3.org/1999/xlink">
    <!-- Generator: Sketch 47.1 (45422) - http://www.bohemiancoding.com/sketch -->
    <title>Slice 5</title>
    <desc>Created with Sketch.</desc>
    <defs></defs>
    <g id="iOS---Androdi-final-" stroke="none" stroke-width="1" fill="none" fill-rule="evenodd">
        <circle id="Oval-2-Copy-3" stroke="#004A7C" cx="70.5" cy="70.5" r="69.5"></circle>
        <path d="M56.3625611,100.583111 C56.409702,95.468037 56.4104877,90.3523096 56.3993572,85.2368434 C56.397393,84.2746159 56.6410853,83.4416955 57.2852132,82.7275025 C60.027373,79.6869577 62.746617,76.6255148 65.5160137,73.6099172 C72.5165677,65.9870693 79.5395137,58.3847277 86.5530315,50.773635 C86.6385398,50.680769 86.7180246,50.5822867 86.7291551,50.4060895 C85.9683534,51.026241 85.2058494,51.6443027 84.4470119,52.2669358 C78.7517369,56.939362 73.0597356,61.6159678 67.3614488,66.2848674 C62.4937585,70.2731416 57.6233182,74.2582811 52.7439736,78.2325797 C51.615211,79.1518354 50.4544974,80.0332133 49.2844865,80.8997013 C49.0985419,81.0373677 48.7482588,81.1084212 48.5362557,81.0338411 C43.3909579,79.2230196 38.2493265,77.4012266 33.1222303,75.5398579 C32.5304811,75.3249991 31.9304822,74.9564087 31.5050356,74.5005686 C30.7332344,73.673787 30.8640504,72.8622872 31.7742625,72.1736944 C32.2929433,71.7813323 32.8452775,71.4251501 33.4124087,71.1056702 C41.6497565,66.4674647 49.8882828,61.8310877 58.1344041,57.2082946 C70.1143462,50.4925554 82.1004429,43.7876572 94.0850991,37.0804079 C94.5582104,36.8153937 95.0381309,36.561351 95.5248606,36.3223288 C96.4828684,35.8517295 97.1042116,35.8855583 97.6209282,36.4956526 C98.0628741,37.0174523 98.2082252,37.7261596 98.0652312,38.3941155 C97.9469861,38.9466093 97.8640967,39.5096829 97.7784574,40.06714 C97.4441499,42.2443315 97.0569398,44.4080699 96.7337627,46.5869594 C96.4170021,48.7228771 96.1041699,50.8594479 95.7794215,52.9941901 C95.4060918,55.4494572 95.0142985,57.9021119 94.6441116,60.3577708 C94.2736627,62.8147358 93.9275699,65.2753579 93.5565973,67.7321923 C93.1858865,70.1868063 92.7895101,72.6375018 92.4190613,75.0921158 C92.0483505,77.5480359 91.7023887,80.0076132 91.3337731,82.4636639 C90.958872,84.9612496 90.5729714,87.4571373 90.1843209,89.952372 C90.0613617,90.7419288 89.9708774,91.5428489 89.7655526,92.3120301 C89.3305469,93.9409074 87.8022652,94.912539 85.7426009,94.1765336 C79.8451438,92.0690896 73.9362944,89.9931233 68.0406706,87.8805853 C67.5328584,87.6986411 67.2966301,87.7800131 67.0188917,88.2368981 C65.2876423,91.0850497 63.5364889,93.9215766 61.7666101,96.7462178 C60.8016622,98.2860169 59.814977,99.8123628 58.8299942,101.339754 C58.1059886,102.462635 56.3539186,101.95037 56.3622992,100.615373 C56.3624302,100.604662 56.3624302,100.593952 56.3625611,100.583111" id="Fill-1" fill="#004A7C"></path>
    </g>
</svg>