<?xml version="1.0" encoding="UTF-8"?>
<svg width="141px" height="141px" viewBox="0 0 141 141" version="1.1" xmlns="http://www.w3.org/2000/svg" xmlns:xlink="http://www.w3.org/1999/xlink">
    <!-- Generator: Sketch 47.1 (45422) - http://www.bohemiancoding.com/sketch -->
    <title>Slice 5</title>
    <desc>Created with Sketch.</desc>
    <defs></defs>
    <g id="iOS---Androdi-final-" stroke="none" stroke-width="1" fill="none" fill-rule="evenodd">
        <g id="Page-1" transform="translate(2.000000, 2.000000)">
            <g id="Group-16">
                <g id="Group-17">
                    <path d="M71.0059965,33.4757746 L102.404932,88.576725 C103.289641,90.1349322 100.809982,92.0833907 99.0419378,92.0833907 L36.7551101,92.0833907 C34.9870654,92.0833907 32.5074068,90.1349322 33.392116,88.576725 L64.7910514,33.4757746 C66.1716924,31.0405512 69.6253555,31.0405512 71.0059965,33.4757746 M63.7827027,23.6509561 L25.8556022,90.5363734 C24.0257377,93.7632892 26.3130683,97.7944861 29.9700497,97.7944861 L105.826998,97.7944861 C109.48398,97.7944861 111.77131,93.7632892 109.941446,90.5363734 L72.0143452,23.6509561 C70.1844807,20.4240403 65.6125672,20.4240403 63.7827027,23.6509561" id="Fill-1" fill="#CA3A3C"></path>
                    <path d="M68.6539655,74.9133692 L68.6539655,74.9133692 C67.583797,74.9133692 66.6963403,74.0713218 66.6207828,72.9844932 L65.0244596,49.9904454 C64.9406595,48.7889194 65.8748245,47.7692308 67.0576423,47.7692308 L70.2502887,47.7692308 C71.4317327,47.7692308 72.3658978,48.7889194 72.2834714,49.9904454 L70.6857745,72.9844932 C70.6115908,74.0713218 69.7227602,74.9133692 68.6539655,74.9133692" id="Fill-3" fill="#CA3A3C"></path>
                    <path d="M70.7504672,81.8575805 C70.7504672,83.0954741 69.7640989,84.0997764 68.5483105,84.0997764 C67.3325222,84.0997764 66.3461538,83.0954741 66.3461538,81.8575805 C66.3461538,80.6182882 67.3325222,79.6153846 68.5483105,79.6153846 C69.7640989,79.6153846 70.7504672,80.6182882 70.7504672,81.8575805" id="Fill-5" fill="#CA3A3C"></path>
                    <circle id="Oval-2-Copy-2" stroke="#CA3A3C" cx="68.5122039" cy="68.5122039" r="68.5122039"></circle>
                </g>
            </g>
        </g>
        <path d="M71.5000789,77 L71.5000789,77 C70.4695569,77 69.6149777,76.162424 69.5422194,75.0813666 L68.0050351,52.2094198 C67.9243396,51.0142739 68.8238966,50 69.9628946,50 L73.0372632,50 C74.1749384,50 75.0744954,51.0142739 74.9951228,52.2094198 L73.4566156,75.0813666 C73.3851802,76.162424 72.5292781,77 71.5000789,77" id="Fill-3" fill="#CA3A3C"></path>
    </g>
</svg>