<?xml version="1.0" encoding="UTF-8"?>
<svg width="110px" height="158px" viewBox="0 0 110 158" version="1.1" xmlns="http://www.w3.org/2000/svg" xmlns:xlink="http://www.w3.org/1999/xlink">
    <!-- Generator: Sketch 48.1 (47250) - http://www.bohemiancoding.com/sketch -->
    <title>Artboard</title>
    <desc>Created with Sketch.</desc>
    <defs></defs>
    <g id="Page-1" stroke="none" stroke-width="1" fill="none" fill-rule="evenodd" opacity="0.846071105">
        <g id="Onboarding" transform="translate(-105.000000, -43.000000)" fill="#54759D" fill-rule="nonzero">
            <g id="iOS---Androdi-final-">
                <g id="Group-4-Copy">
                    <g id="Group" transform="translate(121.844530, 121.348807) rotate(45.000000) translate(-121.844530, -121.348807) translate(44.344530, 27.848807)">
                        <path d="M94.827113,115.071529 C94.8249594,115.020528 94.8217287,114.968464 94.8195751,114.917462 C94.5299028,114.93765 94.2402305,114.950401 93.951635,114.980152 C90.9504581,115.296786 87.9482041,115.311661 84.9502576,114.970589 C80.1539739,114.425511 75.5224481,113.183415 71.2775109,110.439964 C69.4124092,109.233993 67.7454474,107.747515 66.5178401,105.680895 C66.390772,105.467327 66.1290977,105.329198 65.9051132,105.22932 C65.7026657,105.137942 65.4614516,105.165568 65.2439282,105.107129 C63.4326688,104.628991 61.6235632,104.142352 59.7875363,103.652526 C59.0229738,104.885061 58.9842072,106.66586 59.6916967,108.209715 C60.6716291,110.349649 62.2556733,111.774501 64.0120133,112.950721 C68.0297355,115.637858 72.457737,116.80239 77.0235751,117.337904 C80.9756094,117.801167 84.9233364,117.660914 88.8441422,116.877829 C90.8826166,116.470881 92.8877087,115.908803 94.827113,115.071529 M57.1858701,79.5118592 C57.009267,79.5872987 56.9457329,79.6064242 56.8886599,79.6393626 C55.038634,80.719955 53.3673649,82.0598046 52.093453,83.9829827 C50.8809215,85.8179709 50.7581608,87.9164664 51.7413235,89.8917085 C52.4520437,91.3186855 53.4772035,92.3992778 54.6197399,93.3396163 C56.8369711,95.1629167 59.3244914,96.3285114 61.9272345,97.1838476 C65.5885198,98.3887559 69.3359529,98.896645 73.1372285,98.9147079 C77.6255334,98.934896 82.0244599,98.2750653 86.2855499,96.5941438 C86.4266171,96.5388922 86.5601462,96.4549524 86.696906,96.383763 C86.5181492,96.2636972 86.3824662,96.2541344 86.2478602,96.2658222 C85.1451672,96.3571998 84.0446279,96.474078 82.9408581,96.5410173 C80.0139836,96.7195223 77.0978776,96.4645153 74.2119233,95.9491885 C70.9813776,95.3711725 67.8283648,94.4095834 64.8519552,92.7924137 C62.7101034,91.6300066 60.7254715,90.2104673 59.1511188,88.1406601 C58.0247351,86.6594942 57.2537115,84.96901 57.1923311,82.9523293 C57.1578721,81.8441111 57.1858701,80.7337679 57.1858701,79.5118592 M76.5454543,105.76696 C76.5314553,105.844525 76.5174562,105.924214 76.5023804,106.001779 C78.2576435,106.488417 79.9989078,107.058996 81.7703237,107.445756 C85.6082122,108.283029 89.4837902,108.453034 93.3776748,108.070524 C97.1660282,107.698638 100.861773,106.864553 104.383068,105.164506 C106.52815,104.126414 108.535396,102.826941 110.158207,100.860199 C110.977688,99.8688594 111.618413,98.7500158 111.832706,97.3719153 C112.099765,95.6654931 111.513959,94.250204 110.61156,92.9868565 C108.967212,90.6843554 106.76398,89.3020047 104.441217,88.1215346 C104.080473,87.9377171 103.897409,88.028032 103.655118,88.3361655 C103.298681,88.7909281 102.901324,89.2063771 102.497506,89.6069507 C101.14283,90.9521129 99.6018597,91.9562031 97.9952017,92.8466027 C97.7841393,92.963481 97.5633853,93.2663018 97.5116965,93.5266215 C97.1627977,95.2691696 96.3454695,96.6918965 95.2901579,97.9520563 C93.5855066,99.9899877 91.4899592,101.371276 89.2576521,102.465681 C86.2080167,103.958535 83.0151607,104.873373 79.7264651,105.343011 C78.6668461,105.492827 77.6050733,105.625643 76.5454543,105.76696 M81.4795746,89.4465087 C82.6371868,89.4465087 83.7969528,89.5102605 84.9502576,89.4337584 C87.7349882,89.2478157 90.4701836,88.6889253 93.1450755,87.7783377 C95.9610346,86.8220612 98.6380802,85.5257754 100.947921,83.3815911 C101.979541,82.4242521 102.872249,81.3224092 103.410673,79.9071201 C104.173082,77.9074398 103.677732,75.6346894 102.163683,73.7975761 C100.45257,71.7203312 98.3505617,70.3358555 96.0837953,69.2733261 C92.0090002,67.3628984 87.7339113,66.5001245 83.3532911,66.3333074 C77.2787882,66.1006134 71.3475061,66.898573 65.757585,69.8587798 C63.6405006,70.9808108 61.6914046,72.3939749 60.2635034,74.5849105 C59.1672715,76.2668945 58.8323716,78.0955075 59.6184711,80.0633119 C60.1622797,81.4233495 61.0474492,82.4869413 62.0543027,83.4145295 C64.5687441,85.731906 67.4945418,87.0706931 70.5614066,88.0248444 C74.1322365,89.1351876 77.7805996,89.6143884 81.4795746,89.4465087 M58.3510202,114.839898 C57.5627671,113.487298 57.1546414,111.993382 57.1567952,110.357087 C57.1589488,108.926922 57.0964916,107.491445 57.1783322,106.067656 C57.2332514,105.091191 57.4486211,104.118977 57.6661446,103.166951 C57.7576767,102.768502 57.7070648,102.638873 57.4012398,102.450806 C56.0659475,101.628408 54.7101951,100.837886 53.4395138,99.8964851 C51.9006972,98.7553285 50.6278621,97.2603497 49.7954581,95.3584221 C49.4594814,94.5912759 49.2807245,93.7306272 49.0298187,92.913542 L49.0298187,86.2376701 C49.0718158,86.1133541 49.1288889,85.9922258 49.1525795,85.8636597 C49.5025553,83.9702324 50.4060313,82.4433777 51.5614898,81.0950279 C53.0583094,79.3492922 54.8641845,78.1178206 56.7777444,77.0818545 C57.0878768,76.9129123 57.2687874,76.7078442 57.3420131,76.3178959 C57.6316854,74.7889161 58.3101,73.4883802 59.2049612,72.3323482 C61.0722167,69.9204065 63.4488216,68.3733638 66.0041833,67.1652679 C69.2982631,65.6075999 72.742025,64.7235753 76.277319,64.2964386 C77.1840255,64.1859355 78.0896552,64.0648072 78.9952848,63.947929 L83.9724791,63.947929 C84.1566202,63.9883051 84.3396845,64.0499317 84.5259793,64.0648072 C88.8021451,64.4069416 92.9792409,65.2856535 96.9625038,67.1642053 C99.3563383,68.2926116 101.587569,69.7355264 103.412827,71.8924611 C104.953797,73.7136364 105.861581,75.8429452 105.815276,78.4408296 C105.793739,79.6914266 105.87558,80.9483989 105.791585,82.1915582 C105.71836,83.2657754 105.512682,84.33468 105.291928,85.3865841 C105.210087,85.7754697 105.28439,85.9008483 105.550371,86.0697904 C106.950275,86.9580649 108.378176,87.7964006 109.722083,88.7877405 C111.054145,89.7705802 112.174067,91.066866 112.928938,92.6808481 C113.363985,93.6105613 113.60843,94.6592778 113.937945,95.6548678 L113.937945,102.210674 C113.90887,102.280801 113.86472,102.348803 113.851797,102.424242 C113.407059,105.092254 112.025462,107.072808 110.194819,108.618789 C108.938137,109.680256 107.527465,110.497341 106.197557,111.445117 C105.980034,111.599184 105.757126,111.82444 105.646211,112.079447 C105.254238,112.976222 104.894571,113.893185 104.558594,114.81971 C104.482138,115.031153 104.380914,114.859024 104.482138,115.031153 C99.0322068,123.224317 88.7902998,124.551417 81.0649878,124.477039 C69.463021,124.364412 60.4702583,119.278083 58.3510202,114.839898" id="Fill-1" transform="translate(81.483882, 94.213917) rotate(-45.000000) translate(-81.483882, -94.213917) "></path>
                        <path d="M153.626717,85.1044062 C154.551505,93.3075974 154.145877,101.62384 152.245596,109.665529 C150.720081,116.123429 148.59384,122.412291 145.153716,128.352311 C133.694718,148.132994 116.688092,160.83023 94.2418588,166.406332 C90.5812844,167.315046 89.4613976,168.600597 89.6113037,172.077183 C89.8560034,177.737267 89.6774388,183.415653 89.6774388,186.964376 C80.7359813,179.42657 70.9259502,171.158778 60.7411539,162.572291 C70.7010911,152.376173 79.6414463,143.22443 89.4073874,133.227497 L89.4073874,153.217057 C109.107914,152.655032 132.181327,131.702925 138.531393,109.034597 C145.211033,85.1862335 136.638829,54.3028713 104.278954,37.5756395 L113.344965,27.6228505 C122.325002,32.2159485 129.896362,38.2108781 136.27178,45.6959267 C146.023391,57.1452948 151.9535,70.1999861 153.622307,85.0613392 C153.623409,85.075336 153.625614,85.0893327 153.626717,85.1044062" id="Fill-3"></path>
                        <path d="M53.5467155,152.856399 C53.1608059,153.469646 52.872203,154.134716 52.4033614,154.639997 C49.9353088,157.300277 47.4230259,159.919531 44.5701694,162.929621 C29.7496904,156.134245 18.3692257,145.861287 10.2850265,132.110746 C-15.9291863,87.5186595 11.9337122,29.9954932 63.9596417,21.4510697 C68.1902732,20.7557691 69.435357,19.1136074 69.1987247,15.1447799 C68.881372,9.83501561 69.1202159,4.49394119 69.1202159,0.0273907899 C78.5412769,8.45521106 88.0906059,16.9985549 98.0855555,25.9381337 C87.8595024,35.0137494 78.2261357,43.5624916 69.467424,51.3349586 L69.467424,34.9597665 C51.7432236,34.2849795 25.2824268,51.6426616 17.0566905,75.7395769 C8.59985078,100.516677 16.2472754,136.040706 53.5467155,152.856399" id="Fill-6"></path>
                    </g>
                </g>
            </g>
        </g>
    </g>
</svg>