<?xml version="1.0" encoding="UTF-8"?>
<svg width="141px" height="141px" viewBox="0 0 141 141" version="1.1" xmlns="http://www.w3.org/2000/svg" xmlns:xlink="http://www.w3.org/1999/xlink">
    <!-- Generator: Sketch 47.1 (45422) - http://www.bohemiancoding.com/sketch -->
    <title>Slice 5</title>
    <desc>Created with Sketch.</desc>
    <defs></defs>
    <g id="iOS---Androdi-final-" stroke="none" stroke-width="1" fill="none" fill-rule="evenodd">
        <path d="M64.5724457,63.1846152 C65.4423941,62.8122166 66.3418078,62.562218 67.2561955,62.3812172 C69.0149308,62.0329205 70.785742,61.970539 72.5584853,62.176587 C74.6065593,62.4147709 76.5928047,62.9327263 78.3950133,64.127899 C79.1828455,64.6510529 79.8933919,65.2847921 80.332955,66.2365824 C80.6503099,66.9232515 80.6329206,67.7153074 80.2899648,68.2635084 C79.4663878,68.0456457 78.6548868,67.8292009 77.8424197,67.6165367 C77.7448464,67.5905444 77.6366462,67.6028316 77.5458354,67.5621892 C77.4453638,67.517766 77.327986,67.4563297 77.2709877,67.3613397 C76.7203263,66.4421578 75.9725861,65.7810085 75.1359672,65.2446222 C73.2318379,64.0244024 71.1542987,63.4719481 69.0028549,63.229511 C67.6580818,63.0778105 66.3113765,63.0844267 64.9651542,63.2252577 C64.8357005,63.2384901 64.7057637,63.2441612 64.575827,63.2531403 C64.5748609,63.2304561 64.5734118,63.2072994 64.5724457,63.1846152 Z M81.4569805,79.0006864 C81.4569805,78.4572113 81.4695395,77.9633578 81.4540823,77.4704495 C81.4265492,76.5734793 81.0806952,75.8215933 80.5754392,75.1628069 C79.8692401,74.2422073 78.9790042,73.610831 78.0182449,73.0938207 C76.6831325,72.3745432 75.2688021,71.9468519 73.8196932,71.6897646 C72.5251558,71.4605598 71.2170934,71.3471389 69.9042007,71.4265336 C69.4090885,71.4563066 68.9154253,71.5082911 68.4207961,71.5489336 C68.3604166,71.5541321 68.299554,71.5498788 68.21937,71.4964765 C68.2807156,71.4648131 68.3406121,71.4274788 68.4038899,71.4029042 C70.3152646,70.6552715 72.288468,70.3617949 74.3017634,70.3707741 C76.0068817,70.3788081 77.6878481,70.6047047 79.3301716,71.1406184 C80.4976704,71.521051 81.6134843,72.039479 82.6080561,72.8504384 C83.1205576,73.2686779 83.5804082,73.749299 83.8992122,74.3839834 C84.3402244,75.2625228 84.2851582,76.1958822 83.7412593,77.0120401 C83.1698274,77.8674227 82.420155,78.4633549 81.5902986,78.943976 C81.5646976,78.9586262 81.5361985,78.9671328 81.4569805,79.0006864 Z M72.7729534,67.3230601 C72.2976457,67.3859142 71.8213719,67.4449876 71.3460641,67.5116223 C69.8708712,67.7205058 68.4386685,68.1274033 67.0707096,68.7913881 C66.0693753,69.2781528 65.1293866,69.892516 64.3647401,70.798938 C63.8913645,71.3594262 63.5247399,71.9922203 63.3682361,72.7672631 C63.3450504,72.8830469 63.2460279,73.0177342 63.1513528,73.0697188 C62.4306626,73.4657468 61.7394376,73.9123415 61.1317779,74.5106368 C60.9506393,74.6888021 60.7723989,74.8735836 60.6125139,75.0758509 C60.5038307,75.2129011 60.4217145,75.253071 60.2598974,75.1713135 C59.217988,74.6462692 58.2296957,74.0314335 57.4920992,73.0073373 C57.0873148,72.4454313 56.824543,71.8159453 56.944336,71.0569705 C57.0404602,70.4440251 57.3278669,69.9463909 57.6954575,69.5054672 C58.4233933,68.6307085 59.323773,68.0527345 60.2859813,67.591017 C61.8655101,66.8348777 63.5232908,66.4638968 65.2226126,66.2984914 C66.969272,66.12836 68.7077197,66.2039739 70.4292612,66.5763725 C71.2238559,66.7483942 72.0049257,67.0021735 72.7922749,67.2186184 C72.7855124,67.2531172 72.7792329,67.2885613 72.7729534,67.3230601 Z M70.559681,74.5819974 C72.2189108,74.5073286 73.8554378,74.7204654 75.4571863,75.2143189 C76.8328738,75.6387021 78.1452835,76.2341618 79.2731733,77.2648742 C79.7248123,77.6774427 80.1218681,78.1505023 80.3658015,78.7554138 C80.718418,79.630645 80.5681937,80.4439673 80.0764627,81.1920727 C79.4359565,82.1665472 78.5616608,82.795088 77.6120114,83.2941399 C75.1045698,84.6107675 72.4440057,84.9656804 69.7191978,84.8621838 C67.754206,84.7879876 65.8365518,84.4042469 64.0087423,83.5545354 C62.9919508,83.0819483 62.0490639,82.4661674 61.2815192,81.5422597 C60.6023701,80.7251566 60.3801734,79.7142929 60.7221631,78.8248841 C60.9636813,78.1953981 61.3641184,77.7053253 61.8268672,77.2795244 C62.8629801,76.3258437 64.0638085,75.7492874 65.3269484,75.3239591 C66.5268107,74.918952 67.753723,74.6703712 69.0028549,74.5876684 C69.5201868,74.5536422 70.0404169,74.5819974 70.559681,74.5819974 Z M80.9343352,63.2876392 C81.2879178,63.8892425 81.4709886,64.5536999 81.4700225,65.281484 C81.4690564,65.9175862 81.4970725,66.5560513 81.4603618,67.189318 C81.4357269,67.6236255 81.3391197,68.0560426 81.2415463,68.4794806 C81.2004882,68.6567008 81.223191,68.7143564 81.3603733,68.7980043 C81.9593383,69.1637867 82.5674811,69.5153915 83.1374639,69.9341036 C83.8277228,70.4416621 84.3986718,71.1065921 84.7720589,71.952523 C84.9227662,72.2937308 85.0029502,72.6765264 85.1154977,73.0399458 L85.1154977,76.0092103 C85.0966593,76.064503 85.0710583,76.1183779 85.0604315,76.175561 C84.9034447,77.0177111 84.4981773,77.6968187 83.9798793,78.2965317 C83.3084588,79.0729923 82.4984069,79.6207207 81.6400513,80.0814931 C81.5009368,80.1566344 81.4197867,80.2478437 81.3869403,80.4212832 C81.2570035,81.1013359 80.9526906,81.6797825 80.5512874,82.1939572 C79.7137024,83.2667299 78.6476413,83.9548166 77.501396,84.4921481 C76.0237879,85.1849607 74.4790377,85.5781532 72.8932295,85.7681332 C72.4865129,85.8172822 72.0802793,85.8711572 71.6740458,85.9231417 L69.4414519,85.9231417 C69.3588527,85.9051834 69.2767365,85.8777734 69.1931712,85.8711572 C67.275034,85.7189841 65.401336,85.3281546 63.6145847,84.4926207 C62.5407949,83.9907332 61.5399436,83.34896 60.7211971,82.3896083 C60.0299721,81.579594 59.6227725,80.6325296 59.643543,79.4770542 C59.6532037,78.9208192 59.616493,78.3617487 59.6541698,77.8088219 C59.6870163,77.3310363 59.7792762,76.8556138 59.8782987,76.3877526 C59.9150094,76.2147857 59.8816799,76.1590204 59.76237,76.0838791 C59.1344227,75.6887963 58.4939166,75.3159251 57.8910872,74.8750014 C57.2935713,74.4378583 56.7912135,73.8613021 56.452605,73.1434424 C56.2574584,72.7299287 56.1478091,72.2634853 56,71.8206712 L56,68.904809 C56.013042,68.8736183 56.0328465,68.8433727 56.0386429,68.809819 C56.2381369,67.6231529 56.8578725,66.7422506 57.6790343,66.0546364 C58.2427377,65.582522 58.8755153,65.2191025 59.4720651,64.7975548 C59.5696385,64.7290297 59.669627,64.6288413 59.7193797,64.5154204 C59.8952049,64.1165569 60.0565391,63.7087142 60.2072464,63.2966183 C60.241542,63.2025735 60.2869474,63.2791326 60.241542,63.2025735 C62.6861888,59.5584547 67.2803474,58.9681934 70.74565,59.0012745 C75.9498834,59.0513687 79.9837197,61.313643 80.9343352,63.2876392 Z" id="Fill-1-Copy" fill="#004A7C" transform="translate(70.557749, 72.461571) scale(1, -1) translate(-70.557749, -72.461571) "></path>
        <path d="M38.2083513,73.7095717 C37.8030838,70.1089309 37.9808412,66.4586684 38.8135958,62.9289156 C39.4821181,60.0943384 40.4138952,57.3339574 41.9214516,54.7266945 C46.9430972,46.044325 54.3958647,40.4711058 64.2324165,38.0235774 C65.8365801,37.6247139 66.327345,37.060445 66.2616521,35.5344613 C66.154418,33.0500711 66.2326699,30.557647 66.2326699,29 C70.1510606,32.308582 74.4500839,35.9375781 78.9133396,39.7064599 C74.5486233,44.1818594 70.6307157,48.1988494 66.3510138,52.5868203 L66.3510138,43.8127689 C57.7177055,44.0594594 47.6063061,53.2560036 44.8235338,63.2058516 C41.8963337,73.6736551 45.6529072,87.2293424 59.8338877,94.571455 L55.8609139,98.9400498 C51.9256169,96.9239934 48.6076404,94.2926287 45.8137583,91.0072034 C41.5403359,85.9817126 38.9416004,80.2515944 38.2102835,73.7284752 C38.2098004,73.7223316 38.2088343,73.7161879 38.2083513,73.7095717 Z" id="Fill-3-Copy" fill="#004A7C"></path>
        <path d="M83.4562202,47.4092373 C83.6247999,47.1408078 83.7508724,46.8496942 83.9556798,46.6285235 C85.0338169,45.4640689 86.1312754,44.3175727 87.3775091,43 C93.851645,45.974463 98.8230549,50.4711289 102.354534,56.4899977 C113.805876,76.0087886 101.634326,101.187755 78.9074671,104.927809 C77.0593702,105.232155 76.5154712,105.95096 76.618841,107.68819 C76.7574724,110.012373 76.6531366,112.350261 76.6531366,114.305354 C72.5376671,110.616339 68.3661654,106.876758 64,102.963737 C68.46712,98.9911701 72.6753324,95.2492257 76.5014632,91.8470714 L76.5014632,99.0147994 C84.2440525,99.3101663 95.8031118,91.7123841 99.396419,81.1647135 C103.090681,70.319313 99.7500016,54.7697808 83.4562202,47.4092373 Z" id="Fill-6-Copy" fill="#004A7C"></path>
        <circle id="Oval-2-Copy-3" stroke="#004A7C" cx="70.5" cy="70.5" r="69.5"></circle>
    </g>
</svg>