<?xml version="1.0" encoding="UTF-8" standalone="no"?>
<svg width="80px" height="75px" viewBox="0 0 80 75" version="1.1" xmlns="http://www.w3.org/2000/svg" xmlns:xlink="http://www.w3.org/1999/xlink">
    <!-- Generator: Sketch 41.2 (35397) - http://www.bohemiancoding.com/sketch -->
    <title>fingerprint</title>
    <desc>Created with Sketch.</desc>
    <defs></defs>
    <g id="Feedback" stroke="none" stroke-width="1" fill="none" fill-rule="evenodd">
        <g id="fingerprint" stroke-width="3" stroke="#FFFFFF">
            <g transform="translate(11.000000, 1.000000)" id="layers">
                <g>
                    <path d="M2.59421488,12.5490476 C8.51172717,5.72788915 18.2560171,1.0591328 27.2392562,0.43452381 C41.4469063,-0.43452381 52.550146,8.08214286 54.0461433,9.55952381" id="Shape"></path>
                    <path d="M0,26.1426803 C1.51329201,23.6050613 10.3768595,9.25708507 25.4146584,7.9708946 C40.9799477,6.64125174 48.8577135,13.9047619 51.8842975,19.1190476 C54.9108815,24.3333333 56.277168,28.5255987 56.277168,34.9026803 C56.277168,41.2797619 54.1153223,46.6348232 54.1153223,46.6348232" id="Shape"></path>
                    <path d="M0.91662259,36.0654762 C2.94519015,34.5448803 4.79340993,32.7953385 6.42500551,30.8511905 C9.25269972,27.4792857 9.62453719,25.6369048 11.4923719,23.2122619 C15.7122948,17.6938095 22.1891846,16.0339286 23.1663388,15.7992857 C32.1769118,13.6179762 39.4407135,18.5020238 40.0200882,18.9017857 C45.5144545,22.7703216 48.8928927,28.9982064 49.1517245,35.7352381 C49.2554931,41.9663095 44.9490964,45.5294048 46.2634986,51.2738095 C47.1086187,54.5398843 49.9290966,56.4296602 52.4636722,58.6433333" id="Shape"></path>
                    <path d="M0.700438017,46.4679762 C4.49194218,43.8020074 7.80495433,40.5077494 10.4979229,36.7259524 C14.0779394,31.6507143 14.3978926,28.5742857 18.427573,25.6542857 C21.1906431,23.585632 24.5644436,22.5084696 28.0088733,22.5952381 C32.7605573,22.8643799 37.114178,25.3494054 39.7779614,29.3129762 C45.1306915,37.7775 35.4110331,48.1365476 40.6426997,58.2261905 C42.1796764,61.0640363 43.9747422,62.5888375 46.6958678,64.3095238" id="Shape"></path>
                    <path d="M1.29710744,55.6190476 C10.6795179,49.4922619 14.6313719,43.8608333 17.7703719,39.1592857 C20.2954077,35.3702381 22.4831956,30.9815476 26.6858237,30.4166667 C29.9959607,30.043445 33.2061167,31.701044 34.8316584,34.6228571 C35.9644656,36.9519048 35.523449,39.9153571 32.9551763,44.695119 C27.5592094,54.75 18.8512948,62.2238095 10.8092287,67.7857143" id="Shape"></path>
                    <path d="M9.07975207,58.2261905 C10.3768595,58.2261905 19.0242424,51.2738095 23.3479339,45.625 C27.6716253,39.9761905 29.4011019,37.3690476 29.4011019,36.0654762" id="Shape"></path>
                    <path d="M33.2924242,54.75 C32.2377111,57.2721716 32.5965513,59.3181365 33.2924242,61.9630952 C34.2419914,65.238973 36.7843416,67.0451781 39.7779614,68.6547619" id="Shape"></path>
                    <path d="M17.0007548,70.7057143 C18.1607478,69.5230467 19.7838326,68.2296913 21.1860882,67.3511905 C22.5883437,66.4726897 24.4461515,65.4132143 25.9421488,65.6130952 C28.2337052,65.9172619 30.0064187,68.8111905 30.7673884,72.5654762" id="Shape"></path>
                </g>
            </g>
        </g>
    </g>
</svg>