<?xml version="1.0" encoding="UTF-8" standalone="no"?>
<svg width="60px" height="60px" viewBox="0 0 60 60" version="1.1" xmlns="http://www.w3.org/2000/svg" xmlns:xlink="http://www.w3.org/1999/xlink">
    <!-- Generator: Sketch 41.2 (35397) - http://www.bohemiancoding.com/sketch -->
    <title>help</title>
    <desc>Created with Sketch.</desc>
    <defs></defs>
    <g id="icons" stroke="none" stroke-width="1" fill="none" fill-rule="evenodd">
        <g id="help">
            <g id="Help">
                <g>
                    <g id="Layer_2">
                        <g id="Layer_1-2">
                            <path d="M29.7230769,3.56307692 C15.2753079,3.56307692 3.56307692,15.2753079 3.56307692,29.7230769 C3.56307692,44.170846 15.2753079,55.8830769 29.7230769,55.8830769 C44.170846,55.8830769 55.8830769,44.170846 55.8830769,29.7230769 C55.8830769,15.2753079 44.170846,3.56307692 29.7230769,3.56307692 L29.7230769,3.56307692 Z M29.1876923,48.7938462 C28.057376,48.8466511 27.0086397,48.2064545 26.5390048,47.1769662 C26.0693698,46.1474778 26.2733241,44.9358252 27.0541117,44.1168173 C27.8348993,43.2978093 29.0354299,43.036226 30.0861708,43.4561627 C31.1369117,43.8760993 31.8264595,44.893067 31.8276923,46.0246154 C31.8709798,46.7515567 31.6120675,47.464093 31.1122023,47.9936705 C30.6123371,48.5232479 29.9159202,48.8228261 29.1876923,48.8215385 L29.1876923,48.7938462 Z M30.9692308,36.5076923 L27.6276923,36.5076923 C27.6276923,27.5630769 35.6584615,27.8307692 35.6584615,20.5107692 C35.6584615,16.8184615 32.8892308,14.9723077 29.0307692,14.9723077 C25.1723077,14.9723077 22.5138462,16.9661538 22.2923077,20.9538462 L18.8953846,20.8430769 C19.1630769,14.6492308 23.2061538,11.1969231 29.4,11.1969231 C35.3261538,11.1969231 39.5538462,14.1046154 39.5538462,19.8738462 C39.5815385,28.7261538 30.9692308,28.6707692 30.9692308,36.5353846 L30.9692308,36.5076923 Z" id="Shape"></path>
                            <path d="M29.7230769,0 C13.3074748,-1.00516573e-15 2.01033146e-15,13.3074748 0,29.7230769 C-2.01033146e-15,46.138679 13.3074748,59.4461538 29.7230769,59.4461538 C46.138679,59.4461538 59.4461538,46.138679 59.4461538,29.7230769 C59.4461538,21.8400268 56.3146244,14.2798459 50.7404662,8.70568767 C45.166308,3.13152947 37.6061271,4.82697605e-16 29.7230769,0 Z M29.7230769,55.8830769 C15.2753079,55.8830769 3.56307692,44.170846 3.56307692,29.7230769 C3.56307692,15.2753079 15.2753079,3.56307692 29.7230769,3.56307692 C44.170846,3.56307692 55.8830769,15.2753079 55.8830769,29.7230769 C55.8830769,44.170846 44.170846,55.8830769 29.7230769,55.8830769 Z" id="Shape" fill="#3B3A3E"></path>
                            <path d="M29.4,11.2707692 C23.2061538,11.2707692 19.1630769,14.7230769 18.8953846,20.9169231 L22.2923077,21.0276923 C22.5046154,17.04 25.0615385,15.0461538 29.0307692,15.0461538 C33,15.0461538 35.6584615,16.8276923 35.6584615,20.5846154 C35.6584615,27.9138462 27.6276923,27.6461538 27.6276923,36.5815385 L30.9692308,36.5815385 C30.9692308,28.7169231 39.5907692,28.7723077 39.5907692,19.9661538 C39.5815385,14.1784615 35.3261538,11.2707692 29.4,11.2707692 Z" id="Shape" fill="#3B3A3E"></path>
                            <path d="M29.1876923,43.2184615 C28.057376,43.1656566 27.0086397,43.8058532 26.5390048,44.8353415 C26.0693698,45.8648298 26.2733241,47.0764825 27.0541117,47.8954904 C27.8348993,48.7144984 29.0354299,48.9760817 30.0861708,48.556145 C31.1369117,48.1362083 31.8264595,47.1192407 31.8276923,45.9876923 C31.8630917,45.2654105 31.600657,44.5602264 31.1016724,44.0368159 C30.6026877,43.5134055 29.9108406,43.2175946 29.1876923,43.2184615 L29.1876923,43.2184615 Z" id="Shape" fill="#3B3A3E"></path>
                        </g>
                    </g>
                </g>
            </g>
        </g>
    </g>
</svg>