<svg xmlns="http://www.w3.org/2000/svg" width="36" height="36" viewBox="0 0 36 36">
  <g fill="#E5E5E5" fill-rule="evenodd" transform="translate(0 6)">
    <path d="M31.4830209,0 L4.366783,0 C1.96484794,0 0,1.90228349 0,4.22773938 L0,19.5450929 C0,21.8705488 1.96484794,23.7735849 4.366783,23.7735849 L31.4830209,23.7735849 C33.8842526,23.7735849 35.8490566,21.8705488 35.8490566,19.5450929 L35.8490566,4.22773938 C35.8490566,1.90228349 33.8842526,0 31.4830209,0 L31.4830209,0 Z M9.91053176,15.212468 C9.6904716,15.1024024 9.56127528,14.9075519 9.44535466,14.7008358 C9.22973439,14.3178201 9.06435958,13.9147924 8.98756272,13.4790019 C8.96171466,13.3347124 8.94399907,13.1889619 8.92553617,13.0432113 C8.92109629,13.0030547 8.90856789,12.9851679 8.8664549,12.9792352 C8.7845148,12.9673254 8.70402536,12.9412922 8.6220413,12.9323931 C8.53271605,12.9227413 8.47438208,12.8736413 8.42787316,12.8029797 C8.32078836,12.6423531 8.27278482,12.4594123 8.23810095,12.2719998 C8.21075828,12.1210249 8.18789945,11.968589 8.22407794,11.8154004 C8.24698073,11.7172446 8.29274234,11.6354259 8.37912232,11.5789321 C8.43600563,11.5424502 8.48620713,11.4956081 8.54379378,11.4606758 C8.59324797,11.4316762 8.59918248,11.3989576 8.58586282,11.3453859 C8.50537337,11.0055375 8.41899339,10.6664417 8.3510763,10.3243353 C8.22851783,9.70635656 8.16574398,9.08169246 8.20042785,8.45105135 C8.22702321,7.96022803 8.31859039,7.48352817 8.53566132,7.03808586 C8.79409793,6.50710588 9.19949041,6.12931449 9.73034267,5.88611653 C10.1578906,5.69126596 10.1512528,5.71955715 10.6164299,5.67789517 C10.9036598,5.65186196 11.1746248,5.65633365 11.4611074,5.68236686 C11.6759804,5.70171466 11.8879081,5.73589431 12.0939013,5.8035895 C12.3722954,5.89505991 12.133069,5.90249797 12.2696505,6.17465122 C12.2991911,6.23415569 12.3708008,6.2207849 12.4328273,6.23118932 C12.6912639,6.27506502 12.9216545,6.35688366 13.158639,6.47881469 C13.4931252,6.65059843 13.7257137,6.91535789 13.8793074,7.25520633 C14.0144383,7.55418973 14.0779594,7.87172399 14.109698,8.19669631 C14.1620975,8.72767629 14.1126433,9.25272354 14.0321539,9.77626546 C13.9502138,10.3087065 13.8091924,10.825563 13.6408283,11.3357341 C13.6223654,11.3907669 13.6319486,11.4212718 13.6799521,11.4502714 C13.7301536,11.480732 13.7722666,11.5231467 13.8224681,11.5521462 C13.9782598,11.6436166 14.0350991,11.7886145 14.0321539,11.9574319 C14.0270106,12.2221913 13.9767652,12.4780074 13.8608445,12.7174863 C13.8379857,12.7635757 13.8113903,12.8119231 13.7744646,12.8453944 C13.7353408,12.881832 13.684392,12.9108316 13.6334432,12.9257077 C13.5477665,12.9509883 13.4584413,12.966617 13.3698194,12.9792352 C13.3262557,12.9851679 13.3166726,13.0052684 13.3122327,13.0446724 C13.2694164,13.4388452 13.1985101,13.8255357 13.046411,14.1943837 C12.9408208,14.4509525 12.8190096,14.6993305 12.6661632,14.932124 C12.5856737,15.0555604 12.4726984,15.1380874 12.3515906,15.2117153 C12.3147087,15.2340295 12.3006418,15.2600627 12.3013891,15.3039384 C12.303631,15.7836046 12.2991911,16.2632709 12.3050817,16.7421844 C12.3080269,16.9593492 12.3154121,17.177975 12.3493926,17.3914207 C12.3686028,17.511138 12.4365199,17.6271806 12.4977991,17.7364935 C12.7097268,18.1142849 13.0272447,18.3871908 13.3875789,18.6140073 C13.8564486,18.908519 14.3681346,19.1093023 14.8768754,19.3160184 C15.434323,19.5421265 15.9970018,19.7540669 16.5271507,20.0403879 C16.9731176,20.2813278 17.3865986,20.5646382 17.7203814,20.9543393 C17.9913464,21.2718736 18.1752281,21.4585334 18.2837635,21.7916965 L5.35103128,21.7916965 C4.91908739,21.7916965 4.51000233,21.7002261 4.13713972,21.5411047 C4.35275999,21.1000899 4.67172852,20.7453653 5.06305403,20.4538642 C5.55333188,20.0879826 6.10269101,19.8343802 6.66462248,19.603092 C7.17041796,19.3956233 7.6784114,19.192582 8.18051429,18.9761699 C8.56739992,18.8096105 8.93437199,18.6058166 9.25927503,18.332158 C9.55019754,18.0867464 9.77689555,17.7929873 9.90389391,17.430072 C9.93413789,17.343826 9.93119262,17.2434122 9.93343454,17.1489754 C9.94521563,16.7124322 9.95409541,16.2766859 9.96148057,15.8401427 C9.96517314,15.6638873 9.96073326,15.4876319 9.96222787,15.3113765 C9.96297518,15.2660397 9.9533481,15.2340295 9.91053176,15.212468 L9.91053176,15.212468 Z M33.6479715,18.8512283 C33.6479715,20.4687404 32.2811896,21.7916965 30.611748,21.7916965 L19.5847824,21.7916965 C19.3839324,21.069585 18.9992448,20.459797 18.4299281,19.9630409 C18.0349101,19.6194734 17.5940864,19.3443096 17.1208208,19.1278975 C16.6415767,18.9092717 16.1542441,18.7091968 15.6684062,18.5061997 C15.2150541,18.3165292 14.7543169,18.1447455 14.3341541,17.8837493 C14.1362934,17.7610214 13.9509611,17.6219562 13.8098957,17.4330827 C13.7441766,17.3460397 13.6696217,17.2597936 13.6666764,17.1407847 C13.6570493,16.6708145 13.6474662,16.2000474 13.6385864,15.7300772 C13.6385864,15.7099767 13.6452682,15.6839435 13.6577966,15.6690674 C13.8645371,15.4445089 14.0159329,15.1827158 14.1495691,14.9112709 C14.3319561,14.5402092 14.4729775,14.1534744 14.5571595,13.7466834 C14.5637974,13.7162228 14.5881508,13.6812462 14.6139989,13.6649091 C14.7993312,13.5525855 14.9455398,13.4009023 15.0503827,13.2127371 C15.2889057,12.7821709 15.3907594,12.3181334 15.3634606,11.8265575 C15.3508883,11.5863259 15.2704428,11.3677001 15.1360593,11.1706358 C15.105024,11.1252548 15.0968916,11.0888172 15.1116619,11.0360424 C15.2571232,10.5258712 15.3605154,10.006801 15.4195966,9.47878739 C15.4705455,9.02364904 15.4889644,8.56926335 15.4446974,8.1119113 C15.3959466,7.60399815 15.2785313,7.1161412 15.0260292,6.66848519 C14.8443895,6.34497391 14.6029211,6.07503437 14.2972283,5.86455502 C14.0063058,5.66452437 13.6851393,5.53883004 13.3417734,5.46374106 C13.3218598,5.45926937 13.3004077,5.44660696 13.287132,5.43102246 C13.0611813,5.16033026 12.7717534,4.98628854 12.446103,4.86657121 C12.0761857,4.73122511 11.691498,4.67619233 11.2994252,4.66277726 C11.2440365,4.66056356 11.1879445,4.65387816 11.1325558,4.64865381 L11.0247237,4.64865381 C10.9848526,4.65387816 10.9457288,4.66131622 10.9058578,4.66206888 C10.4539564,4.67619233 10.0087368,4.73640519 9.5708584,4.85315614 C9.04440207,4.9937266 8.5585641,5.2183294 8.13545603,5.56707695 C7.57945906,6.02668699 7.23020258,6.62013781 7.03673779,7.31249709 C6.92525705,7.71185 6.87430825,8.12010202 6.85733997,8.5350837 C6.83962438,8.96790788 6.86103255,9.39922673 6.92376244,9.82607389 C6.98359102,10.2388419 7.07146562,10.6463412 7.14531721,11.0568512 C7.14971314,11.0799181 7.14382259,11.1103787 7.13054689,11.1289738 C6.93413683,11.395947 6.85439469,11.6986494 6.86617578,12.0258354 C6.87650621,12.3091901 6.92969694,12.5865677 7.02346209,12.8542935 C7.14162463,13.1926809 7.32102245,13.4856873 7.63854033,13.6738082 C7.65775054,13.6857179 7.67546613,13.7132564 7.68060936,13.736279 C7.74707579,14.0553186 7.84897341,14.3624484 7.98260962,14.6599265 C8.14433581,15.0213365 8.32892082,15.368623 8.59768786,15.6638873 C8.61245818,15.6802245 8.62278861,15.7085157 8.62278861,15.7300772 C8.61320549,16.2023054 8.60287506,16.6745335 8.58810474,17.1467617 C8.58661012,17.1995365 8.56370734,17.2560746 8.53715593,17.3029167 C8.39314533,17.5587327 8.16868925,17.7312691 7.92577027,17.882244 C7.5780084,18.0986561 7.19995859,18.2540584 6.82261214,18.409505 C6.31092612,18.6206927 5.79554752,18.823734 5.29049935,19.0497979 C4.67836638,19.322748 4.10685178,19.6655628 3.62250843,20.1400047 C3.41871321,20.3400796 3.24445862,20.5594581 3.09306286,20.7951737 C2.61535736,20.2746424 2.31480777,19.5986203 2.31480777,18.8512283 L2.31480777,4.92160399 C2.31480777,3.30484455 3.68154574,1.98113576 5.35103128,1.98113576 L30.611748,1.98113576 C32.2811896,1.98113576 33.6479715,3.30484455 33.6479715,4.92160399 L33.6479715,18.8512283 Z"/>
    <path d="M31.2929141 8.30188679L19.7251207 8.30188679C19.5839433 8.30188679 19.245283 8.55527923 19.245283 8.86790221 19.245283 9.18056982 19.5839433 9.43396226 19.7251207 9.43396226L31.2929141 9.43396226C31.4340915 9.43396226 31.6981132 9.18056982 31.6981132 8.86790221 31.6981132 8.55527923 31.4340915 8.30188679 31.2929141 8.30188679M31.2519369 11.6981132L19.7251207 11.6981132C19.5839433 11.6981132 19.245283 11.9515056 19.245283 12.2641733 19.245283 12.5767962 19.5839433 12.8301887 19.7251207 12.8301887L31.2519369 12.8301887C31.3931143 12.8301887 31.6981132 12.5767962 31.6981132 12.2641733 31.6981132 11.9515056 31.3931143 11.6981132 31.2519369 11.6981132M31.2519369 15.0943396L19.7251207 15.0943396C19.5839433 15.0943396 19.245283 15.3477321 19.245283 15.6603997 19.245283 15.9730227 19.5839433 16.2264151 19.7251207 16.2264151L31.2519369 16.2264151C31.3931143 16.2264151 31.6981132 15.9730227 31.6981132 15.6603997 31.6981132 15.3477321 31.3931143 15.0943396 31.2519369 15.0943396"/>
  </g>
</svg>
