<svg xmlns="http://www.w3.org/2000/svg" width="22" height="22" viewBox="0 0 22 22">
  <path fill="#004A7C" fill-rule="evenodd" d="M349,39 C342.924868,39 338,34.0751322 338,28 C338,21.9248678 342.924868,17 349,17 C355.075132,17 360,21.9248678 360,28 C360,34.0751322 355.075132,39 349,39 Z M349,38 C354.522847,38 359,33.5228475 359,28 C359,22.4771525 354.522847,18 349,18 C343.477153,18 339,22.4771525 339,28 C339,33.5228475 343.477153,38 349,38 Z M348.5,27.5 L348.5,22.5 L349.5,22.5 L349.5,27.5 L354.5,27.5 L354.5,28.5 L349.5,28.5 L349.5,33.5 L348.5,33.5 L348.5,28.5 L343.5,28.5 L343.5,27.5 L348.5,27.5 Z" transform="translate(-338 -17)"/>
</svg>
