<svg xmlns="http://www.w3.org/2000/svg" width="166" height="110" viewBox="0 0 166 110">
  <g fill="#E5E5E5" fill-rule="evenodd">
    <path d="M145.671438,0 L20.2050356,0 C9.09132022,0 0,8.80183551 0,19.561683 L0,90.4348344 C0,101.194682 9.09132022,110 20.2050356,110 L145.671438,110 C156.781899,110 165.873016,101.194682 165.873016,90.4348344 L165.873016,19.561683 C165.873016,8.80183551 156.781899,0 145.671438,0 L145.671438,0 Z M45.8558731,70.387848 C44.8376583,69.8785764 44.239869,68.9770059 43.7035061,68.020534 C42.7058345,66.2483262 41.9406479,64.3835236 41.58531,62.3671277 C41.4657115,61.6995026 41.3837417,61.0251172 41.2983142,60.3507318 C41.2777709,60.1649276 41.2198022,60.0821658 41.0249461,60.0547151 C40.6458106,59.9996089 40.2733872,59.8791537 39.8940483,59.8379777 C39.4807417,59.7933191 39.2108314,59.566134 38.9956354,59.2391841 C38.5001557,58.4959671 38.2780441,57.6495029 38.1175623,56.7823481 C37.9910482,56.0837898 37.8852808,55.3784711 38.0526781,54.66967 C38.1586489,54.2155046 38.3703872,53.836931 38.770066,53.575535 C39.0332641,53.4067338 39.2655457,53.1899963 39.5319982,53.0283651 C39.760822,52.8941845 39.7882808,52.7427961 39.726651,52.4949205 C39.3542276,50.9224472 38.9545488,49.3534564 38.6402975,47.7705354 C38.0732214,44.9111578 37.7827678,42.0208469 37.9432495,39.1028805 C38.0663058,36.8318487 38.4899857,34.626166 39.4943694,32.5651116 C40.6901515,30.1082756 42.5658961,28.3602408 45.0221411,27.2349678 C47.0003987,26.3333973 46.9696855,26.4643001 49.1220525,26.2715308 C50.4510609,26.1510756 51.7048116,26.171766 53.0303622,26.2922213 C54.024576,26.3817432 55.005162,26.5398919 55.9582893,26.8531165 C57.2464144,27.2763486 56.1395177,27.3107644 56.771478,28.5700132 C56.9081621,28.8453394 57.2394989,28.783473 57.5264947,28.8316141 C58.7222768,29.0346262 59.7882904,29.4131998 60.8848138,29.9773727 C62.4324759,30.7722134 63.5086595,31.9972512 64.2193352,33.5697245 C64.8445834,34.953116 65.1384948,36.4223419 65.2853488,37.9259837 C65.5278003,40.3828197 65.2989765,42.8122049 64.9265531,45.2346251 C64.5474176,47.6982213 63.894914,50.0897082 63.1158962,52.4502619 C63.0304687,52.7048977 63.0748096,52.8460434 63.2969212,52.980224 C63.5292028,53.1211648 63.7240589,53.3174167 63.9563404,53.4515972 C64.6771861,53.8748294 64.9401809,54.5457322 64.9265531,55.3268475 C64.9027555,56.5518853 64.6702705,57.7355423 64.1339077,58.8436075 C64.0281402,59.0568624 63.9050839,59.280565 63.7342288,59.435436 C63.5532038,59.6040323 63.3174645,59.7382129 63.0817252,59.8070444 C62.6853008,59.9240171 62.2719942,59.9963312 61.8619421,60.0547151 C61.6603738,60.0821658 61.6160328,60.1751704 61.5954895,60.357492 C61.397379,62.1813235 61.0692966,63.9705343 60.3655364,65.6771882 C59.8769723,66.8643277 59.313354,68.0135689 58.606136,69.0907008 C58.2337126,69.6618389 57.7109775,70.0436902 57.1506136,70.3843654 C56.9799619,70.4876127 56.9148742,70.608068 56.918332,70.8110801 C56.9287054,73.0304881 56.9081621,75.2498962 56.9354175,77.4658217 C56.9490452,78.4706395 56.9832163,79.4822176 57.1404436,80.4698275 C57.2293289,81.0237577 57.5435802,81.5606848 57.8271183,82.0664739 C58.8077043,83.8145086 60.2768545,85.07724 61.9441152,86.1267164 C64.1135678,87.4894173 66.4811309,88.4184385 68.8350662,89.3749104 C71.4143676,90.4211091 74.0178734,91.4017539 76.470864,92.7265566 C78.5343457,93.841382 80.4475157,95.1522544 81.9919235,96.9553954 C83.2456743,98.4246214 84.0964918,99.2882936 84.5986837,100.829834 L24.7591368,100.829834 C22.7605393,100.829834 20.8677092,100.406602 19.1424798,99.6703497 C20.1401514,97.6297808 21.6160137,95.9884759 23.4266707,94.6397052 C25.6951785,92.9467766 28.2370544,91.7733624 30.8371024,90.7031956 C33.1774101,89.7432412 35.5278877,88.8037723 37.8511098,87.802437 C39.6412234,87.0317694 41.3391974,86.088818 42.8425186,84.8226042 C44.1886124,83.6870883 45.2375405,82.3278699 45.8251599,80.6486667 C45.9650983,80.2496075 45.9514706,79.7849945 45.961844,79.348037 C46.0163549,77.3281586 46.0574414,75.3119675 46.0916125,73.292089 C46.108698,72.476558 46.0881547,71.6610269 46.0950702,70.8454959 C46.098528,70.6357235 46.0539837,70.4876127 45.8558731,70.387848 L45.8558731,70.387848 Z M155.68863,87.2243339 C155.68863,94.7085367 149.364552,100.829834 141.640072,100.829834 L90.6184772,100.829834 C89.6891477,97.4886352 87.909204,94.6671558 85.274985,92.3686734 C83.4472426,90.7789922 81.4075585,89.5058132 79.217766,88.504478 C77.0003113,87.4928999 74.7454312,86.5671564 72.4974667,85.6278924 C70.3998139,84.7502901 68.2679901,83.9554494 66.3239035,82.7478243 C65.4084051,82.179964 64.5508754,81.5365118 63.8981684,80.6625969 C63.594087,80.2598503 63.2491225,79.8607912 63.2354948,79.3101387 C63.1909504,77.1355941 63.1466095,74.9573621 63.1055229,72.7828174 C63.1055229,72.6898129 63.1364395,72.5693577 63.1944082,72.5005261 C64.1509932,71.4614973 64.851499,70.2501848 65.4698316,68.9942138 C66.3137336,67.2773171 66.9662372,65.4879014 67.3557461,63.6056861 C67.3864593,63.4647452 67.4991423,63.3029091 67.6187409,63.2273173 C68.4762706,62.7075981 69.1527753,62.005762 69.6378817,61.1351248 C70.741524,59.1429018 71.2127993,56.9958079 71.0864886,54.7212936 C71.0283165,53.6097459 70.6560965,52.5981678 70.0343061,51.6863546 C69.8907065,51.4763773 69.8530777,51.307781 69.9214197,51.0635928 C70.5944666,48.7030391 71.0728608,46.3013094 71.3462289,43.8581988 C71.5819683,41.7522809 71.6671924,39.6498455 71.4623697,37.5336848 C71.2368003,35.1835788 70.6935219,32.9262724 69.5251987,30.8549751 C68.6847545,29.3580936 67.5674843,28.1090876 66.1530485,27.135203 C64.8069546,26.2096644 63.3209223,25.6280787 61.7321736,25.2806432 C61.6400339,25.2599527 61.5407752,25.201364 61.4793487,25.1292547 C60.4338784,23.8767662 59.0947001,23.0714779 57.5879212,22.5175478 C55.8763195,21.8913035 54.0963758,21.6366677 52.2822611,21.5745964 C52.0259785,21.5643536 51.7664415,21.5334204 51.5101589,21.5092474 L51.0112214,21.5092474 C50.8267386,21.5334204 50.6457136,21.5678361 50.4612308,21.5713187 C48.3702902,21.6366677 46.3102663,21.9152716 44.2842099,22.4554764 C41.8483048,23.1058937 39.6003403,24.1451273 37.6426259,25.7587767 C35.0700368,27.885385 33.4540326,30.6312725 32.5588741,33.834808 C32.0430545,35.6826076 31.8073152,37.5715831 31.7288032,39.4916968 C31.6468334,41.4943674 31.7458887,43.4900729 32.0361389,45.4650879 C32.3129648,47.3749588 32.7195592,49.2604518 33.0612693,51.1598751 C33.0816092,51.266605 33.0543538,51.4075458 32.9929273,51.4935852 C32.084141,52.7288659 31.7151755,54.1294652 31.7696864,55.6433497 C31.8174851,56.954427 32.0635978,58.2378488 32.4974476,59.476612 C33.0441838,61.0423251 33.8742547,62.3980609 35.3434049,63.2684934 C35.4322902,63.3235996 35.5142599,63.4510199 35.5380576,63.5575449 C35.8455967,65.033736 36.3170754,66.4548209 36.935408,67.8312472 C37.6837125,69.5034853 38.5377844,71.1103745 39.7813653,72.476558 C39.8497073,72.5521498 39.897506,72.6830526 39.897506,72.7828174 C39.8531651,74.9678097 39.8053663,77.152802 39.7370243,79.3377942 C39.7301087,79.5819824 39.6241379,79.8435833 39.501285,80.0603207 C38.8349502,81.2439777 37.7963955,82.0423009 36.6724132,82.7408592 C35.0633246,83.7421945 33.3140941,84.4612385 31.5681181,85.1804873 C29.200555,86.1576496 26.8159064,87.0971184 24.4790565,88.1431123 C21.646727,89.4060485 19.002338,90.9922471 16.761289,93.1874822 C15.8183317,94.1132257 15.0120585,95.1282863 14.3115528,96.2189387 C12.101217,93.8104488 10.7105788,90.6825051 10.7105788,87.2243339 L10.7105788,22.7721836 C10.7105788,15.2914633 17.0344537,9.16668374 24.7591368,9.16668374 L141.640072,9.16668374 C149.364552,9.16668374 155.68863,15.2914633 155.68863,22.7721836 L155.68863,87.2243339 Z"/>
    <path d="M144.791817 38.4126984L91.2678203 38.4126984C90.6145947 38.4126984 89.047619 39.5851412 89.047619 41.0316428 89.047619 42.4783509 90.6145947 43.6507937 91.2678203 43.6507937L144.791817 43.6507937C145.445042 43.6507937 146.666667 42.4783509 146.666667 41.0316428 146.666667 39.5851412 145.445042 38.4126984 144.791817 38.4126984M144.602216 54.1269841L91.2678203 54.1269841C90.6145947 54.1269841 89.047619 55.2994269 89.047619 56.746135 89.047619 58.1926366 90.6145947 59.3650794 91.2678203 59.3650794L144.602216 59.3650794C145.255442 59.3650794 146.666667 58.1926366 146.666667 56.746135 146.666667 55.2994269 145.255442 54.1269841 144.602216 54.1269841M144.602216 69.8412698L91.2678203 69.8412698C90.6145947 69.8412698 89.047619 71.0137126 89.047619 72.4604207 89.047619 73.9069223 90.6145947 75.0793651 91.2678203 75.0793651L144.602216 75.0793651C145.255442 75.0793651 146.666667 73.9069223 146.666667 72.4604207 146.666667 71.0137126 145.255442 69.8412698 144.602216 69.8412698"/>
  </g>
</svg>
