<?xml version="1.0" encoding="UTF-8" standalone="no"?>
<svg width="50px" height="50px" viewBox="0 0 50 50" version="1.1" xmlns="http://www.w3.org/2000/svg" xmlns:xlink="http://www.w3.org/1999/xlink">
    <!-- Generator: Sketch 41.2 (35397) - http://www.bohemiancoding.com/sketch -->
    <title>bitcoin</title>
    <desc>Created with Sketch.</desc>
    <defs></defs>
    <g id="iOS" stroke="none" stroke-width="1" fill="none" fill-rule="evenodd">
        <g id="bitcoin">
            <g transform="translate(4.000000, 4.000000)" id="Layer_2">
                <g>
                    <g>
                        <g id="Layer_1-2">
                            <path d="M22.68,21.7107692 L15.8372308,21.7107692 L15.8372308,29.6843077 L22.68,29.6843077 C26.376,29.6843077 28.4953846,28.224 28.4953846,25.6329231 C28.5147692,23.1710769 26.376,21.7107692 22.68,21.7107692 Z" id="Shape"></path>
                            <path d="M27.5132308,15.5464615 C27.5132308,13.2461538 25.7298462,11.9473846 22.68,11.9473846 L15.8372308,11.9473846 L15.8372308,19.2424615 L22.68,19.2424615 C25.7298462,19.2424615 27.5132308,17.9178462 27.5132308,15.5464615 Z" id="Shape"></path>
                            <path d="M20.8061538,2.49415385 C10.6927155,2.49415385 2.49415385,10.6927155 2.49415385,20.8061538 C2.49415385,30.9195922 10.6927155,39.1181538 20.8061538,39.1181538 C30.9195922,39.1181538 39.1181538,30.9195922 39.1181538,20.8061538 C39.1181538,10.6927155 30.9195922,2.49415385 20.8061538,2.49415385 L20.8061538,2.49415385 Z M24.5538462,32.0686154 L24.5538462,35.4027692 L22.3116923,35.4027692 L22.3116923,32.172 L19.3264615,32.172 L19.3264615,35.4027692 L17.1166154,35.4027692 L17.1166154,32.172 L13.2396923,32.172 L13.2396923,9.45323077 L17.1166154,9.45323077 L17.1166154,6.22246154 L19.3264615,6.22246154 L19.3264615,9.45323077 L22.3116923,9.45323077 L22.3116923,6.22246154 L24.5538462,6.22246154 L24.5538462,9.56307692 C28.0883077,10.0347692 30.1689231,12.0313846 30.1689231,15.1264615 C30.294323,17.6534059 28.4889977,19.8661152 25.9883077,20.2504615 C29.2643077,20.7350769 31.1575385,22.8738462 31.1575385,25.9883077 C31.1446154,29.4387692 28.7021538,31.6615385 24.5538462,32.0686154 Z" id="Shape"></path>
                            <path d="M25.956,20.2504615 C28.45669,19.8661152 30.2620153,17.6534059 30.1366154,15.1264615 C30.1366154,12.0313846 28.056,10.0347692 24.5215385,9.56307692 L24.5215385,6.20953846 L22.3116923,6.20953846 L22.3116923,9.44030769 L19.3264615,9.44030769 L19.3264615,6.20953846 L17.1166154,6.20953846 L17.1166154,9.44030769 L13.2396923,9.44030769 L13.2396923,32.1526154 L17.1166154,32.1526154 L17.1166154,35.3833846 L19.3264615,35.3833846 L19.3264615,32.1526154 L22.3116923,32.1526154 L22.3116923,35.3833846 L24.5538462,35.3833846 L24.5538462,32.0686154 C28.7021538,31.6615385 31.1446154,29.4387692 31.1446154,25.9883077 C31.1446154,22.8738462 29.232,20.7350769 25.956,20.2504615 Z M15.8372308,11.9473846 L22.68,11.9473846 C25.7298462,11.9473846 27.5132308,13.2396923 27.5132308,15.5464615 C27.5132308,17.8532308 25.7298462,19.2424615 22.68,19.2424615 L15.8372308,19.2424615 L15.8372308,11.9473846 Z M22.68,29.6843077 L15.8372308,29.6843077 L15.8372308,21.7107692 L22.68,21.7107692 C26.376,21.7107692 28.4953846,23.1710769 28.4953846,25.6329231 C28.5147692,28.2304615 26.376,29.6843077 22.68,29.6843077 Z" id="Shape" fill="#10ADE4"></path>
                            <path d="M20.8061538,0 C9.31523237,-7.0361601e-16 1.40723202e-15,9.31523237 0,20.8061538 C-1.40723202e-15,32.2970753 9.31523237,41.6123077 20.8061538,41.6123077 C32.2970753,41.6123077 41.6123077,32.2970753 41.6123077,20.8061538 C41.6123077,15.2880188 39.4202371,9.99589211 35.5183263,6.09398137 C31.6164156,2.19207063 26.3242889,3.37888324e-16 20.8061538,0 Z M20.8061538,39.1181538 C10.6927155,39.1181538 2.49415385,30.9195922 2.49415385,20.8061538 C2.49415385,10.6927155 10.6927155,2.49415385 20.8061538,2.49415385 C30.9195922,2.49415385 39.1181538,10.6927155 39.1181538,20.8061538 C39.1181538,30.9195922 30.9195922,39.1181538 20.8061538,39.1181538 Z" id="Shape" fill="#10ADE4"></path>
                        </g>
                    </g>
                </g>
            </g>
        </g>
    </g>
</svg>