<?xml version="1.0" encoding="UTF-8" standalone="no"?>
<svg width="375px" height="255px" viewBox="0 0 375 255" version="1.1" xmlns="http://www.w3.org/2000/svg" xmlns:xlink="http://www.w3.org/1999/xlink">
    <!-- Generator: Sketch 41.2 (35397) - http://www.bohemiancoding.com/sketch -->
    <title>keypad</title>
    <desc>Created with Sketch.</desc>
    <defs></defs>
    <g id="iOS" stroke="none" stroke-width="1" fill="none" fill-rule="evenodd">
        <g id="PIN" transform="translate(0.000000, -412.000000)">
            <g id="keypad" transform="translate(0.000000, 412.000000)">
                <rect id="Rectangle-2" fill="#004A7C" x="0" y="0" width="375" height="255"></rect>
                <g id="Group" transform="translate(65.000000, 20.000000)" fill="#FFFFFF">
                    <g id="Group-4" font-size="25" font-family="Montserrat-Regular, Montserrat" font-weight="normal">
                        <text id="1">
                            <tspan x="0.25" y="25">1</tspan>
                        </text>
                        <text id="2">
                            <tspan x="114" y="25">2</tspan>
                        </text>
                        <text id="3">
                            <tspan x="229.25" y="25">3</tspan>
                        </text>
                    </g>
                    <g id="Group-5" transform="translate(0.000000, 62.000000)" font-size="25" font-family="Montserrat-Regular, Montserrat" font-weight="normal">
                        <text id="4">
                            <tspan x="0.25" y="25">4</tspan>
                        </text>
                        <text id="5">
                            <tspan x="113.25" y="25">5</tspan>
                        </text>
                        <text id="6">
                            <tspan x="229.25" y="25">6</tspan>
                        </text>
                    </g>
                    <g id="Group-6" transform="translate(1.000000, 124.000000)" font-size="25" font-family="Montserrat-Regular, Montserrat" font-weight="normal">
                        <text id="7">
                            <tspan x="0.291666667" y="25">7</tspan>
                        </text>
                        <text id="8">
                            <tspan x="112.25" y="25">8</tspan>
                        </text>
                        <text id="9">
                            <tspan x="228.25" y="25">9</tspan>
                        </text>
                    </g>
                    <g id="Group-7" transform="translate(113.000000, 186.000000)">
                        <text id="0" font-family="Montserrat-Regular, Montserrat" font-size="25" font-weight="normal">
                            <tspan x="0" y="25">0</tspan>
                        </text>
                        <path d="M124.28911,15 L127.47022,11.8188898 C127.662185,11.6269243 127.666352,11.3061748 127.47109,11.1109127 C127.281539,10.9213611 126.958856,10.9160402 126.763113,11.111783 L123.582003,14.2928932 L120.400893,11.111783 C120.208927,10.9198175 119.888178,10.9156506 119.692916,11.1109127 C119.503364,11.3004643 119.498043,11.623147 119.693786,11.8188898 L122.874896,15 L119.693786,18.1811102 C119.50182,18.3730757 119.497653,18.6938252 119.692916,18.8890873 C119.882467,19.0786389 120.20515,19.0839598 120.400893,18.888217 L123.582003,15.7071068 L126.763113,18.888217 C126.955078,19.0801825 127.275828,19.0843494 127.47109,18.8890873 C127.660642,18.6995357 127.665963,18.376853 127.47022,18.1811102 L124.28911,15 Z M110.291949,15.7099466 C109.899857,15.3178539 109.905521,14.6764822 110.291949,14.2900534 L117.22793,7.35407245 C117.423479,7.15852364 117.809763,7 118.081126,7 L129.077593,7 C130.736883,7 132.082003,8.33663106 132.082003,10.0094776 L132.082003,19.9905224 C132.082003,21.652611 130.743868,23 129.077593,23 L118.081126,23 C117.805468,23 117.429336,22.847333 117.22793,22.6459275 L110.291949,15.7099466 Z" id="Back"></path>
                    </g>
                </g>
            </g>
        </g>
    </g>
</svg>