<?xml version="1.0" encoding="UTF-8" standalone="no"?>
<svg width="375px" height="255px" viewBox="0 0 375 255" version="1.1" xmlns="http://www.w3.org/2000/svg" xmlns:xlink="http://www.w3.org/1999/xlink">
    <!-- Generator: Sketch 41.2 (35397) - http://www.bohemiancoding.com/sketch -->
    <title>keypad@1x</title>
    <desc>Created with Sketch.</desc>
    <defs></defs>
    <g id="iOS" stroke="none" stroke-width="1" fill="none" fill-rule="evenodd">
        <g id="PIN" transform="translate(0.000000, -412.000000)">
            <g id="keypad" transform="translate(0.000000, 412.000000)">
                <rect id="Rectangle-2" fill="#004A7C" x="0" y="0" width="375" height="255"></rect>
                <g id="Group" transform="translate(67.000000, 18.000000)" font-size="25" font-family="Montserrat-Regular, Montserrat" fill="#FFFFFF" font-weight="normal">
                    <text id="1">
                        <tspan x="0.25" y="25">1</tspan>
                    </text>
                    <text id="2">
                        <tspan x="114" y="25">2</tspan>
                    </text>
                    <text id="3">
                        <tspan x="229.25" y="25">3</tspan>
                    </text>
                    <text id="4">
                        <tspan x="0.25" y="88">4</tspan>
                    </text>
                    <text id="5">
                        <tspan x="113.25" y="88">5</tspan>
                    </text>
                    <text id="6">
                        <tspan x="229.25" y="88">6</tspan>
                    </text>
                    <text id="7">
                        <tspan x="1.29166667" y="153">7</tspan>
                    </text>
                    <text id="8">
                        <tspan x="113.25" y="153">8</tspan>
                    </text>
                    <text id="9">
                        <tspan x="229.25" y="153">9</tspan>
                    </text>
                    <text id="0">
                        <tspan x="113" y="211">0</tspan>
                    </text>
                </g>
                <path d="M304.28911,221 L307.47022,217.81889 C307.662185,217.626924 307.666352,217.306175 307.47109,217.110913 C307.281539,216.921361 306.958856,216.91604 306.763113,217.111783 L303.582003,220.292893 L300.400893,217.111783 C300.208927,216.919818 299.888178,216.915651 299.692916,217.110913 C299.503364,217.300464 299.498043,217.623147 299.693786,217.81889 L302.874896,221 L299.693786,224.18111 C299.50182,224.373076 299.497653,224.693825 299.692916,224.889087 C299.882467,225.078639 300.20515,225.08396 300.400893,224.888217 L303.582003,221.707107 L306.763113,224.888217 C306.955078,225.080182 307.275828,225.084349 307.47109,224.889087 C307.660642,224.699536 307.665963,224.376853 307.47022,224.18111 L304.28911,221 Z M290.291949,221.709947 C289.899857,221.317854 289.905521,220.676482 290.291949,220.290053 L297.22793,213.354072 C297.423479,213.158524 297.809763,213 298.081126,213 L309.077593,213 C310.736883,213 312.082003,214.336631 312.082003,216.009478 L312.082003,225.990522 C312.082003,227.652611 310.743868,229 309.077593,229 L298.081126,229 C297.805468,229 297.429336,228.847333 297.22793,228.645928 L290.291949,221.709947 Z" id="Back" fill="#FFFFFF"></path>
            </g>
        </g>
    </g>
</svg>