<?xml version="1.0" encoding="UTF-8" standalone="no"?>
<svg width="60px" height="60px" viewBox="0 0 60 60" version="1.1" xmlns="http://www.w3.org/2000/svg" xmlns:xlink="http://www.w3.org/1999/xlink">
    <!-- Generator: Sketch 41.2 (35397) - http://www.bohemiancoding.com/sketch -->
    <title>lock</title>
    <desc>Created with Sketch.</desc>
    <defs>
        <polygon id="path-1" points="48.7390523 58.0780921 0 58.0780921 0 0.306172551 48.7390523 0.306172551 48.7390523 58.0780921"></polygon>
    </defs>
    <g id="icons" stroke="none" stroke-width="1" fill="none" fill-rule="evenodd">
        <g id="lock">
            <g id="Page-1" transform="translate(5.000000, 0.000000)">
                <g id="Group-3" transform="translate(0.000000, 0.956521)">
                    <mask id="mask-2" fill="white">
                        <use xlink:href="#path-1"></use>
                    </mask>
                    <g id="Clip-2"></g>
                    <path d="M44.7242245,45.7497545 C44.7028222,49.9654664 41.4798811,53.9476035 36.4780276,53.9476035 C31.6159189,53.9766425 29.2704739,53.9551789 24.4071061,53.9551789 C19.5475153,53.9551789 17.2473929,53.9690671 12.3462563,53.9513912 C7.87316664,53.9337152 4.20203532,50.2394435 4.18692778,45.7548048 C4.16930233,40.800491 4.15923063,40.660346 4.18818675,35.5898761 C4.2221787,29.5055646 7.11653086,27.0006313 12.5136982,27.0006313 C22.1132785,27.0006313 26.6757545,26.9892682 36.2753348,27.0018939 C41.7492988,27.0018939 44.7040811,30.8413608 44.7242245,35.1517653 C44.7494037,40.3674304 44.7506627,40.5340893 44.7242245,45.7497545 M15.1549991,7.64800094 C17.4009862,5.33497779 20.5206924,4.1443769 23.7385977,4.03074585 C26.6417625,3.92721534 28.8537576,4.34512509 30.6893233,5.40063128 C31.6259906,5.93848492 32.42669,6.68466215 33.1153418,7.51795651 C34.1061444,8.71865794 35.3940619,10.6592238 35.3688827,12.6048398 C35.2983808,18.0667056 35.3210421,17.219523 35.3210421,22.8101707 L13.4176325,22.8101707 C13.3974891,22.3783727 13.3924532,21.8657704 13.3924532,21.4958382 C13.3886763,16.3243629 13.43274,17.6071312 13.3735688,12.4369184 C13.3483896,10.1908113 13.9061095,8.93455693 15.1549991,7.64800094 M46.9865781,26.9602291 C46.8405386,26.7115034 46.6844273,26.4690905 46.5169855,26.234253 C45.2769086,24.4969605 43.6226333,23.6358896 41.4761042,23.1321253 C41.4761042,23.1321253 40.0068963,23.0727847 39.5448575,23.0399579 C39.5511523,17.7611644 39.4655429,17.8369184 39.5675188,12.56065 C39.6707536,7.25407996 37.7520965,4.6026888 32.946641,1.99927519 C31.7858787,1.37051672 29.7476202,0.755646481 28.4383004,0.587725041 L28.321217,0.573836801 C27.3241196,0.438742109 26.3270222,0.306172551 25.3211121,0.306172551 L25.1876622,0.306172551 C22.5022976,0.306172551 19.819451,0.693780687 17.2813849,1.57379004 C16.5902151,1.81367781 15.9128939,2.08134206 15.2632698,2.40455927 C11.6462738,4.20498013 10.2337192,5.93722235 9.44686833,10.1112696 C9.37258961,10.5077157 9.31971324,11.171826 9.31845428,11.574585 C9.30586466,16.9202946 9.31090051,15.9746318 9.31090051,21.350643 L9.31090051,22.8202712 C6.5776954,22.8202712 3.48065046,24.3656535 2.05676517,26.4274258 C1.90065396,26.6521627 1.75713237,26.8857377 1.62116454,27.1243629 C0.503206854,29.0914426 -0.000377688407,31.3489128 -0.000377688407,33.6114332 L-0.000377688407,48.1473697 C-0.000377688407,50.0702595 0.430187096,51.994412 1.42728449,53.6370119 C2.06054205,54.681155 2.8864207,55.5952537 3.99934254,56.2934534 C4.24987585,56.4512743 4.50922189,56.5964695 4.77360378,56.7315642 C6.61168736,57.6683891 8.67386606,58.0787234 10.7360448,58.0787234 L38.8864207,58.0787234 C40.539437,58.0787234 42.1949711,57.7681319 43.6717328,57.0257423 C44.7708061,56.4727379 45.751537,55.7366612 46.4855115,54.6672668 C46.6504354,54.4261164 46.8052876,54.1773907 46.9513272,53.9223521 C48.1800734,51.7772504 48.7390523,49.3101941 48.7390523,46.8355623 L48.7390523,33.7818798 C48.7390523,31.3956278 48.1926631,29.0169511 46.9865781,26.9602291" id="Fill-1" fill="#4C4C4C" mask="url(#mask-2)"></path>
                </g>
                <path d="M26.6795314,39.8843722 C26.3798986,40.3843488 26.204903,41.0131073 26.1570624,41.5976759 C26.0714531,42.6241431 26.1155167,43.3551695 26.1155167,44.3866869 C26.1155167,46.4042693 25.8234377,46.9345476 24.2912817,46.933285 C22.7276517,46.9004583 22.4393495,45.9308066 22.4393495,43.8803975 C22.4393495,42.8261538 22.4620108,42.7832266 22.3713656,41.7302455 C22.3197482,41.1305261 21.9710159,40.2341033 21.7141878,39.6899369 C21.0016157,38.1723311 21.0104284,37.1458639 22.227844,36.0714192 C23.4238573,35.015913 24.2635845,34.931321 25.7088722,35.5966939 C27.831481,36.5726584 27.5885015,38.3655039 26.6795314,39.8843722 M21.2408183,33.8177367 C19.1496835,35.2659013 18.2079804,37.9677952 19.2554363,40.2732429 C19.8408533,41.5623241 19.9566777,42.8173159 19.9327575,44.1568997 C19.9239447,44.6025859 19.9566777,45.0520599 20.0095541,45.4952209 C20.3268124,48.1415618 21.7217416,49.3902408 24.3416401,49.3902408 C27.0295226,49.3902408 28.4282287,48.1466121 28.7190488,45.4333552 C28.809694,44.5811223 28.7203077,43.7086883 28.8172478,42.857718 C28.8927855,42.2049708 29.0086099,41.5231845 29.266697,40.9259902 C30.0459941,39.1142062 30.113978,37.0208698 29.0199405,35.3807949 C27.21459,32.6725883 23.7222312,32.0981202 21.2408183,33.8177367" id="Fill-4" fill="#4C4C4C"></path>
            </g>
        </g>
    </g>
</svg>