<?xml version="1.0" encoding="UTF-8" standalone="no"?>
<svg width="38px" height="50px" viewBox="0 0 38 50" version="1.1" xmlns="http://www.w3.org/2000/svg" xmlns:xlink="http://www.w3.org/1999/xlink">
    <!-- Generator: Sketch 41.2 (35397) - http://www.bohemiancoding.com/sketch -->
    <title>lock</title>
    <desc>Created with Sketch.</desc>
    <defs></defs>
    <g id="iOS" stroke="none" stroke-width="1" fill="none" fill-rule="evenodd">
        <g id="Backup" transform="translate(-169.000000, -110.000000)" fill="#049BD4">
            <g id="lock" transform="translate(169.000000, 110.000000)">
                <path d="M22.0761905,32.1284571 C22.0761905,33.1881143 21.4768762,34.0740571 20.6285714,34.5778286 L20.6285714,40.8141714 L17.7333333,40.8141714 L17.7333333,34.5807238 C16.8821333,34.0769524 16.2857143,33.1910095 16.2857143,32.1284571 C16.2857143,30.5302857 17.5798857,29.233219 19.1809524,29.233219 C20.7762286,29.233219 22.0761905,30.5273905 22.0761905,32.1284571 L22.0761905,32.1284571 Z M37.8986667,24.855619 L37.8986667,45.3539048 C37.8986667,47.7482667 35.9501714,49.6967619 33.5558095,49.6967619 L4.63527619,49.6967619 C2.24091429,49.6967619 0.292419048,47.7482667 0.292419048,45.3539048 L0.292419048,24.855619 C0.292419048,22.4612571 2.24091429,20.5127619 4.63527619,20.5127619 L4.7047619,20.5127619 L4.7047619,14.7570286 C4.7047619,6.77485714 11.198781,0.280838095 19.1809524,0.280838095 C27.1631238,0.280838095 33.6571429,6.77485714 33.6571429,14.7570286 L33.6571429,20.5243429 C36.005181,20.5764571 37.8986667,22.496 37.8986667,24.855619 L37.8986667,24.855619 Z M7.6,20.5127619 L30.7619048,20.5127619 L30.7619048,14.7570286 C30.7619048,8.37013333 25.5678476,3.17607619 19.1809524,3.17607619 C12.7940571,3.17607619 7.6,8.37013333 7.6,14.7570286 L7.6,20.5127619 L7.6,20.5127619 Z M35.0034286,24.855619 C35.0034286,24.0912762 34.4041143,23.4832762 33.6571429,23.4282667 L33.6571429,23.4398476 L4.7047619,23.4398476 L4.7047619,23.408 L4.63527619,23.408 C3.83908571,23.408 3.18765714,24.0565333 3.18765714,24.855619 L3.18765714,45.3539048 C3.18765714,46.1529905 3.83908571,46.8015238 4.63527619,46.8015238 L33.5558095,46.8015238 C34.352,46.8015238 35.0034286,46.1529905 35.0034286,45.3539048 L35.0034286,24.855619 L35.0034286,24.855619 Z" id="Shape"></path>
            </g>
        </g>
    </g>
</svg>