<svg id="Layer_1" data-name="Layer 1" xmlns="http://www.w3.org/2000/svg" viewBox="0 0 170 25"><defs><style>.cls-1{fill:#10ade4;}.cls-2{fill:#153a62;}.cls-3{fill:#b2d5e5;}.cls-4{fill:#3558a8;}.cls-5{fill:#799eb2;}</style></defs><title>iOS-Blockchain-Logo</title><path class="cls-1" d="M24.53,12.5l-4.82,4.82,6,6a2.49,2.49,0,0,0,3.52,0l6-6L30.5,12.5l-3-3Z"/><path class="cls-2" d="M19.71,7.68l-3.06,3.06a2.49,2.49,0,0,0,0,3.52l3.06,3.06,4.82-4.82,3-3L22.7,4.7Z"/><path class="cls-3" d="M32.33,14.33l3,3,3.06-3.06a2.49,2.49,0,0,0,0-3.52L37.15,9.51Z"/><polygon class="cls-3" points="30.5 12.5 30.5 12.5 27.52 9.51 32.33 4.7 32.33 4.7 27.52 9.51 30.5 12.5"/><polygon class="cls-4" points="27.52 9.51 30.5 12.5 32.33 14.33 37.15 9.51 35.32 7.68 32.33 4.7 27.52 9.51"/><path class="cls-5" d="M32.33,4.7,29.28,1.64a2.49,2.49,0,0,0-3.52,0L22.7,4.7l4.82,4.82Z"/><path class="cls-2" d="M84.94,14.59a3,3,0,1,1-.2-4.34c.15.14.44.42.44.42l1.85-2a5.75,5.75,0,1,0,.15,7.49l-1.85-2Z"/><path class="cls-2" d="M106.77,14.59a3,3,0,1,1-.2-4.34c.15.14.44.42.44.42l1.85-2a5.75,5.75,0,1,0,.15,7.49l-1.85-2Z"/><path class="cls-2" d="M52.74,12.26a2.55,2.55,0,0,0,1.7-2.46v0A2.42,2.42,0,0,0,53.73,8a4.07,4.07,0,0,0-3-1H45V18h5.78c2.63,0,4.18-1.15,4.18-3v0A2.68,2.68,0,0,0,52.74,12.26ZM48,9.46h2c.91,0,1.39.35,1.39.95v0c0,.65-.52,1-1.45,1H48Zm3.83,5.1c0,.65-.54,1-1.46,1H48v-2h2.33c1,0,1.5.39,1.5,1Z"/><polygon class="cls-2" points="59.35 7 56.29 7 56.29 18.02 64.3 18.02 64.3 15.35 59.35 15.35 59.35 7"/><polygon class="cls-2" points="116.99 11.18 113.07 11.18 113.07 7.04 110 7.04 110 18.08 113.07 18.07 113.07 13.88 116.99 13.88 116.99 18.08 120.06 18.08 120.06 7.05 116.99 7.05 116.99 11.18"/><path class="cls-2" d="M128.67,7h-2.95L121,18.08h3.22l.79-2h4.25l.8,2h3.28Zm-2.74,6.76,1.24-3.14,1.23,3.14Z"/><rect class="cls-2" x="134.33" y="7.06" width="3.07" height="11.03"/><polygon class="cls-2" points="146.63 7.07 146.63 12.9 142.09 7.07 139.19 7.05 139.19 18.09 142.26 18.09 142.26 12.04 146.97 18.09 149.69 18.09 149.69 7.07 146.63 7.07"/><polygon class="cls-2" points="99.1 7.03 95.47 7.03 95.47 7.03 95.47 7.03 91.67 11.5 91.67 7.03 88.61 7.03 88.61 18.06 91.67 18.06 91.67 15.2 92.79 13.97 95.89 18.06 95.89 18.06 95.89 18.06 99.53 18.06 94.79 11.77 99.1 7.03"/><path class="cls-2" d="M70.43,6.76a5.75,5.75,0,1,0,5.75,5.75A5.75,5.75,0,0,0,70.43,6.76Zm0,8.77a3,3,0,1,1,3-3A3,3,0,0,1,70.43,15.53Z"/></svg>