<?xml version="1.0" encoding="UTF-8" standalone="no"?>
<svg width="167px" height="141px" viewBox="0 0 167 141" version="1.1" xmlns="http://www.w3.org/2000/svg" xmlns:xlink="http://www.w3.org/1999/xlink">
    <!-- Generator: Sketch 41.2 (35397) - http://www.bohemiancoding.com/sketch -->
    <title>logo</title>
    <desc>Created with Sketch.</desc>
    <defs></defs>
    <g id="iOS" stroke="none" stroke-width="1" fill="none" fill-rule="evenodd">
        <g id="launch_screen" transform="translate(-104.000000, -104.000000)">
            <g id="logo" transform="translate(104.000000, 104.000000)">
                <g transform="translate(37.000000, 0.000000)" id="Layer_2">
                    <g>
                        <g>
                            <g id="Layer_1-2">
                                <path d="M34.8523077,47 L15.3653846,66.4688462 L39.8505769,90.9540385 C43.789494,94.8916465 50.1743521,94.8916465 54.1132692,90.9540385 L78.5803846,66.4688462 L59.0663462,47 L47,34.8523077 L34.8523077,47 Z" id="Shape" fill="#00AEE6"></path>
                                <path d="M15.3653846,27.4407692 L2.95557692,39.8234615 C-0.98203109,43.7623787 -0.98203109,50.1472367 2.95557692,54.0861538 L15.3653846,66.4688462 L34.8523077,47 L47,34.8523077 L27.4407692,15.3653846 L15.3653846,27.4407692 Z" id="Shape" fill="#123962"></path>
                                <path d="M66.4688462,54.3663462 L78.5803846,66.4688462 L90.9630769,54.0861538 C94.9006849,50.1472367 94.9006849,43.7623787 90.9630769,39.8234615 L85.9919231,34.8523077 L66.4688462,54.3663462 Z" id="Shape" fill="#B1D4E5"></path>
                                <polygon id="Shape" fill="#B1D4E5" points="59.0573077 46.9548077 59.0573077 46.9548077 46.9548077 34.8523077 66.4688462 15.3382692 66.4688462 15.3382692 46.9548077 34.8523077"></polygon>
                                <polygon id="Shape" fill="#2754BA" points="46.9548077 34.8523077 59.0573077 46.9548077 66.4688462 54.3663462 85.9828846 34.8523077 78.5803846 27.4407692 66.4688462 15.3382692"></polygon>
                                <path d="M66.4688462,15.3653846 L54.0861538,2.95557692 C50.1472367,-0.98203109 43.7623787,-0.98203109 39.8234615,2.95557692 L27.4407692,15.3653846 L47,34.8523077 L66.4688462,15.3653846 Z" id="Shape" fill="#799EB2"></path>
                            </g>
                        </g>
                    </g>
                </g>
                <g id="Group-3" transform="translate(0.000000, 122.000000)" fill="#004A7C">
                    <path d="M63.8175142,12.8285168 C62.0049704,14.7935537 58.9824016,14.9007859 57.0409068,13.0689318 C55.099412,11.2370777 54.9628559,8.14912359 56.7347476,6.14573034 C58.5066393,4.14233709 61.5263487,3.97044753 63.5049444,5.76035348 C63.7500275,5.98180081 64.2153303,6.45010748 64.2153303,6.45010748 L67.1527758,3.21915453 C64.6025827,0.300011398 60.5441126,-0.688324589 56.9799868,0.741833463 C53.4158611,2.17199152 51.0993209,5.71839442 51.1734455,9.63109656 C51.2475701,13.5437987 53.6966941,16.9958907 57.3123157,18.283964 C60.9279373,19.5720373 64.9459322,18.4238708 67.3836512,15.4060186 L64.4355499,12.1641748 L63.8175142,12.8285168 Z" id="Shape"></path>
                    <path d="M98.5944542,12.8285168 C96.7819104,14.7935537 93.7593416,14.9007859 91.8178469,13.0689318 C89.8763521,11.2370777 89.7397959,8.14912359 91.5116876,6.14573034 C93.2835793,4.14233709 96.3032887,3.97044753 98.2818844,5.76035348 C98.5269675,5.98180081 98.9922703,6.45010748 98.9922703,6.45010748 L101.929716,3.21915453 C99.3795227,0.300011398 95.3210526,-0.688324589 91.7569269,0.741833463 C88.1928011,2.17199152 85.8762609,5.71839442 85.9503855,9.63109656 C86.0245102,13.5437987 88.4736341,16.9958907 92.0892557,18.283964 C95.7048773,19.5720373 99.7228722,18.4238708 102.160591,15.4060186 L99.2124899,12.1641748 L98.5944542,12.8285168 Z" id="Shape"></path>
                    <path d="M12.5489663,9.05302126 C14.1047113,8.35963697 15.2590884,7.13260091 15.2590884,5.05970862 L15.2590884,5.00888464 C15.2913911,3.92288122 14.8825385,2.87163148 14.1295749,2.10465727 C13.1030673,1.05187485 11.5437703,0.489180798 9.33447026,0.489180798 L0.188252254,0.489180798 L0.188252254,18.4373059 L9.38419727,18.4373059 C13.5754739,18.4373059 16.033409,16.5640793 16.033409,13.4892286 L16.033409,13.4384046 C16.0369609,11.0133747 14.6801239,9.77181753 12.5489663,9.05302126 Z M5.07215508,4.47886315 L8.23337217,4.47886315 C9.68611127,4.47886315 10.4426722,5.0415572 10.4426722,6.01810365 L10.4426722,6.06892763 C10.4426722,7.12171005 9.61507268,7.63358013 8.13391815,7.63358013 L5.075707,7.63358013 L5.07215508,4.47886315 Z M11.1672658,12.7885837 C11.1672658,13.8413661 10.3148028,14.4294722 8.83720016,14.4294722 L5.07215508,14.4294722 L5.07215508,11.1295438 L8.78392122,11.1295438 C10.4178087,11.1295438 11.1672658,11.7684738 11.1672658,12.7450203 L11.1672658,12.7885837 Z" id="Shape"></path>
                    <polygon id="Shape" points="23.0768848 0.492811082 18.192982 0.485550513 18.192982 18.4264151 30.958616 18.4300454 30.958616 14.0809649 23.0768848 14.0809649"></polygon>
                    <polygon id="Shape" points="114.865842 7.28870313 108.614447 7.28870313 108.614447 0.554525914 103.730544 0.554525914 103.730544 18.5208025 108.614447 18.5171722 108.614447 11.6958682 114.865842 11.6958682 114.865842 18.5171722 119.749745 18.5171722 119.749745 0.579937903 114.865842 0.579937903"></polygon>
                    <path d="M133.463744,0.449247671 L128.768094,0.449247671 L121.309042,18.5208025 L126.430924,18.5208025 L127.688307,15.308001 L134.458285,15.308001 L135.733427,18.5208025 L140.947659,18.5208025 L133.463744,0.449247671 Z M129.101975,11.4490088 L131.066192,6.34482923 L133.026857,11.4490088 L129.101975,11.4490088 Z" id="Shape"></path>
                    <rect id="Rectangle-path" x="142.482093" y="0.579937903" width="4.88390282" height="17.959016"></rect>
                    <polygon id="Shape" points="162.056775 0.598089324 162.056775 10.0876523 154.825047 0.598089324 150.221747 0.579937903 150.221747 18.5353236 155.102098 18.5353236 155.102098 8.68636255 162.614428 18.5353236 166.940678 18.5353236 166.940678 0.598089324"></polygon>
                    <polygon id="Shape" points="86.3758173 0.536374492 80.5897244 0.536374492 80.5897244 0.536374492 80.5897244 0.536374492 74.5443407 7.81146406 74.5443407 0.536374492 69.6604379 0.536374492 69.6604379 18.4917602 74.5443407 18.4917602 74.5443407 13.8413661 76.3274092 11.833819 81.264591 18.4917602 81.2681429 18.4917602 81.2681429 18.4917602 87.0506839 18.4917602 79.5099379 8.25798901"></polygon>
                    <path d="M40.7122139,0.0971101027 C37.0086042,0.0971101027 33.6696757,2.37732623 32.2523656,5.87449728 C30.8350555,9.37166832 31.6184788,13.3970863 34.2373264,16.0737052 C36.8561739,18.750324 40.7947086,19.5510294 44.2163978,18.1024537 C47.638087,16.6538781 49.8690877,13.2412935 49.8690877,9.4559828 C49.8690877,4.28722014 45.7694157,0.0971101027 40.7122139,0.0971101027 Z M40.7122139,14.3786482 C38.0521807,14.3786482 35.8957978,12.1746958 35.8957978,9.4559828 C35.8957978,6.73726978 38.0521807,4.53331741 40.7122139,4.53331741 C43.3722471,4.53331741 45.5286301,6.73726978 45.5286301,9.4559828 C45.5286301,12.1746958 43.3722471,14.3786482 40.7122139,14.3786482 L40.7122139,14.3786482 Z" id="Shape"></path>
                </g>
            </g>
        </g>
    </g>
</svg>