<?xml version="1.0" encoding="UTF-8"?>
<svg width="104px" height="19px" viewBox="0 0 104 19" version="1.1" xmlns="http://www.w3.org/2000/svg" xmlns:xlink="http://www.w3.org/1999/xlink">
    <!-- Generator: Sketch 46.1 (44463) - http://www.bohemiancoding.com/sketch -->
    <title>icons</title>
    <desc>Created with Sketch.</desc>
    <defs></defs>
    <g id="FINAL---v3---ETH-mobile---iOS" stroke="none" stroke-width="1" fill="none" fill-rule="evenodd">
        <g id="icons" transform="translate(-120.000000, -148.000000)" fill-rule="nonzero">
            <path d="M127.200444,157.444444 L123.558667,161.086222 L128.092,165.619556 C128.826586,166.353561 130.01697,166.353561 130.751556,165.619556 L135.284889,161.086222 L131.711111,157.444444 L129.444444,155.177778 L127.200444,157.444444 Z" id="Shape" fill="#10ADE4"></path>
            <path d="M123.558667,153.802667 L121.246667,156.114667 C120.512661,156.849253 120.512661,158.039636 121.246667,158.774222 L123.558667,161.086222 L127.200444,157.444444 L129.467111,155.177778 L125.817778,151.551111 L123.558667,153.802667 Z" id="Shape" fill="#153A62"></path>
            <path d="M133.093778,158.827111 L135.360444,161.093778 L137.672444,158.781778 C138.40645,158.047192 138.40645,156.856808 137.672444,156.122222 L136.735556,155.185333 L133.093778,158.827111 Z" id="Shape" fill="#B2D5E5"></path>
            <polygon id="Shape" fill="#B2D5E5" points="131.711111 157.444444 131.711111 157.444444 129.459556 155.185333 133.093778 151.551111 133.093778 151.551111 129.459556 155.185333"></polygon>
            <polygon id="Shape" fill="#3558A8" points="129.459556 155.185333 131.711111 157.444444 133.093778 158.827111 136.735556 155.185333 135.352889 153.802667 133.093778 151.551111"></polygon>
            <path d="M133.093778,151.551111 L130.789333,149.239111 C130.054747,148.505106 128.864364,148.505106 128.129778,149.239111 L125.817778,151.551111 L129.459556,155.192889 L133.093778,151.551111 Z" id="Shape" fill="#799EB2"></path>
            <path d="M174.004162,158.921967 C173.148319,159.815816 171.733743,159.858024 170.82613,159.016793 C169.918516,158.175562 169.853368,156.761857 170.679767,155.840717 C171.506165,154.919578 172.918628,154.831507 173.853051,155.642856 C173.966384,155.748634 174.185495,155.960189 174.185495,155.960189 L175.583273,154.449078 C174.372002,153.094211 172.445403,152.636463 170.754166,153.301713 C169.062928,153.966962 167.964489,155.614611 168.000877,157.431619 C168.037266,159.248627 169.200792,160.850976 170.917309,161.447979 C172.633825,162.044983 174.540552,161.510466 175.696606,160.108189 L174.298828,158.597078 L174.004162,158.921967 Z" id="Shape" fill="#FFFFFF"></path>
            <path d="M190.004162,158.921967 C189.148319,159.815816 187.733743,159.858024 186.82613,159.016793 C185.918516,158.175562 185.853368,156.761857 186.679767,155.840717 C187.506165,154.919578 188.918628,154.831507 189.853051,155.642856 C189.966384,155.748634 190.185495,155.960189 190.185495,155.960189 L191.583273,154.449078 C190.372002,153.094211 188.445403,152.636463 186.754166,153.301713 C185.062928,153.966962 183.964489,155.614611 184.000877,157.431619 C184.037266,159.248627 185.200792,160.850976 186.917309,161.447979 C188.633825,162.044983 190.540552,161.510466 191.696606,160.108189 L190.298828,158.597078 L190.004162,158.921967 Z" id="Shape" fill="#FFFFFF"></path>
            <path d="M148.848,156.983398 C149.6326,156.706223 150.150595,155.956653 150.132444,155.124731 L150.132444,155.124731 C150.150532,154.616524 149.956157,154.123742 149.596,153.764731 C148.973171,153.217653 148.155844,152.945211 147.329333,153.009176 L143,153.009176 L143,161.320287 L147.367111,161.320287 C149.354222,161.320287 150.525333,160.451398 150.525333,159.05362 L150.525333,159.05362 C150.562934,158.041077 149.846325,157.156614 148.848,156.983398 Z M145.266667,154.867842 L146.777778,154.867842 C147.465333,154.867842 147.828,155.132287 147.828,155.58562 L147.828,155.58562 C147.828,156.076731 147.435111,156.341176 146.732444,156.341176 L145.266667,156.341176 L145.266667,154.867842 Z M148.160444,158.721176 C148.160444,159.212287 147.752444,159.476731 147.057333,159.476731 L145.266667,159.476731 L145.266667,157.96562 L147.027111,157.96562 C147.782667,157.96562 148.160444,158.260287 148.160444,158.721176 Z" id="Shape" fill="#FFFFFF"></path>
            <polygon id="Shape" fill="#FFFFFF" points="154.312 153 152 153 152 161.326222 158.052 161.326222 158.052 159.308889 154.312 159.308889"></polygon>
            <polygon id="Shape" fill="#FFFFFF" points="197.281333 156.128 194.319556 156.128 194.319556 153 192 153 192 161.341333 194.319556 161.333778 194.319556 158.168 197.281333 158.168 197.281333 161.341333 199.600889 161.341333 199.600889 153.007556 197.281333 153.007556"></polygon>
            <path d="M206.795111,153 L204.566222,153 L201,161.371556 L203.432889,161.371556 L204.029778,159.860444 L207.240889,159.860444 L207.845333,161.371556 L210.323556,161.371556 L206.795111,153 Z M204.724889,158.107556 L205.661778,155.735111 L206.591111,158.107556 L204.724889,158.107556 Z" id="Shape" fill="#FFFFFF"></path>
            <rect id="Rectangle-path" fill="#FFFFFF" x="211" y="153" width="2.31955556" height="8.33377778"></rect>
            <polygon id="Shape" fill="#FFFFFF" points="220.621333 153.015111 220.621333 157.42 217.191111 153.015111 215 153 215 161.341333 217.319556 161.341333 217.319556 156.770222 220.878222 161.341333 222.933333 161.341333 222.933333 153.015111"></polygon>
            <polygon id="Shape" fill="#FFFFFF" points="183.925778 153 181.183111 153 181.183111 153 181.183111 153 178.312 156.377333 178.312 153 176 153 176 161.333778 178.312 161.333778 178.312 159.172889 179.158222 158.243556 181.500444 161.333778 181.500444 161.333778 181.500444 161.333778 184.250667 161.333778 180.669333 156.581333"></polygon>
            <path d="M162.344444,153 C159.945074,153 158,154.945074 158,157.344444 C158,159.743815 159.945074,161.688889 162.344444,161.688889 C164.743815,161.688889 166.688889,159.743815 166.688889,157.344444 C166.688889,156.192226 166.231172,155.0872 165.416431,154.272458 C164.601689,153.457717 163.496663,153 162.344444,153 Z M162.344444,159.626222 C161.092599,159.626222 160.077778,158.611401 160.077778,157.359556 C160.077778,156.10771 161.092599,155.092889 162.344444,155.092889 C163.59629,155.092889 164.611111,156.10771 164.611111,157.359556 C164.611111,158.611401 163.59629,159.626222 162.344444,159.626222 L162.344444,159.626222 Z" id="Shape" fill="#FFFFFF"></path>
        </g>
    </g>
</svg>