<?xml version="1.0" encoding="UTF-8" standalone="no"?>
<svg width="88px" height="88px" viewBox="0 0 88 88" version="1.1" xmlns="http://www.w3.org/2000/svg" xmlns:xlink="http://www.w3.org/1999/xlink">
    <!-- Generator: Sketch 41.2 (35397) - http://www.bohemiancoding.com/sketch -->
    <title>logo</title>
    <desc>Created with Sketch.</desc>
    <defs></defs>
    <g id="iOS" stroke="none" stroke-width="1" fill="none" fill-rule="evenodd">
        <g id="PIN" transform="translate(-144.000000, -72.000000)">
            <g id="logo" transform="translate(144.000000, 72.000000)">
                <g id="Layer_2">
                    <g>
                        <g id="Layer_1-2">
                            <path d="M32.6276923,44 L14.3846154,62.2261538 L37.3069231,85.1484615 C40.99442,88.8347329 46.9717339,88.8347329 50.6592308,85.1484615 L73.5646154,62.2261538 L55.2961538,44 L44,32.6276923 L32.6276923,44 Z" id="Shape" fill="#00AEE6"></path>
                            <path d="M14.3846154,25.6892308 L2.76692308,37.2815385 C-0.919348254,40.9690353 -0.919348254,46.9463493 2.76692308,50.6338462 L14.3846154,62.2261538 L32.6276923,44 L44,32.6276923 L25.6892308,14.3846154 L14.3846154,25.6892308 Z" id="Shape" fill="#123962"></path>
                            <path d="M62.2261538,50.8961538 L73.5646154,62.2261538 L85.1569231,50.6338462 C88.8431944,46.9463493 88.8431944,40.9690353 85.1569231,37.2815385 L80.5030769,32.6276923 L62.2261538,50.8961538 Z" id="Shape" fill="#B1D4E5"></path>
                            <polygon id="Shape" fill="#B1D4E5" points="55.2876923 43.9576923 55.2876923 43.9576923 43.9576923 32.6276923 62.2261538 14.3592308 62.2261538 14.3592308 43.9576923 32.6276923"></polygon>
                            <polygon id="Shape" fill="#2754BA" points="43.9576923 32.6276923 55.2876923 43.9576923 62.2261538 50.8961538 80.4946154 32.6276923 73.5646154 25.6892308 62.2261538 14.3592308"></polygon>
                            <path d="M62.2261538,14.3846154 L50.6338462,2.76692308 C46.9463493,-0.919348254 40.9690353,-0.919348254 37.2815385,2.76692308 L25.6892308,14.3846154 L44,32.6276923 L62.2261538,14.3846154 Z" id="Shape" fill="#799EB2"></path>
                        </g>
                    </g>
                </g>
            </g>
        </g>
    </g>
</svg>