<?xml version="1.0" encoding="UTF-8" standalone="no"?>
<svg width="34px" height="50px" viewBox="0 0 34 50" version="1.1" xmlns="http://www.w3.org/2000/svg" xmlns:xlink="http://www.w3.org/1999/xlink">
    <!-- Generator: Sketch 41.2 (35397) - http://www.bohemiancoding.com/sketch -->
    <title>mobile</title>
    <desc>Created with Sketch.</desc>
    <defs></defs>
    <g id="iOS" stroke="none" stroke-width="1" fill="none" fill-rule="evenodd">
        <g id="2-Step" transform="translate(-171.000000, -110.000000)" fill="#049BD4">
            <g id="mobile" transform="translate(171.000000, 110.000000)">
                <path d="M28.7878788,0 L4.54545455,0 C2.03939394,0 0,1.97941176 0,4.41176471 L0,45.5882353 C0,48.0205882 2.03939394,50 4.54545455,50 L28.7878788,50 C31.2939394,50 33.3333333,48.0205882 33.3333333,45.5882353 L33.3333333,4.41176471 C33.3333333,1.97941176 31.2939394,0 28.7878788,0 L28.7878788,0 Z M4.54545455,2.94117647 L28.7878788,2.94117647 C29.6242424,2.94117647 30.3030303,3.6 30.3030303,4.41176471 L30.3030303,8.82352941 L3.03030303,8.82352941 L3.03030303,4.41176471 C3.03030303,3.6 3.70909091,2.94117647 4.54545455,2.94117647 L4.54545455,2.94117647 Z M30.3030303,11.7647059 L30.3030303,35.2941176 L3.03030303,35.2941176 L3.03030303,11.7647059 L30.3030303,11.7647059 L30.3030303,11.7647059 Z M28.7878788,47.0588235 L4.54545455,47.0588235 C3.70909091,47.0588235 3.03030303,46.4 3.03030303,45.5882353 L3.03030303,38.2352941 L30.3030303,38.2352941 L30.3030303,45.5882353 C30.3030303,46.4 29.6242424,47.0588235 28.7878788,47.0588235 L28.7878788,47.0588235 Z M18.1818182,42.6470588 C18.1818182,43.4588235 17.5030303,44.1176471 16.6666667,44.1176471 C15.830303,44.1176471 15.1515152,43.4588235 15.1515152,42.6470588 C15.1515152,41.8352941 15.830303,41.1764706 16.6666667,41.1764706 C17.5030303,41.1764706 18.1818182,41.8352941 18.1818182,42.6470588 L18.1818182,42.6470588 Z" id="Shape"></path>
            </g>
        </g>
    </g>
</svg>