<?xml version="1.0" encoding="UTF-8" standalone="no"?>
<svg width="110px" height="110px" viewBox="0 0 110 110" version="1.1" xmlns="http://www.w3.org/2000/svg" xmlns:xlink="http://www.w3.org/1999/xlink">
    <!-- Generator: Sketch 41.2 (35397) - http://www.bohemiancoding.com/sketch -->
    <title>QR</title>
    <desc>Created with Sketch.</desc>
    <defs>
        <rect id="path-1" x="0" y="0" width="98" height="110"></rect>
    </defs>
    <g id="Feedback" stroke="none" stroke-width="1" fill="none" fill-rule="evenodd">
        <g id="QR">
            <g transform="translate(0.000000, 1.000000)">
                <mask id="mask-2" fill="white">
                    <use xlink:href="#path-1"></use>
                </mask>
                <g id="Mask"></g>
                <g mask="url(#mask-2)" id="Asset-17">
                    <g transform="translate(-14.000000, 0.000000)">
                        <g>
                            <g id="Layer_2" fill="#153A62">
                                <g id="Layer_1-2">
                                    <circle id="Oval" transform="translate(57.789169, 47.668027) rotate(-45.360000) translate(-57.789169, -47.668027) " cx="56.8552064" cy="46.7340649" r="0.103773585"></circle>
                                    <ellipse id="Oval" transform="translate(44.775785, 73.724995) rotate(-45.000000) translate(-44.775785, -73.724995) " cx="43.8418223" cy="72.7910332" rx="0.103773585" ry="0.103773585"></ellipse>
                                    <circle id="Oval" transform="translate(49.124635, 95.379081) rotate(-45.360000) translate(-49.124635, -95.379081) " cx="48.1906728" cy="94.4451184" r="0.103773585"></circle>
                                    <ellipse id="Oval" transform="translate(23.088844, 39.001045) rotate(-45.000000) translate(-23.088844, -39.001045) " cx="22.1548816" cy="38.0670829" rx="0.103773585" ry="0.103773585"></ellipse>
                                    <circle id="Oval" transform="translate(96.843390, 47.687167) rotate(-45.000000) translate(-96.843390, -47.687167) " cx="95.9094278" cy="46.7532046" r="0.103773585"></circle>
                                    <circle id="Oval" transform="translate(62.155980, 60.716391) rotate(-44.640000) translate(-62.155980, -60.716391) " cx="61.2220175" cy="59.7824284" r="0.103773585"></circle>
                                    <circle id="Oval" transform="translate(70.813387, 69.359352) rotate(-45.360000) translate(-70.813387, -69.359352) " cx="69.8794243" cy="68.4253896" r="0.103773585"></circle>
                                    <polygon id="Shape" points="65.0245283 78.0792453 60.7490566 78.0792453 60.7490566 73.7415094 52.0528302 73.7415094 52.0528302 78.1207547 56.2037736 78.1207547 56.2037736 82.4377358 52.0528302 82.4377358 52.0528302 91.009434 56.3283019 91.009434 56.3283019 86.7132075 60.6245283 86.7132075 60.6245283 82.4377358 64.9622642 82.4377358"></polygon>
                                    <polygon id="Shape" points="73.6169811 30.3018868 73.6169811 17.4132075 69.3207547 17.4132075 69.3207547 21.6886792 65.0660377 21.6886792 65.0660377 25.9641509 69.4037736 25.9641509 69.4037736 30.3018868"></polygon>
                                    <polygon id="Shape" points="4.31698113 60.8113208 8.6754717 60.8113208 8.6754717 73.6377358 13.0339623 73.6377358 13.0339623 64.9830189 17.3301887 64.9830189 17.3301887 60.8320755 21.6886792 60.8320755 21.6886792 64.9830189 30.3018868 64.9830189 30.3018868 60.8320755 26.0056604 60.8320755 26.0056604 56.3283019 21.7301887 56.3283019 21.7301887 47.7358491 30.3433962 47.7358491 30.3433962 43.3981132 25.9641509 43.3981132 25.9641509 39.0188679 21.6679245 39.0188679 21.6679245 39.0188679 21.6679245 39.0188679 21.6679245 43.1698113 17.5169811 43.1698113 17.5169811 39.0188679 21.6679245 39.0188679 21.6679245 39.0188679 21.6679245 39.0188679 21.6679245 34.8679245 0 34.8679245 0 47.7150943 4.31698113 47.7150943 4.31698113 39.1018868 8.6754717 39.1018868 8.6754717 43.3566038 12.9924528 43.3566038 12.9924528 47.7358491 17.1433962 47.7358491 17.1433962 56.3698113 4.1509434 56.3698113 4.1509434 52.2188679 0 52.2188679 0 73.6377358 4.31698113 73.6377358"></polygon>
                                    <path d="M0,108.360377 L30.2603774,108.360377 L30.2603774,78.1622642 L0,78.1622642 L0,108.360377 Z M4.35849057,82.4792453 L25.8811321,82.4792453 L25.8811321,104.064151 L4.35849057,104.064151 L4.35849057,82.4792453 Z" id="Shape"></path>
                                    <path d="M30.2188679,0 L0,0 L0,30.2188679 L30.2188679,30.2188679 L30.2188679,0 Z M25.8811321,25.9226415 L4.35849057,25.9226415 L4.35849057,4.37924528 L25.8811321,4.37924528 L25.8811321,25.9226415 Z" id="Shape"></path>
                                    <path d="M108.360377,0 L78.1622642,0 L78.1622642,30.2188679 L108.360377,30.2188679 L108.360377,0 Z M104.043396,25.9226415 L82.5,25.9226415 L82.5,4.37924528 L104.043396,4.37924528 L104.043396,25.9226415 Z" id="Shape"></path>
                                    <polygon id="Shape" points="47.7358491 95.4716981 47.7358491 95.4716981 47.7358491 99.6226415 39.0811321 99.6226415 39.0811321 95.4716981 47.7358491 95.4716981 47.7358491 95.4716981 47.7358491 95.4716981 47.7358491 86.8377358 43.2943396 86.8377358 43.2943396 90.9886792 38.9773585 90.9886792 38.9773585 86.8377358 34.8264151 86.8377358 34.8264151 108.381132 39.0188679 108.381132 39.0188679 104.230189 43.3773585 104.230189 43.3773585 108.381132 52.0735849 108.381132 52.0735849 99.6226415 56.2245283 99.6226415 56.2245283 95.4716981"></polygon>
                                    <polygon id="Shape" points="43.3566038 26.0056604 43.3566038 30.3433962 39.0188679 30.3433962 39.0188679 34.7226415 26.0056604 34.7226415 26.0056604 38.9981132 30.3433962 38.9981132 30.3433962 43.3358491 34.6396226 43.3358491 34.6396226 47.7358491 38.9566038 47.7358491 38.9566038 39.0188679 43.3566038 39.0188679 43.3566038 34.7433962 47.7358491 34.7433962 47.7358491 39.0188679 52.0735849 39.0188679 52.0735849 30.3433962 47.7358491 30.3433962 47.7358491 26.0056604"></polygon>
                                    <polygon id="Shape" points="47.7358491 82.3132075 47.7358491 73.7415094 43.4396226 73.7415094 43.4396226 73.7415094 43.4396226 73.7415094 43.4396226 77.8924528 39.2886792 77.8924528 39.2886792 73.7415094 43.4396226 73.7415094 43.4396226 73.7415094 43.4396226 73.7415094 43.4396226 65.045283 39.0188679 65.045283 39.0188679 69.4245283 21.7509434 69.4245283 21.7509434 73.7622642 34.6811321 73.7622642 34.6811321 82.2924528"></polygon>
                                    <polygon id="Shape" points="38.9773585 65.0245283 38.9773585 60.7283019 43.2735849 60.7283019 43.2735849 56.4320755 47.5698113 56.4320755 47.5698113 51.990566 34.6396226 51.990566 34.6396226 56.3283019 30.3018868 56.3283019 30.3018868 60.6660377 34.6603774 60.6660377 34.6603774 65.0037736"></polygon>
                                    <polygon id="Shape" points="38.9358491 21.6471698 34.7849057 21.6471698 34.7849057 30.3018868 38.9358491 30.3018868 38.9358491 25.9641509 43.2735849 25.9641509 43.2735849 17.2471698 47.5698113 17.2471698 47.5698113 13.0962264 34.7018868 13.0962264 34.7018868 17.3509434 38.8528302 17.3509434"></polygon>
                                    <polygon id="Shape" points="56.390566 8.59245283 65.0660377 8.59245283 65.0660377 12.9301887 73.6377358 12.9301887 73.6377358 8.59245283 69.4867925 8.59245283 69.4867925 4.1509434 60.645283 4.1509434 60.645283 0 52.0943396 0 52.0943396 4.31698113 56.3698113 4.31698113"></polygon>
                                    <polygon id="Shape" points="82.4169811 51.990566 86.7132075 51.990566 86.7132075 34.7433962 82.354717 34.7433962 82.354717 43.3566038 78.0792453 43.3566038 78.0792453 47.6320755 82.4169811 47.6320755"></polygon>
                                    <polygon id="Shape" points="52.1150943 8.63396226 52.1150943 17.2056604 65.0245283 17.2056604 65.0245283 13.054717 56.3490566 13.054717 56.3490566 8.63396226"></polygon>
                                    <polygon id="Shape" points="60.8113208 99.8509434 60.8113208 104.001887 73.7 104.001887 73.7 99.8509434"></polygon>
                                    <polygon id="Shape" points="47.590566 0 43.4396226 0 43.4396226 8.50943396 47.590566 8.50943396"></polygon>
                                    <polygon id="Shape" points="95.3679245 38.8943396 95.3679245 34.7433962 91.2169811 34.7433962 91.2169811 38.8943396"></polygon>
                                    <polygon id="Shape" points="8.73773585 99.6226415 21.5849057 99.6226415 21.5849057 86.8377358 8.73773585 86.8377358"></polygon>
                                    <polygon id="Shape" points="99.6226415 21.5433962 99.6226415 8.69622642 86.7962264 8.69622642 86.7962264 21.5433962"></polygon>
                                    <polygon id="Shape" points="21.5849057 8.6754717 8.69622642 8.6754717 8.69622642 21.5433962 21.5849057 21.5433962"></polygon>
                                    <path d="M95.4716981,73.7415094 L91.0716981,73.7415094 L91.0716981,65.045283 L82.4169811,65.045283 L82.4169811,60.6867925 L73.8245283,60.6867925 L73.8245283,56.3698113 L82.4169811,56.3698113 L82.4169811,52.0320755 L73.7830189,52.0320755 L73.7830189,47.7358491 L69.3622642,47.7358491 L69.3622642,43.3773585 L60.790566,43.3773585 L60.790566,38.9773585 L69.3622642,38.9773585 L69.3622642,30.3433962 L65.0245283,30.3433962 L65.0245283,26.0056604 L60.7283019,26.0056604 L60.7283019,34.5981132 L56.4113208,34.5981132 L56.4113208,39.0188679 L52.0528302,39.0188679 L52.0528302,43.2943396 L56.3490566,43.2943396 L56.3490566,47.7358491 L56.3490566,47.7358491 L56.3490566,47.7358491 L60.5,47.7358491 L60.5,51.8867925 L56.3490566,51.8867925 L56.3490566,47.7358491 L56.3490566,47.7358491 L56.3490566,47.7358491 L52.1981132,47.7358491 L52.1981132,56.390566 L56.4528302,56.390566 L56.4528302,60.7490566 L60.7490566,60.7490566 L60.7490566,60.7490566 L60.7490566,60.7490566 L60.7490566,56.5981132 L69.3207547,56.5981132 L69.3207547,60.7490566 L60.7075472,60.7490566 L60.7075472,60.7490566 L60.7075472,60.7490566 L60.7075472,69.4245283 L69.3830189,69.4245283 L69.3830189,69.4245283 L69.3830189,69.4245283 L69.3830189,65.2735849 L77.954717,65.2735849 L77.954717,69.4245283 L69.4037736,69.4245283 L69.4037736,69.4245283 L69.4037736,69.4245283 L69.4037736,73.6792453 L65.0660377,73.6792453 L65.0660377,78.0377358 L69.2169811,78.0377358 L69.2169811,86.754717 L60.7283019,86.754717 L60.7283019,91.1132075 L69.445283,91.1132075 L69.445283,95.4716981 L82.3754717,95.4716981 L82.3754717,91.3207547 L86.754717,91.3207547 L86.754717,95.4716981 L91.1339623,95.4716981 L91.1339623,78.0377358 L95.4716981,78.0377358 L95.4716981,73.7415094 Z M86.6924528,86.6509434 L73.7830189,86.6509434 L73.7830189,73.7830189 L86.6301887,73.7830189 L86.6924528,86.6509434 Z" id="Shape"></path>
                                    <path d="M108.360377,56.2867925 L108.360377,51.8867925 L104.209434,51.8867925 L104.209434,47.5283019 L108.360377,47.5283019 L108.360377,43.3150943 L104.084906,43.3150943 L104.084906,34.7641509 L99.6226415,34.7641509 L99.6226415,43.3773585 L95.4716981,43.3773585 L95.4716981,47.7358491 L95.4716981,47.7358491 L95.4716981,47.7358491 L99.6226415,47.7358491 L99.6226415,51.8867925 L95.4716981,51.8867925 L95.4716981,47.7358491 L95.4716981,47.7358491 L95.4716981,47.7358491 L91.1132075,47.7358491 L91.1132075,52.1150943 L86.754717,52.1150943 L86.754717,56.4528302 L95.3471698,56.4528302 L95.3471698,60.7283019 L91.1962264,60.7283019 L91.1962264,65.0867925 L99.6226415,65.0867925 L99.6226415,69.3207547 L95.4716981,69.3207547 L95.4716981,73.6792453 L99.6226415,73.6792453 L99.6226415,78.0584906 L95.4716981,78.0584906 L95.4716981,82.4377358 L99.6226415,82.4377358 L99.6226415,86.754717 L95.4716981,86.754717 L95.4716981,91.0716981 L99.7886792,91.0716981 L99.7886792,95.4716981 L103.939623,95.4716981 L103.939623,104.167925 L91.0716981,104.167925 L91.0716981,108.318868 L108.339623,108.318868 L108.339623,77.9962264 L104.188679,77.9962264 L104.188679,73.6377358 L108.339623,73.6377358 L108.339623,69.3207547 L104.188679,69.3207547 L104.188679,65.0245283 L108.339623,65.0245283 L108.339623,60.6660377 L104.188679,60.6660377 L104.188679,56.3075472 L108.360377,56.2867925 Z" id="Shape"></path>
                                    <polygon id="Shape" points="73.7415094 108.339623 86.6509434 108.339623 86.6509434 104.188679 73.7415094 104.188679"></polygon>
                                </g>
                            </g>
                        </g>
                    </g>
                </g>
            </g>
        </g>
    </g>
</svg>