<?xml version="1.0" encoding="UTF-8" standalone="no"?>
<svg width="60px" height="60px" viewBox="0 0 60 60" version="1.1" xmlns="http://www.w3.org/2000/svg" xmlns:xlink="http://www.w3.org/1999/xlink">
    <!-- Generator: Sketch 41.2 (35397) - http://www.bohemiancoding.com/sketch -->
    <title>receive_blue</title>
    <desc>Created with Sketch.</desc>
    <defs></defs>
    <g id="icons" stroke="none" stroke-width="1" fill="none" fill-rule="evenodd">
        <g id="receive_blue" fill="#10ADE4">
            <g id="Receive" transform="translate(0.000000, 3.000000)">
                <polygon id="Fill-1" points="27.4986667 31.0013333 31.7173333 31.0013333 31.7173333 0 27.4986667 0"></polygon>
                <polygon id="Fill-2" points="29.6098667 33.1258667 32.5858667 30.1498667 20.0418667 17.6058667 17.0658667 20.5818667"></polygon>
                <polygon id="Fill-3" points="26.648 30.1349333 29.624 33.1109333 42.1546667 20.5816 39.1773333 17.6056"></polygon>
                <g id="Group-12" transform="translate(0.000000, 27.585333)">
                    <path d="M29.61,24.8181333 C15.438,24.8181333 3.754,14.2834667 1.88733333,0.623466667 L0.000666666666,0.623466667 C1.87666667,15.3114667 14.4126667,26.6661333 29.61,26.6661333 C44.8073333,26.6661333 57.3433333,15.3114667 59.2193333,0.623466667 L57.3326667,0.623466667 C55.466,14.2834667 43.782,24.8181333 29.61,24.8181333" id="Fill-4"></path>
                    <path d="M29.728,23.718 C16.2,23.718 5.048,13.662 3.26666667,0.623333333 L1.464,0.623333333 C3.25466667,14.6433333 15.2213333,25.482 29.728,25.482 C44.2346667,25.482 56.2013333,14.6433333 57.992,0.623333333 L56.1893333,0.623333333 C54.408,13.662 43.256,23.718 29.728,23.718" id="Fill-6"></path>
                    <path d="M29.728,23.1009333 C16.5613333,23.1009333 5.70666667,13.3142667 3.97333333,0.6236 L2.22,0.6236 C3.96266667,14.2689333 15.6093333,24.8182667 29.728,24.8182667 C43.8466667,24.8182667 55.4933333,14.2689333 57.236,0.6236 L55.4826667,0.6236 C53.7493333,13.3142667 42.8946667,23.1009333 29.728,23.1009333" id="Fill-8"></path>
                    <path d="M29.6098667,22.0788 C17.0418667,22.0788 6.68186667,12.7361333 5.02586667,0.6228 L3.35253333,0.6228 C5.01653333,13.6481333 16.1325333,23.7174667 29.6098667,23.7174667 C43.0872,23.7174667 54.2032,13.6481333 55.8672,0.6228 L54.1938667,0.6228 C52.5378667,12.7361333 42.1778667,22.0788 29.6098667,22.0788" id="Fill-10"></path>
                </g>
            </g>
        </g>
    </g>
</svg>