<?xml version="1.0" encoding="UTF-8" standalone="no"?>
<svg width="110px" height="110px" viewBox="0 0 110 110" version="1.1" xmlns="http://www.w3.org/2000/svg" xmlns:xlink="http://www.w3.org/1999/xlink">
    <!-- Generator: Sketch 41.2 (35397) - http://www.bohemiancoding.com/sketch -->
    <title>Receive</title>
    <desc>Created with Sketch.</desc>
    <defs>
        <rect id="path-1" x="0" y="0" width="98.9417989" height="110"></rect>
    </defs>
    <g id="Feedback" stroke="none" stroke-width="1" fill="none" fill-rule="evenodd">
        <g id="Receive">
            <g transform="translate(0.000000, 1.000000)">
                <mask id="mask-2" fill="white">
                    <use xlink:href="#path-1"></use>
                </mask>
                <g id="Mask"></g>
                <g mask="url(#mask-2)">
                    <g transform="translate(-19.206349, 0.000000)">
                        <polygon id="Fill-1" fill="#0BBABC" points="54.8519492 62.0429543 63.2669787 62.0429543 63.2669787 0 54.8519492 0"></polygon>
                        <polygon id="Fill-2" fill="#0BBABC" points="59.0631874 66.2947819 64.9994535 60.3389144 39.977773 35.234613 34.0415069 41.1904804"></polygon>
                        <polygon id="Fill-3" fill="#0BBABC" points="53.1551133 60.3090284 59.0913794 66.2648958 84.0864637 41.1899467 78.147538 35.2340793"></polygon>
                        <g id="Group-12" stroke-width="1" fill="none" transform="translate(0.000000, 56.306515)">
                            <path d="M59.0634534,48.568519 C30.7943801,48.568519 7.48815279,27.4854953 3.76468843,0.147743556 L0.0013298087,0.147743556 C3.74341149,29.5428313 28.7491343,52.2669205 59.0634534,52.2669205 C89.3777725,52.2669205 114.383495,29.5428313 118.125577,0.147743556 L114.362218,0.147743556 C110.638754,27.4854953 87.3325267,48.568519 59.0634534,48.568519" id="Fill-4" fill="#0BBABC"></path>
                            <path d="M59.2988295,46.3668226 C32.3143514,46.3668226 10.0693115,26.2417544 6.51606263,0.147476716 L2.9202599,0.147476716 C6.49212607,28.2056963 30.3621922,49.897115 59.2988295,49.897115 C88.2354668,49.897115 112.105533,28.2056963 115.677399,0.147476716 L112.081596,0.147476716 C108.528348,26.2417544 86.2833077,46.3668226 59.2988295,46.3668226" id="Fill-6" fill="#0BBABC"></path>
                            <path d="M59.2988295,45.1318874 C33.0351077,45.1318874 11.3831625,25.5458358 7.92565985,0.148010396 L4.42826297,0.148010396 C7.90438291,27.4564098 31.1361409,48.5687858 59.2988295,48.5687858 C87.4615182,48.5687858 110.693276,27.4564098 114.169396,0.148010396 L110.671999,0.148010396 C107.214497,25.5458358 85.5625513,45.1318874 59.2988295,45.1318874" id="Fill-8" fill="#0BBABC"></path>
                            <path d="M59.0631874,43.0862924 C33.9936338,43.0862924 13.3284066,24.3888178 10.0251618,0.146409357 L6.68734199,0.146409357 C10.0065445,26.214003 32.1797748,46.3657553 59.0631874,46.3657553 C85.9466001,46.3657553 108.11983,26.214003 111.439033,0.146409357 L108.101213,0.146409357 C104.797968,24.3888178 84.132741,43.0862924 59.0631874,43.0862924" id="Fill-10" fill="#0BBABC"></path>
                        </g>
                    </g>
                </g>
            </g>
        </g>
    </g>
</svg>