<?xml version="1.0" encoding="UTF-8" standalone="no"?>
<svg width="110px" height="110px" viewBox="0 0 110 110" version="1.1" xmlns="http://www.w3.org/2000/svg" xmlns:xlink="http://www.w3.org/1999/xlink">
    <!-- Generator: Sketch 41.2 (35397) - http://www.bohemiancoding.com/sketch -->
    <title>Receive</title>
    <desc>Created with Sketch.</desc>
    <defs>
        <rect id="path-1" x="0" y="0" width="89.9470899" height="100"></rect>
    </defs>
    <g id="iOS" stroke="none" stroke-width="1" fill="none" fill-rule="evenodd">
        <g id="Receive">
            <g transform="translate(0.000000, 6.000000)">
                <mask id="mask-2" fill="white">
                    <use xlink:href="#path-1"></use>
                </mask>
                <g id="Mask"></g>
                <g mask="url(#mask-2)">
                    <g transform="translate(-21.460317, 0.000000)">
                        <polygon id="Fill-1" fill="#0BBABC" points="49.8654084 56.4026857 57.5154352 56.4026857 57.5154352 0 49.8654084 0"></polygon>
                        <polygon id="Fill-2" fill="#0BBABC" points="53.6938067 60.2679835 59.0904122 54.8535586 36.34343 32.0314663 30.9468245 37.4458913"></polygon>
                        <polygon id="Fill-3" fill="#0BBABC" points="48.3228303 54.8263894 53.7194358 60.2408144 76.4422397 37.4454061 71.0432164 32.0309812"></polygon>
                        <g id="Group-12" stroke-width="1" fill="none" transform="translate(0.000000, 51.187741)">
                            <path d="M53.6940485,44.153199 C27.994891,44.153199 6.80741162,24.9868139 3.42244403,0.134312324 L0.001208917,0.134312324 C3.40310135,26.8571193 26.1355766,47.5153823 53.6940485,47.5153823 C81.2525205,47.5153823 103.984996,26.8571193 107.386888,0.134312324 L103.965653,0.134312324 C100.580685,24.9868139 79.3932061,44.153199 53.6940485,44.153199" id="Fill-4" fill="#0BBABC"></path>
                            <path d="M53.9080268,42.1516569 C29.3766831,42.1516569 9.15391952,23.8561404 5.9236933,0.134069742 L2.65478173,0.134069742 C5.90193279,25.6415421 27.6019929,45.3610136 53.9080268,45.3610136 C80.2140607,45.3610136 101.914121,25.6415421 105.161272,0.134069742 L101.89236,0.134069742 C98.6621342,23.8561404 78.4393706,42.1516569 53.9080268,42.1516569" id="Fill-6" fill="#0BBABC"></path>
                            <path d="M53.9080268,41.0289885 C30.0319161,41.0289885 10.3483295,23.2234871 7.20514532,0.134554906 L4.02569361,0.134554906 C7.18580264,24.9603725 28.3055826,44.1534416 53.9080268,44.1534416 C79.5104711,44.1534416 100.630251,24.9603725 103.79036,0.134554906 L100.610908,0.134554906 C97.4677242,23.2234871 77.7841376,41.0289885 53.9080268,41.0289885" id="Fill-8" fill="#0BBABC"></path>
                            <path d="M53.6938067,39.1693567 C30.9033035,39.1693567 12.1167333,22.1716526 9.11378348,0.133099415 L6.07940181,0.133099415 C9.09685864,23.8309118 29.2543407,42.1506866 53.6938067,42.1506866 C78.1332728,42.1506866 98.2907549,23.8309118 101.308212,0.133099415 L98.27383,0.133099415 C95.2708802,22.1716526 76.48431,39.1693567 53.6938067,39.1693567" id="Fill-10" fill="#0BBABC"></path>
                        </g>
                    </g>
                </g>
            </g>
        </g>
    </g>
</svg>