<?xml version="1.0" encoding="UTF-8"?>
<svg width="60px" height="60px" viewBox="0 0 60 60" version="1.1" xmlns="http://www.w3.org/2000/svg" xmlns:xlink="http://www.w3.org/1999/xlink">
    <!-- Generator: Sketch 46.1 (44463) - http://www.bohemiancoding.com/sketch -->
    <title>request blue </title>
    <desc>Created with Sketch.</desc>
    <defs></defs>
    <g id="FINAL---v3---ETH-mobile---iOS" stroke="none" stroke-width="1" fill="none" fill-rule="evenodd">
        <g id="request-blue-">
            <g id="Group">
                <g id="Request-blue-Copy" transform="translate(0.000000, 8.000000)" fill="#10ADE4">
                    <path d="M58.6603404,24 C59.6075605,24 60.134801,24.840202 59.9701327,25.7624842 C57.2991836,40.8726897 46.2860505,50 30.0005122,50 C13.7149738,50 2.70033004,40.8279187 0.0293808933,25.7162209 C-0.133776634,24.7954311 0.393463893,24 1.34068398,24 C2.0960429,24 2.71845865,24.5432212 2.85593398,25.2759729 C5.23380386,37.9640684 16.4675017,47.5823671 30.0005122,47.5823671 C43.5335226,47.5823671 54.7657098,37.9640684 57.1450904,25.2759729 C57.2825657,24.5432212 57.9049814,24 58.6603404,24 Z M31.5868308,29.1583145 C31.6866042,29.0690339 35.8271999,24.7654082 37.0214572,23.5850889 C38.2081558,22.4123358 39.3752022,21.2183974 40.5936469,20.0774221 C41.5021895,19.2254737 42.1083884,18.9530923 42.7599389,19.8504376 C43.3147394,20.6161319 42.8294779,21.3152441 42.1023415,22.0431077 C39.7108036,24.4355241 37.3222891,26.8294537 34.9322628,29.2218702 C33.8649899,30.2902104 32.7946935,31.354011 31.730444,32.4238645 C31.3162333,32.8400028 30.8234132,33.0246168 30.23989,32.9973787 C29.6336911,32.9686273 29.2073866,32.631177 28.8022461,32.2256314 C26.9367861,30.3492264 25.0652791,28.4803875 23.1937722,26.6070089 C21.6744956,25.0877262 20.1552189,23.5699566 18.6404774,22.0461341 C17.9874152,21.3924188 17.7515872,20.7432432 18.3245284,20.1697291 C18.8309539,19.6627971 19.8135706,19.7308924 20.3577891,20.2771684 C22.6268779,22.5530661 29.0365624,29.0039651 29.1484296,29.1068647 C29.1484296,28.9419226 29.1469179,2.01853686 29.1499413,1.92169015 C29.1786639,1.09546665 29.0199335,0.459910103 29.8030035,0.134565682 C30.5392102,-0.169593521 31.0940107,0.114893694 31.2512294,0.27378283 C31.6669518,0.630905078 31.5883425,1.3920597 31.5883425,2.0155104 C31.5853191,9.83285589 31.5868308,29.0024518 31.5868308,29.1583145 Z" id="send-copy-4"></path>
                </g>
                <rect id="Rectangle-11" x="0" y="0" width="60" height="60"></rect>
            </g>
        </g>
    </g>
</svg>