<?xml version="1.0" encoding="UTF-8"?>
<svg width="60px" height="60px" viewBox="0 0 60 60" version="1.1" xmlns="http://www.w3.org/2000/svg" xmlns:xlink="http://www.w3.org/1999/xlink">
    <!-- Generator: Sketch 46.1 (44463) - http://www.bohemiancoding.com/sketch -->
    <title>Send</title>
    <desc>Created with Sketch.</desc>
    <defs></defs>
    <g id="FINAL---v3---ETH-mobile---iOS" stroke="none" stroke-width="1" fill="none" fill-rule="evenodd">
        <g id="Send">
            <g id="Group">
                <g id="Send-dark-Copy" transform="translate(0.000000, 8.000000)" fill="#4C4C4C">
                    <path d="M58.6603404,24 C59.6075605,24 60.134801,24.840202 59.9701327,25.7624842 C57.2991836,40.8726897 46.2860505,50 30.0005122,50 C13.7149738,50 2.70033004,40.8279187 0.0293808933,25.7162209 C-0.133776634,24.7954311 0.393463893,24 1.34068398,24 C2.0960429,24 2.71845865,24.5432212 2.85593398,25.2759729 C5.23380386,37.9640684 16.4675017,47.5823671 30.0005122,47.5823671 C43.5335226,47.5823671 54.7657098,37.9640684 57.1450904,25.2759729 C57.2825657,24.5432212 57.9049814,24 58.6603404,24 Z M31.5868308,3.8416855 C31.5868308,3.99754818 31.5853191,23.1671441 31.5883425,30.9844896 C31.5883425,31.6079403 31.6669518,32.3690949 31.2512294,32.7262172 C31.0940107,32.8851063 30.5392102,33.1695935 29.8030035,32.8654343 C29.0199335,32.5400899 29.1786639,31.9045334 29.1499413,31.0783098 C29.1469179,30.9814631 29.1484296,4.05807737 29.1484296,3.89313532 C29.0365624,3.99603495 22.6268779,10.4469339 20.3577891,12.7228316 C19.8135706,13.2691076 18.8309539,13.3372029 18.3245284,12.8302709 C17.7515872,12.2567568 17.9874152,11.6075812 18.6404774,10.9538659 C20.1552189,9.43004339 21.6744956,7.91227384 23.1937722,6.39299105 C25.0652791,4.51961248 26.9367861,2.6507736 28.8022461,0.774368563 C29.2073866,0.368822959 29.6336911,0.0313726991 30.23989,0.00262133169 C30.8234132,-0.0246168059 31.3162333,0.159997238 31.730444,0.576135451 C32.7946935,1.64598897 33.8649899,2.70978956 34.9322628,3.77812985 C37.3222891,6.17054626 39.7108036,8.56447591 42.1023415,10.9568923 C42.8294779,11.6847559 43.3147394,12.3838681 42.7599389,13.1495624 C42.1083884,14.0469077 41.5021895,13.7745263 40.5936469,12.9225779 C39.3752022,11.7816026 38.2081558,10.5876642 37.0214572,9.41491109 C35.8271999,8.2345918 31.6866042,3.93096606 31.5868308,3.8416855 Z" id="send-copy"></path>
                </g>
                <rect id="Rectangle-11" x="0" y="0" width="60" height="60"></rect>
            </g>
        </g>
    </g>
</svg>