<?xml version="1.0" encoding="UTF-8" standalone="no"?>
<svg width="60px" height="60px" viewBox="0 0 60 60" version="1.1" xmlns="http://www.w3.org/2000/svg" xmlns:xlink="http://www.w3.org/1999/xlink">
    <!-- Generator: Sketch 41.2 (35397) - http://www.bohemiancoding.com/sketch -->
    <title>send</title>
    <desc>Created with Sketch.</desc>
    <defs></defs>
    <g id="icons" stroke="none" stroke-width="1" fill="none" fill-rule="evenodd">
        <g id="send" fill="#4C4C4C">
            <g id="Send" transform="translate(0.000000, 2.000000)">
                <polygon id="Fill-1" points="27.5013333 33.6639566 31.7213333 33.6639566 31.7213333 2.15853659 27.5013333 2.15853659"></polygon>
                <polygon id="Fill-2" points="29.61 0 26.634 3.02439024 39.1793333 15.7737127 42.1553333 12.7493225"></polygon>
                <polygon id="Fill-3" points="17.0652 12.7487805 20.0425333 15.7731707 32.5718667 3.03875339 29.5958667 0.0143631436"></polygon>
                <g id="Group-12" transform="translate(0.000000, 28.033875)">
                    <path d="M29.61,25.2216802 C15.438,25.2216802 3.754,14.5157182 1.88733333,0.633604336 L0.000666666667,0.633604336 C1.87666667,15.5604336 14.4126667,27.099729 29.61,27.099729 C44.8073333,27.099729 57.3433333,15.5604336 59.2193333,0.633604336 L57.3326667,0.633604336 C55.466,14.5157182 43.782,25.2216802 29.61,25.2216802" id="Fill-4"></path>
                    <path d="M29.728,24.1036585 C16.2,24.1036585 5.048,13.8841463 3.26666667,0.633468835 L1.464,0.633468835 C3.25466667,14.8814363 15.2213333,25.8963415 29.728,25.8963415 C44.2346667,25.8963415 56.2013333,14.8814363 57.992,0.633468835 L56.1893333,0.633468835 C54.408,13.8841463 43.256,24.1036585 29.728,24.1036585" id="Fill-6"></path>
                    <path d="M29.728,23.4765583 C16.5613333,23.4765583 5.70666667,13.5307588 3.97333333,0.633739837 L2.22,0.633739837 C3.96266667,14.5009485 15.6093333,25.2218157 29.728,25.2218157 C43.8466667,25.2218157 55.4933333,14.5009485 57.236,0.633739837 L55.4826667,0.633739837 C53.7493333,13.5307588 42.8946667,23.4765583 29.728,23.4765583" id="Fill-8"></path>
                    <path d="M29.6098667,22.4378049 C17.0418667,22.4378049 6.68186667,12.9432249 5.02586667,0.632926829 L3.35253333,0.632926829 C5.01653333,13.8700542 16.1325333,24.1031165 29.6098667,24.1031165 C43.0872,24.1031165 54.2032,13.8700542 55.8672,0.632926829 L54.1938667,0.632926829 C52.5378667,12.9432249 42.1778667,22.4378049 29.6098667,22.4378049" id="Fill-10"></path>
                </g>
            </g>
        </g>
    </g>
</svg>