<?xml version="1.0" encoding="UTF-8" standalone="no"?>
<svg width="60px" height="60px" viewBox="0 0 60 60" version="1.1" xmlns="http://www.w3.org/2000/svg" xmlns:xlink="http://www.w3.org/1999/xlink">
    <!-- Generator: Sketch 41.2 (35397) - http://www.bohemiancoding.com/sketch -->
    <title>settings</title>
    <desc>Created with Sketch.</desc>
    <defs>
        <polygon id="path-1" points="0.000428571428 58.9285714 58.6703571 58.9285714 58.6703571 0.280821429 0.000428571428 0.280821429 0.000428571428 58.9285714"></polygon>
    </defs>
    <g id="icons" stroke="none" stroke-width="1" fill="none" fill-rule="evenodd">
        <g id="settings">
            <g transform="translate(1.000000, 0.000000)">
                <path d="M29.3351786,36.6141429 C25.9751786,36.6141429 23.2516071,33.8905714 23.2516071,30.5305714 C23.2516071,27.1705714 25.9751786,24.447 29.3351786,24.447 C32.6951786,24.447 35.41875,27.1705714 35.41875,30.5305714 C35.41875,33.8905714 32.6951786,36.6141429 29.3351786,36.6141429 M29.3351786,21.957 C24.5994643,21.957 20.7616071,25.7948571 20.7616071,30.5305714 C20.7616071,35.2652143 24.5994643,39.1041429 29.3351786,39.1041429 C34.0708929,39.1041429 37.90875,35.2652143 37.90875,30.5305714 C37.90875,25.7948571 34.0708929,21.957 29.3351786,21.957" id="Fill-1" fill="#3B3A3E"></path>
                <g id="Group-5" transform="translate(0.000000, 0.790714)">
                    <mask id="mask-2" fill="white">
                        <use xlink:href="#path-1"></use>
                    </mask>
                    <g id="Clip-4"></g>
                    <path d="M56.0275714,31.99725 C56.0275714,32.6476071 55.4961429,33.1790357 54.8457857,33.1790357 L47.4111429,33.1790357 L44.4915,33.1790357 L44.004,33.1790357 C43.5443571,35.0551071 42.7418571,36.7918929 41.6554286,38.31975 L41.7025714,38.3668929 L44.0211429,40.6854643 L49.0247143,45.6890357 C49.4843571,46.1486786 49.4843571,46.9008214 49.0247143,47.3604643 L46.2465,50.1386786 C45.7868571,50.5983214 45.0347143,50.5983214 44.5750714,50.1386786 L39.429,44.9915357 L37.2529286,42.8165357 L37.0182857,42.5818929 C35.6307857,43.4036786 34.1082857,44.0186786 32.4818571,44.3636786 L32.4818571,44.7493929 L32.4818571,47.7236786 L32.4818571,55.10475 C32.4818571,55.7540357 31.9493571,56.2854643 31.3000714,56.2854643 L27.3700714,56.2854643 C26.7207857,56.2854643 26.1893571,55.7540357 26.1893571,55.10475 L26.1893571,47.7236786 L26.1893571,44.7493929 L26.1893571,44.3636786 C24.1268571,43.9265357 22.2272143,43.0640357 20.5697143,41.8811786 L20.4893571,41.9604643 L18.204,44.2458214 L13.1682857,49.2826071 C12.7086429,49.74225 11.9565,49.74225 11.4968571,49.2826071 L8.71864286,46.5043929 C8.259,46.04475 8.259,45.2926071 8.71864286,44.8340357 L13.9054286,39.6461786 L16.0407857,37.5118929 L16.3161429,37.2365357 C15.4354286,35.7418929 14.8022143,34.0886786 14.4775714,32.3229643 L14.1797143,32.3229643 L11.1293571,32.3229643 L3.82435714,32.3229643 C3.174,32.3229643 2.64257143,31.7915357 2.64257143,31.1411786 L2.64257143,27.21225 C2.64257143,26.5618929 3.174,26.0304643 3.82435714,26.0304643 L11.2515,26.0304643 L14.1797143,26.0304643 L14.6532857,26.0304643 C15.1065,24.1468929 15.9068571,22.4015357 16.9922143,20.8661786 L16.9675714,20.8415357 L14.6265,18.5015357 L9.64542857,13.5204643 C9.18578571,13.0608214 9.18578571,12.3086786 9.64542857,11.8490357 L12.4236429,9.07082143 C12.8832857,8.61117857 13.6354286,8.61117857 14.0950714,9.07082143 L19.209,14.18475 L21.4172143,16.3929643 L21.6186429,16.5943929 C23.0147143,15.7629643 24.549,15.1404643 26.1893571,14.79225 L26.1893571,14.4601071 L26.1893571,11.4333214 L26.1893571,4.10475 C26.1893571,3.45546429 26.7207857,2.92403571 27.3700714,2.92403571 L31.3000714,2.92403571 C31.9493571,2.92403571 32.4818571,3.45546429 32.4818571,4.10475 L32.4818571,11.4333214 L32.4818571,14.4601071 L32.4818571,14.79225 C34.5561429,15.2326071 36.4665,16.1036786 38.1304286,17.2983214 L38.1807857,17.2479643 L40.4961429,14.9326071 L45.5029286,9.92689286 C45.9625714,9.46725 46.7136429,9.46725 47.1732857,9.92689286 L49.9515,12.7051071 C50.4111429,13.16475 50.4111429,13.9158214 49.9515,14.3754643 L44.784,19.5429643 L42.6304286,21.6976071 L42.3743571,21.9536786 C43.254,23.4536786 43.8818571,25.1143929 44.2000714,26.8865357 L44.4915,26.8865357 L47.5493571,26.8865357 L54.8457857,26.8865357 C55.4961429,26.8865357 56.0275714,27.4179643 56.0275714,28.0683214 L56.0275714,31.99725 Z M56.7443571,24.61725 L47.0725714,24.61725 C46.7811429,23.5704643 46.3975714,22.5654643 45.9336429,21.6033214 L52.899,14.6379643 C53.6479286,13.8890357 53.6479286,12.6633214 52.899,11.9143929 L47.964,6.97939286 C47.2150714,6.23046429 45.9893571,6.23046429 45.2404286,6.97939286 L38.574,13.6458214 C37.3761429,12.9493929 36.1011429,12.3718929 34.7500714,11.95725 L34.7500714,2.20725 C34.7500714,1.14760714 33.8832857,0.280821429 32.8236429,0.280821429 L25.8465,0.280821429 C24.7868571,0.280821429 23.9200714,1.14760714 23.9200714,2.20725 L23.9200714,11.95725 C22.9975714,12.2401071 22.1157857,12.60975 21.2607857,13.0276071 L14.3575714,6.12439286 C13.6086429,5.37439286 12.3818571,5.37439286 11.6329286,6.12439286 L6.699,11.0583214 C5.95007143,11.80725 5.95007143,13.0329643 6.699,13.7829643 L13.3472143,20.4301071 C12.744,21.4811786 12.2425714,22.5943929 11.8536429,23.7611786 L1.92685714,23.7611786 C0.867214286,23.7611786 0.000428571428,24.6279643 0.000428571428,25.6876071 L0.000428571428,32.6658214 C0.000428571428,33.7254643 0.867214286,34.59225 1.92685714,34.59225 L11.6104286,34.59225 C11.9050714,35.6326071 12.2907857,36.63225 12.7536429,37.5890357 L5.77221429,44.5715357 C5.02221429,45.3204643 5.02221429,46.5461786 5.77221429,47.2951071 L10.7061429,52.2290357 C11.4550714,52.9790357 12.6807857,52.9790357 13.4307857,52.2290357 L20.1293571,45.5315357 C21.3175714,46.2183214 22.5818571,46.7883214 23.9200714,47.19975 L23.9200714,57.00225 C23.9200714,58.0618929 24.7868571,58.9286786 25.8465,58.9286786 L32.8236429,58.9286786 C33.8832857,58.9286786 34.7500714,58.0618929 34.7500714,57.00225 L34.7500714,47.19975 C35.6597143,46.9201071 36.5297143,46.5568929 37.374,46.1465357 L44.3125714,53.0851071 C45.0625714,53.8340357 46.2882857,53.8340357 47.0372143,53.0851071 L51.9711429,48.1511786 C52.7200714,47.40225 52.7200714,46.1765357 51.9711429,45.4265357 L45.3036429,38.7590357 C45.9047143,37.7143929 46.4072143,36.6086786 46.7972143,35.4483214 L56.7443571,35.4483214 C57.8029286,35.4483214 58.6707857,34.5804643 58.6707857,33.5218929 L58.6707857,26.5436786 C58.6707857,25.4840357 57.8029286,24.61725 56.7443571,24.61725 L56.7443571,24.61725 Z" id="Fill-3" fill="#3B3A3E" mask="url(#mask-2)"></path>
                </g>
            </g>
        </g>
    </g>
</svg>