<?xml version="1.0" encoding="UTF-8" standalone="no"?>
<svg width="60px" height="60px" viewBox="0 0 60 60" version="1.1" xmlns="http://www.w3.org/2000/svg" xmlns:xlink="http://www.w3.org/1999/xlink">
    <!-- Generator: Sketch 41.2 (35397) - http://www.bohemiancoding.com/sketch -->
    <title>success</title>
    <desc>Created with Sketch.</desc>
    <defs></defs>
    <g id="icons" stroke="none" stroke-width="1" fill="none" fill-rule="evenodd">
        <g id="success">
            <g id="Layer_2">
                <g>
                    <g>
                        <g id="Layer_1-2">
                            <path d="M29.8145455,3.56727273 C15.318577,3.56727273 3.56727273,15.318577 3.56727273,29.8145455 C3.56727273,44.3105139 15.318577,56.0618182 29.8145455,56.0618182 C44.3105139,56.0618182 56.0618182,44.3105139 56.0618182,29.8145455 C56.0618182,22.8533359 53.2964885,16.1772394 48.37417,11.2549209 C43.4518515,6.33260245 36.775755,3.56727273 29.8145455,3.56727273 L29.8145455,3.56727273 Z M45.5127273,15.7527273 L25.8109091,45.8181818 C25.7348355,45.9351479 25.6116315,46.0132234 25.4733822,46.0320756 C25.335133,46.0509278 25.1955226,46.0086906 25.0909091,45.9163636 L14.5090909,36.4690909 C14.3236364,36.3054545 13.8436364,35.0727273 14.1927273,34.5490909 C14.5418182,34.0254545 15.8290909,33.6109091 16.3090909,34.0909091 L24.4472727,41.0618182 C24.5514547,41.1502793 24.6884063,41.1901342 24.8237868,41.1713893 C24.9591672,41.1526443 25.0801373,41.0770771 25.1563636,40.9636364 L43.0145455,13.8872727 C43.4313498,13.5983248 43.9553087,13.5103317 44.4436364,13.6472727 L44.5418182,13.6472727 C45.5345455,13.8545455 45.6872727,15.48 45.5127273,15.7527273 Z" id="Shape"></path>
                            <path d="M44.5527273,13.6690909 L44.4545455,13.6690909 C43.9662178,13.5321499 43.4422589,13.620143 43.0254545,13.9090909 L25.0909091,40.9636364 C25.0146828,41.0770771 24.8937127,41.1526443 24.7583322,41.1713893 C24.6229517,41.1901342 24.4860001,41.1502793 24.3818182,41.0618182 L16.2436364,34.0909091 C15.7745455,33.6 14.3890909,33.9927273 14.1272727,34.5490909 C13.8654545,35.1054545 14.2581818,36.3054545 14.4436364,36.4690909 L25.0909091,45.9163636 C25.1955226,46.0086906 25.335133,46.0509278 25.4733822,46.0320756 C25.6116315,46.0132234 25.7348355,45.9351479 25.8109091,45.8181818 L45.5127273,15.7527273 C45.6872727,15.48 45.5345455,13.8545455 44.5527273,13.6690909 Z" id="Shape" fill="#4C4C4C"></path>
                            <path d="M29.8145455,0 C13.3484267,-1.00825898e-15 2.01651797e-15,13.3484267 0,29.8145455 C-2.01651797e-15,46.2806642 13.3484267,59.6290909 29.8145455,59.6290909 C46.2806642,59.6290909 59.6290909,46.2806642 59.6290909,29.8145455 C59.6290909,21.9072364 56.4879246,14.3237901 50.8966127,8.73247819 C45.3053008,3.14116631 37.7218545,4.84183038e-16 29.8145455,0 Z M29.8145455,56.0618182 C15.318577,56.0618182 3.56727273,44.3105139 3.56727273,29.8145455 C3.56727273,15.318577 15.318577,3.56727273 29.8145455,3.56727273 C44.3105139,3.56727273 56.0618182,15.318577 56.0618182,29.8145455 C56.0618182,36.775755 53.2964885,43.4518515 48.37417,48.37417 C43.4518515,53.2964885 36.775755,56.0618182 29.8145455,56.0618182 Z" id="Shape" fill="#4C4C4C"></path>
                        </g>
                    </g>
                </g>
            </g>
        </g>
    </g>
</svg>