<?xml version="1.0" encoding="UTF-8"?>
<svg width="42px" height="42px" viewBox="0 0 42 42" version="1.1" xmlns="http://www.w3.org/2000/svg" xmlns:xlink="http://www.w3.org/1999/xlink">
    <!-- Generator: Sketch 47.1 (45422) - http://www.bohemiancoding.com/sketch -->
    <title>Slice 4</title>
    <desc>Created with Sketch.</desc>
    <defs>
        <circle id="path-1" cx="21.5" cy="19.5" r="17.5"></circle>
        <path d="M20,0 C8.96,0 0,8.96 0,20 C0,31.04 8.96,40 20,40 C31.04,40 40,31.04 40,20 C40,8.96 31.04,0 20,0 Z M9,14 L16,7 L23,14 L18,14 L18,22 L14,22 L14,14 L9,14 Z M31,26 L24,33 L17,26 L22,26 L22,18 L26,18 L26,26 L31,26 Z" id="path-2"></path>
    </defs>
    <g id="iOS---Androdi-final-" stroke="none" stroke-width="1" fill="none" fill-rule="evenodd">
        <g id="Group-18" transform="translate(1.000000, 1.000000)">
            <g id="Oval-4">
                <use fill="#E2E5EB" fill-rule="evenodd" xlink:href="#path-1"></use>
                <circle stroke="#E2E5EB" stroke-width="1" cx="21.5" cy="19.5" r="17"></circle>
            </g>
            <g id="Shape" fill-rule="nonzero">
                <use fill="#FFFFFF" fill-rule="evenodd" xlink:href="#path-2"></use>
                <path stroke="#E2E5EB" stroke-width="1" d="M20,-0.5 C31.3161424,-0.5 40.5,8.68385763 40.5,20 C40.5,31.3161424 31.3161424,40.5 20,40.5 C8.68385763,40.5 -0.5,31.3161424 -0.5,20 C-0.5,8.68385763 8.68385763,-0.5 20,-0.5 Z M10.2071068,13.5 L14.5,13.5 L14.5,21.5 L17.5,21.5 L17.5,13.5 L21.7928932,13.5 L16,7.70710678 L10.2071068,13.5 Z M29.7928932,26.5 L25.5,26.5 L25.5,18.5 L22.5,18.5 L22.5,26.5 L18.2071068,26.5 L24,32.2928932 L29.7928932,26.5 Z"></path>
            </g>
        </g>
    </g>
</svg>