<?xml version="1.0" encoding="UTF-8"?>
<svg width="60px" height="60px" viewBox="0 0 60 60" version="1.1" xmlns="http://www.w3.org/2000/svg" xmlns:xlink="http://www.w3.org/1999/xlink">
    <!-- Generator: Sketch 46.1 (44463) - http://www.bohemiancoding.com/sketch -->
    <title>tx</title>
    <desc>Created with Sketch.</desc>
    <defs></defs>
    <g id="FINAL---v3---ETH-mobile---iOS" stroke="none" stroke-width="1" fill="none" fill-rule="evenodd">
        <g id="tx">
            <g id="Group">
                <g id="tx-dark-copy" transform="translate(10.000000, 2.000000)" fill="#4C4C4C">
                    <path d="M28.3198591,13.9999827 C24.0631097,13.9999827 19.8063604,13.9999827 15.5496111,13.9999827 C15.3225087,13.9999827 15.0925676,14.0012312 14.8654653,13.9825035 C14.1344797,13.9200777 13.6731781,13.4568782 13.7171791,12.8438569 C13.7597608,12.2545573 14.2508696,11.8525352 14.9719195,11.8512866 C18.2790972,11.8450441 21.5848555,11.8462926 24.8920332,11.8462926 C30.4602985,11.8462926 25.0935866,11.8450441 30.6604325,11.8500381 C31.7207165,11.8512866 32.3253764,12.7040231 31.817235,13.4568782 C31.5319377,13.8801252 31.0819912,13.9974857 30.5539783,13.9962372 C28.7300627,13.9924916 26.9061471,13.9987342 25.0822314,13.9999827 C22.5159751,13.9999827 30.8861154,13.9999827 28.3198591,13.9999827 Z M9.16692984,11.8461648 C9.84151044,11.8486734 10.2928313,12.288947 10.2856293,12.9361868 C10.2760268,13.5796636 9.81270272,14.0086481 9.13332084,13.9998677 C8.47434443,13.9923416 7.98821428,13.5207096 8.0002175,12.8998109 C8.01342103,12.2738949 8.48994861,11.8436561 9.16692984,11.8461648 Z M9.16692984,21.5384725 C9.84151044,21.5409812 10.2928313,21.9812618 10.2856293,22.628512 C10.2760268,23.2719991 9.81270272,23.6997361 9.13332084,23.6922099 C8.47434443,23.6846838 7.98821428,23.2117898 8.0002175,22.5921355 C8.01342103,21.9649551 8.48994861,21.5359638 9.16692984,21.5384725 Z M9.13502858,43.0769231 C8.47757372,43.0769231 7.99288072,42.6147053 8.00007913,41.9925851 C8.00727754,41.4016959 8.49676948,40.9319827 9.11583282,40.923238 C9.80927973,40.9132441 10.2951725,41.3692157 10.2855746,42.0213176 C10.2759767,42.6571794 9.81887761,43.0769231 9.13502858,43.0769231 Z M10.2857121,32.3058431 C10.2869119,32.9259774 9.79977511,33.3870713 9.14825963,33.3846055 C8.497944,33.3809069 7.99760891,32.9099501 8.0000086,32.3058431 C8.00240828,31.6918732 8.49314462,31.233245 9.14945948,31.2307793 C9.80697418,31.2283135 10.2845122,31.6807773 10.2857121,32.3058431 Z M28.3198591,23.6917529 C24.0631097,23.6917529 19.8063604,23.6917529 15.5496111,23.6917529 C15.3225087,23.6917529 15.0925676,23.6942494 14.8654653,23.6742778 C14.1344797,23.6118665 13.6731781,23.1487747 13.7171791,22.5371441 C13.7597608,21.9479815 14.2508696,21.5448046 14.9719195,21.5435563 C18.2790972,21.5373152 21.5848555,21.5385634 24.8920332,21.5385634 C30.4602985,21.5385634 25.0935866,21.5385634 30.6604325,21.5435563 C31.7207165,21.5435563 32.3253764,22.3960946 31.817235,23.1500229 C31.5319377,23.5731715 31.0819912,23.6905047 30.5539783,23.6892565 C28.7300627,23.6855118 26.9061471,23.6917529 25.0822314,23.6917529 C22.5159751,23.6930012 30.8861154,23.6917529 28.3198591,23.6917529 Z M28.356231,31.2325104 C32.7279711,31.2325104 26.1668136,31.2349727 30.5385537,31.2312792 C31.0891007,31.230048 31.5516736,31.3556285 31.8340418,31.7963914 C32.0681661,32.1595899 32.0525578,32.5227884 31.7999873,32.8736751 C31.5034298,33.2836585 31.0465326,33.3846154 30.5215265,33.3846154 C27.785819,33.3809218 25.0486925,33.3846154 22.3115661,33.3846154 C16.2881851,33.3846154 21.1948639,33.3846154 15.170064,33.382153 C14.1455926,33.382153 13.5240989,32.7690247 13.7667368,32.0069235 C13.9270765,31.5046015 14.4180282,31.2325104 15.1870912,31.2312792 C18.3229385,31.230048 21.4587859,31.2312792 24.5946332,31.2325104 C25.8475532,31.2325104 27.1018921,31.2325104 28.356231,31.2325104 Z M28.3050485,43.073877 C23.9150052,43.073877 19.5263808,43.073877 15.1377565,43.073877 C14.2594641,43.073877 13.7287995,42.6788575 13.7146106,42.0221532 C13.6990028,41.3579722 14.2466941,40.9317998 15.156202,40.9305536 C19.5079353,40.924323 23.8582496,40.9230769 28.2099829,40.9230769 C32.5602972,40.9230769 25.9809079,40.9268153 30.3326411,40.9293075 C30.4262878,40.9293075 30.5213534,40.9268153 30.616419,40.9280614 C31.4195103,40.9442609 31.9884849,41.3804023 31.999836,41.9897541 C32.0111871,42.6240283 31.4322803,43.0763692 30.5979734,43.0763692 C26.1894846,43.0776154 32.7121184,43.0763692 28.3050485,43.0763692 L28.3050485,43.073877 Z M2.28825651,28.6488637 C2.28825651,35.9058071 2.38082898,49.2329621 2.42784992,50.3549376 C2.42784992,53.0859697 4.04566412,53.8461538 7.33419107,53.8461538 C22.5234239,53.8433383 17.4774894,53.8419306 32.6667222,53.8447461 C35.7642266,53.8447461 37.7346978,51.9245772 37.7141262,48.9457814 C37.640656,37.4853009 37.5818798,27.662032 37.509879,16.2015516 C37.4893073,12.8651877 37.4922461,9.52741599 37.3923266,6.19386757 C37.3350199,4.29199937 35.8861872,2.71391332 33.9318794,2.32678248 C33.0575838,2.15503717 32.1347978,2.16489141 31.2355224,2.16348366 C16.5576422,2.15222167 22.1163989,2.15222167 7.43851878,2.15644491 C6.95067654,2.15644491 6.44814025,2.17193015 5.97352264,2.27188029 C3.63716971,2.76318451 2.29560353,4.47078343 2.29119532,6.99065322 C2.28090949,14.2095875 2.28825651,21.4299294 2.28825651,28.6488637 M0,50.1494 L0,6.097 C0.0321261682,6.0536 0.0949182243,6.013 0.0949182243,5.9626 C0.0949182243,2.0566 2.41530374,0.0238 7.79205607,0.0238 C22.7321846,0.0238 17.5627921,0 32.5014603,0 C38.8157126,0 40,2.6726 40,7.2128 C39.9372079,21.9478 39.9605724,35.0546 39.9985397,49.7896 C39.9985397,54.2598 37.6314252,56 34.9299065,56 L5.28183411,56 C1.79760514,56 0,54.586 0,50.1494" id="transactions-copy"></path>
                </g>
                <rect id="Rectangle-11" x="0" y="0" width="60" height="60"></rect>
            </g>
        </g>
    </g>
</svg>