<?xml version="1.0" encoding="UTF-8" standalone="no"?>
<svg width="60px" height="60px" viewBox="0 0 60 60" version="1.1" xmlns="http://www.w3.org/2000/svg" xmlns:xlink="http://www.w3.org/1999/xlink">
    <!-- Generator: Sketch 41.2 (35397) - http://www.bohemiancoding.com/sketch -->
    <title>wallet</title>
    <desc>Created with Sketch.</desc>
    <defs></defs>
    <g id="icons" stroke="none" stroke-width="1" fill="none" fill-rule="evenodd">
        <g id="wallet">
            <g id="Layer_2">
                <g>
                    <g>
                        <g id="Layer_1-2">
                            <path d="M45.0268657,14.8208955 C43.5940299,10.1910448 42.5283582,7.65671642 41.0955224,3.02686567 C29.9283582,7.65671642 23.5970149,10.1910448 12.4925373,14.8208955 L45.0268657,14.8208955 Z" id="Shape"></path>
                            <path d="M48.0985075,14.8567164 L50.0955224,14.8567164 C51.3197977,14.7440586 52.5543101,14.8687261 53.7313433,15.2238806 C53.8770994,14.2018444 53.6919498,13.1599857 53.2029851,12.2507463 C52.7849179,11.1769645 51.790332,10.4362415 50.641791,10.3432836 C48.8507463,10.2358209 48.0089552,10.3432836 46.1641791,10.3432836 C46.7014925,12.0179104 46.9880597,12.8507463 47.5701493,14.5701493 C47.6871494,14.7481432 47.8855053,14.8557261 48.0985075,14.8567164 Z" id="Shape"></path>
                            <path d="M51.7522388,45.519403 C49.6917686,45.6052905 47.6279254,45.5604243 45.5731343,45.3850746 C41.1591166,44.7836478 37.9586165,40.8758332 38.238806,36.4298507 C38.4366296,31.7781526 42.287578,28.1213364 46.9432836,28.1641791 L53.9820896,28.1641791 L53.9820896,27.6089552 L53.9820896,22.441791 C53.9820896,19.4149254 51.9940299,17.5970149 48.9671642,17.5970149 C20.041791,17.5970149 25.4149254,17.5343284 10.9522388,17.5253731 C8.94626866,17.5253731 5.22089552,17.238806 3.54626866,15.7343284 L3.54626866,16.3164179 L3.54626866,51.4119403 C3.53360864,51.9474412 3.58471418,52.4825463 3.69850746,53.0059701 C4.33494844,55.3037012 6.47489104,56.8566457 8.85671642,56.7492537 C22.9164179,56.7492537 21.0895522,56.6955224 44.0328358,56.6865672 C46.5492537,56.6865672 47.3014925,56.7850746 49.8089552,56.6865672 C51.9134328,56.5880597 53.561194,56.8477612 53.9373134,54.7701493 C54.0519311,53.3224163 54.0937749,51.8698407 54.0626866,50.4179104 L54.0626866,45.5014925 C52.6567164,45.519403 53.1044776,45.5283582 51.7522388,45.519403 Z" id="Shape"></path>
                            <path d="M9.85074627,13.5850746 C12.358209,12.5462687 12.1880597,12.5731343 14.7044776,11.5343284 L17.8029851,10.2358209 L14.8029851,10.2358209 C11.8835821,10.2358209 10.7641791,10.2358209 7.84477612,10.3880597 C6.53731343,10.441791 5.22089552,10.3880597 4.17313433,11.2835821 C3.55522388,11.8029851 3.34925373,12.1791045 3.6,12.680597 C4.37014925,14.158209 8.31940299,14.238806 9.85074627,13.5850746 Z" id="Shape"></path>
                            <path d="M56.6328358,36.7164179 L56.6328358,32.7761194 C56.6804377,32.2459623 56.4897625,31.7221006 56.1125125,31.3465811 C55.7352625,30.9710616 55.2105296,30.782797 54.680597,30.8328358 L47.1940299,30.8328358 C42.8597015,30.8328358 40.361194,33.4656716 40.361194,36.8149254 C40.361194,40.3522388 42.2328358,42.8149254 46.558209,42.8507463 L54.7522388,42.8507463 C55.6355714,42.9161185 56.4184907,42.2858684 56.5432836,41.4089552 C56.6072671,41.1147011 56.6402827,40.8145592 56.641791,40.5134328 L56.641791,36.6985075 L56.6328358,36.7164179 Z M48.7253731,40.3880597 C46.7470397,40.3880597 45.1432836,38.7843036 45.1432836,36.8059701 C45.1432836,34.8276367 46.7470397,33.2238806 48.7253731,33.2238806 C50.7037066,33.2238806 52.3074627,34.8276367 52.3074627,36.8059701 C52.317044,37.763745 51.9426482,38.6854632 51.267894,39.3652655 C50.5931397,40.0450678 49.6742376,40.4263231 48.7164179,40.4238806 L48.7253731,40.3880597 Z" id="Shape"></path>
                            <path d="M48.761194,34.1552239 C47.277444,34.1552239 46.0746269,35.358041 46.0746269,36.841791 C46.0746269,38.3255411 47.277444,39.5283582 48.761194,39.5283582 C50.2449441,39.5283582 51.4477612,38.3255411 51.4477612,36.841791 C51.4477612,35.358041 50.2449441,34.1552239 48.761194,34.1552239 Z" id="Shape"></path>
                            <path d="M59.3641791,31.3432836 C59.4413646,30.5716009 59.2064076,29.801135 58.711746,29.2038397 C58.2170845,28.6065443 57.5038933,28.2321372 56.7313433,28.1641791 L56.7313433,20.5970149 C56.7320515,19.5142607 56.421175,18.454172 55.8358209,17.5432836 C55.7160585,17.326874 55.6543556,17.0831477 55.6567164,16.8358209 C55.736361,15.075289 55.4935659,13.3150247 54.9402985,11.641791 C54.2788125,9.70624528 52.4357624,8.42554316 50.3910448,8.48059701 L46.1373134,8.48059701 C45.7164179,8.48059701 45.5552239,8.35522388 45.4298507,7.95223881 C44.7761194,5.57014925 43.9791045,3.23283582 43.2268657,0.895522388 C42.9044776,-0.11641791 42.8238806,-0.152238806 41.8746269,0.241791045 C35.4507463,2.91044776 29.0208955,5.57910448 22.5850746,8.24776119 C22.2686303,8.37283093 21.9313075,8.43664875 21.5910448,8.4358209 L9.21492537,8.4358209 C7.19575269,8.33234707 5.17643806,8.63691941 3.27761194,9.33134328 C1.76132215,9.84466066 0.782477322,11.3166078 0.895522388,12.9134328 L0.895522388,49.719403 L0.895522388,53.3014925 C0.834633108,54.946329 1.46135203,56.542248 2.62522367,57.7061196 C3.78909532,58.8699913 5.38501431,59.4967102 7.02985075,59.4358209 L37.4776119,59.4358209 L50.9104478,59.4358209 C53.6211161,59.5432304 56.010051,57.670002 56.5522388,55.0119403 C56.6814545,54.2489757 56.732465,53.4748154 56.7044776,52.7014925 L56.7044776,46.0656716 C56.7044776,45.7880597 56.7044776,45.5462687 57.0716418,45.4477612 C57.7434733,45.3630005 58.3537643,45.0138181 58.7672839,44.4775873 C59.1808036,43.9413566 59.3634051,43.2623572 59.2746269,42.5910448 C59.3402985,38.8358209 59.3701493,35.0865672 59.3641791,31.3432836 Z M50.6686567,10.3791045 C51.8171977,10.4720623 52.8117835,11.2127854 53.2298507,12.2865672 C53.7020282,13.1884766 53.8775269,14.2163974 53.7313433,15.2238806 C52.5447264,14.8550458 51.2975603,14.7212036 50.0597015,14.8298507 L48.0626866,14.8298507 C47.865738,14.821492 47.6838052,14.7222559 47.5701493,14.561194 C46.9970149,12.841791 46.6746269,12.0089552 46.1641791,10.3343284 C48.0447761,10.3522388 48.8865672,10.2716418 50.6686567,10.3791045 Z M41.0955224,3.02686567 C42.519403,7.62985075 43.5850746,10.1910448 45.0268657,14.8208955 L12.4925373,14.8208955 C23.5970149,10.2179104 29.9283582,7.64776119 41.0955224,3.02686567 Z M4.21791045,11.2567164 C5.26567164,10.361194 6.58208955,10.441791 7.88955224,10.361194 C10.8,10.2358209 11.9283582,10.2447761 14.8477612,10.2089552 L17.8477612,10.2089552 L14.7492537,11.5074627 C12.2238806,12.5373134 12.4029851,12.5373134 9.85074627,13.5850746 C8.28358209,14.238806 4.32537313,14.158209 3.58208955,12.6895522 C3.39402985,12.1164179 3.58208955,11.7761194 4.21791045,11.2567164 Z M54.0537313,50.4358209 C54.0848196,51.8877512 54.0429759,53.3403267 53.9283582,54.7880597 C53.5522388,56.8567164 51.9044776,56.5791045 49.8,56.7044776 C47.2925373,56.8208955 46.5313433,56.7044776 44.0238806,56.7044776 C21.080597,56.7044776 22.9074627,56.758209 8.84776119,56.7671642 C6.46593582,56.8745561 4.32599322,55.3216117 3.68955224,53.0238806 C3.57575895,52.5004567 3.52465341,51.9653516 3.53731343,51.4298507 L3.53731343,16.3343284 L3.53731343,15.7522388 C5.2119403,17.238806 8.91044776,17.5432836 10.9432836,17.5432836 C25.4059701,17.5432836 20.0328358,17.6149254 48.958209,17.6149254 C51.9761194,17.6149254 53.9283582,19.4059701 53.9731343,22.4597015 L53.9731343,27.6268657 L53.9731343,28.1820896 L46.9432836,28.1820896 C42.287578,28.1392468 38.4366296,31.7960631 38.238806,36.4477612 C37.9586165,40.8937437 41.1591166,44.8015583 45.5731343,45.4029851 C47.6279254,45.5783348 49.6917686,45.6232009 51.7522388,45.5373134 L54.0537313,45.5373134 C54.0537313,47.8119403 54.0626866,48.2238806 54.0537313,50.4358209 Z M56.6328358,40.5850746 C56.6313275,40.886201 56.5983119,41.1863429 56.5343284,41.480597 C56.4095355,42.3575102 55.6266162,42.9877603 54.7432836,42.9223881 L46.5492537,42.9223881 C42.2328358,42.9223881 40.3522388,40.4238806 40.3522388,36.8865672 C40.3522388,33.5373134 42.8507463,30.9134328 47.1850746,30.9044776 L54.6716418,30.9044776 C55.2015744,30.8544388 55.7263073,31.0427034 56.1035573,31.4182229 C56.4808073,31.7937424 56.6714824,32.3176041 56.6238806,32.8477612 L56.6238806,36.7880597 L56.6238806,36.7880597 C56.6328358,38.6238806 56.641791,38.7044776 56.6328358,40.5671642 L56.6328358,40.5850746 Z" id="Shape" fill="#565459"></path>
                            <path d="M48.7343284,33.2776119 C46.7559949,33.2776119 45.1522388,34.8813681 45.1522388,36.8597015 C45.1522388,38.8380349 46.7559949,40.441791 48.7343284,40.441791 C50.7126618,40.441791 52.3164179,38.8380349 52.3164179,36.8597015 C52.3164179,34.8813681 50.7126618,33.2776119 48.7343284,33.2776119 Z M48.6895522,39.5462687 C47.2058022,39.5264853 46.0190226,38.3076307 46.038806,36.8238806 C46.0585893,35.3401305 47.277444,34.153351 48.761194,34.1731343 C49.721012,34.1859319 50.601093,34.7098142 51.069919,35.5474397 C51.538745,36.3850653 51.5250901,37.4091789 51.0340981,38.2340069 C50.5431061,39.0588349 49.6493702,39.5590662 48.6895522,39.5462687 L48.6895522,39.5462687 Z" id="Shape" fill="#565459"></path>
                        </g>
                    </g>
                </g>
            </g>
        </g>
    </g>
</svg>