<?xml version="1.0" encoding="UTF-8"?>
<svg width="60px" height="60px" viewBox="0 0 60 60" version="1.1" xmlns="http://www.w3.org/2000/svg" xmlns:xlink="http://www.w3.org/1999/xlink">
    <!-- Generator: Sketch 46.1 (44463) - http://www.bohemiancoding.com/sketch -->
    <title>Slice Copy</title>
    <desc>Created with Sketch.</desc>
    <defs></defs>
    <g id="FINAL---v3---ETH-mobile---Android" stroke="none" stroke-width="1" fill="none" fill-rule="evenodd">
        <path d="M2.45801925,4.0019815 C1.60040412,4.16509506 0.984907853,4.92216303 1.00028169,5.79501662 L1.00028169,41.655719 C1.00028169,42.645985 1.80305086,43.4487542 2.79331681,43.4487542 L56.5843704,43.4487542 C57.5746364,43.4487542 58.3774056,42.645985 58.3774056,41.655719 L58.3774056,5.79501662 C58.3774056,4.80475067 57.5746364,4.0019815 56.5843704,4.0019815 L2.79331681,4.0019815 C2.73716611,3.9993395 2.68092222,3.9993395 2.62477151,4.0019815 C2.56862081,3.9993395 2.51237692,3.9993395 2.45622621,4.0019815 L2.45801925,4.0019815 Z M4.58814497,7.58805174 L54.7931283,7.58805174 L54.7931283,39.8626839 L4.58814497,39.8626839 L4.58814497,7.58805174 Z M24.1721405,45 L24.1721405,52.1721405 C24.1721405,53.2479616 23.4549264,53.9651756 22.3791054,53.9651756 L18.7930351,53.9651756 C17.717214,53.9651756 17,54.6823897 17,55.7582107 L42.1024917,55.7582107 C42.1024917,54.6823897 41.3852776,53.9651756 40.3094566,53.9651756 L36.7233863,53.9651756 C35.6475653,53.9651756 34.9303512,53.2479616 34.9303512,52.1721405 L34.9303512,45 L24.1721405,45 Z" id="Shape" fill="#3B3A3E" fill-rule="nonzero"></path>
    </g>
</svg>